<?xml version="1.0" encoding="utf-8"?>
<!-- Generator: Adobe Illustrator 22.0.1, SVG Export Plug-In . SVG Version: 6.00 Build 0)  -->
<svg version="1.1" id="Layer_1" xmlns="http://www.w3.org/2000/svg" xmlns:xlink="http://www.w3.org/1999/xlink" x="0px" y="0px"
	 viewBox="0 0 792 305.5" style="enable-background:new 0 0 792 305.5;" xml:space="preserve">
<style type="text/css">
	.st0{fill:#00253E;}
	.st1{opacity:0.76;}
	.st2{fill:#FFFFFF;}
	.st3{opacity:0.36;}
	.st4{opacity:0.3;}
	.st5{opacity:0.42;}
	.st6{opacity:0.33;}
	.st7{opacity:0.5;}
	.st8{opacity:0.85;fill:#FFFFFF;enable-background:new    ;}
	.st9{opacity:0.58;fill:#FFFFFF;enable-background:new    ;}
	.st10{opacity:0.35;fill:#FFFFFF;enable-background:new    ;}
	.st11{opacity:0.15;fill:#FFFFFF;enable-background:new    ;}
</style>
<rect class="st0" width="792" height="306"/>
<g class="st1">
	<g>
		<path class="st2" d="M597.3,125.6c-0.9,0-0.9,1.3,0,1.3C598.2,127,598.2,125.6,597.3,125.6L597.3,125.6z"/>
	</g>
	<g>
		<path class="st2" d="M585,97.5c-0.9,0-0.9,1.3,0,1.3S585.9,97.5,585,97.5L585,97.5z"/>
	</g>
	<g>
		<path class="st2" d="M616.1,124c-0.9,0-0.9,1.3,0,1.3S617,124,616.1,124L616.1,124z"/>
	</g>
	<g>
		<path class="st2" d="M604.5,148.7c-0.9,0-0.9,1.3,0,1.3S605.4,148.7,604.5,148.7L604.5,148.7z"/>
	</g>
	<g>
		<path class="st2" d="M630.5,148.7c-0.9,0-0.9,1.3,0,1.3C631.3,150,631.3,148.7,630.5,148.7L630.5,148.7z"/>
	</g>
	<g>
		<path class="st2" d="M579.9,157.5c-0.9,0-0.9,1.3,0,1.3C580.7,158.8,580.7,157.5,579.9,157.5L579.9,157.5z"/>
	</g>
	<g>
		<path class="st2" d="M464.2,221.3c-0.9,0-0.9,1.3,0,1.3C465,222.6,465,221.3,464.2,221.3L464.2,221.3z"/>
	</g>
	<g>
		<path class="st2" d="M517,178.6c-0.9,0-0.9,1.3,0,1.3C517.8,179.9,517.8,178.6,517,178.6L517,178.6z"/>
	</g>
	<g>
		<path class="st2" d="M481.8,112.1c-0.9,0-0.9,1.3,0,1.3C482.6,113.5,482.6,112.1,481.8,112.1L481.8,112.1z"/>
	</g>
	<g>
		<path class="st2" d="M476.9,188.7c-0.9,0-0.9,1.3,0,1.3S477.8,188.7,476.9,188.7L476.9,188.7z"/>
	</g>
	<g>
		<path class="st2" d="M537.6,158.8c-0.9,0-0.9,1.3,0,1.3S538.5,158.8,537.6,158.8L537.6,158.8z"/>
	</g>
	<g>
		<path class="st2" d="M517.8,212.9c-0.9,0-0.9,1.3,0,1.3S518.7,212.9,517.8,212.9L517.8,212.9z"/>
	</g>
	<g>
		<path class="st2" d="M580.3,124c-0.9,0-0.9,1.3,0,1.3S581.2,124,580.3,124L580.3,124z"/>
	</g>
	<g>
		<path class="st2" d="M533.2,114.3c-0.9,0-0.9,1.3,0,1.3C534.1,115.7,534.1,114.3,533.2,114.3L533.2,114.3z"/>
	</g>
	<g>
		<path class="st2" d="M599.7,172.9c-0.9,0-0.9,1.3,0,1.3C600.5,174.2,600.5,172.9,599.7,172.9L599.7,172.9z"/>
	</g>
	<g>
		<path class="st2" d="M659.1,178.1c-0.9,0-0.9,1.3,0,1.3C659.9,179.5,659.9,178.1,659.1,178.1L659.1,178.1z"/>
	</g>
	<g>
		<path class="st2" d="M639.7,199.3c-0.9,0-0.9,1.3,0,1.3C640.6,200.6,640.6,199.3,639.7,199.3L639.7,199.3z"/>
	</g>
	<g>
		<path class="st2" d="M628.3,213.3c-0.9,0-0.9,1.3,0,1.3C629.1,214.7,629.1,213.3,628.3,213.3L628.3,213.3z"/>
	</g>
	<g>
		<path class="st2" d="M628.3,213.3c-0.9,0-0.9,1.3,0,1.3C629.1,214.7,629.1,213.3,628.3,213.3L628.3,213.3z"/>
	</g>
	<g>
		<path class="st2" d="M677.1,222.1c-0.9,0-0.9,1.3,0,1.3C678,223.5,678,222.1,677.1,222.1L677.1,222.1z"/>
	</g>
	<g>
		<path class="st2" d="M692.1,214.7c-0.9,0-0.9,1.3,0,1.3C692.9,216,692.9,214.7,692.1,214.7L692.1,214.7z"/>
	</g>
	<g>
		<path class="st2" d="M711,219.9c-0.9,0-0.9,1.3,0,1.3C711.8,221.3,711.8,219.9,711,219.9L711,219.9z"/>
	</g>
	<g>
		<path class="st2" d="M755.4,230.9c-0.9,0-0.9,1.3,0,1.3C756.3,232.3,756.3,230.9,755.4,230.9L755.4,230.9z"/>
	</g>
	<g>
		<path class="st2" d="M757.2,210.3c-0.9,0-0.9,1.3,0,1.3C758,211.6,758,210.3,757.2,210.3L757.2,210.3z"/>
	</g>
	<g>
		<path class="st2" d="M711.4,184.7c-0.9,0-0.9,1.3,0,1.3C712.3,186.1,712.3,184.7,711.4,184.7L711.4,184.7z"/>
	</g>
	<g>
		<path class="st2" d="M651.6,204.5c-0.9,0-0.9,1.3,0,1.3C652.4,205.9,652.4,204.5,651.6,204.5L651.6,204.5z"/>
	</g>
	<g>
		<path class="st2" d="M593.1,230.1c-0.9,0-0.9,1.3,0,1.3C593.9,231.4,593.9,230.1,593.1,230.1L593.1,230.1z"/>
	</g>
	<g>
		<path class="st2" d="M472.1,251.2c-0.9,0-0.9,1.3,0,1.3C472.9,252.5,472.9,251.2,472.1,251.2L472.1,251.2z"/>
	</g>
	<g>
		<path class="st2" d="M415.8,249.4c-0.9,0-0.9,1.3,0,1.3C416.6,250.7,416.6,249.4,415.8,249.4L415.8,249.4z"/>
	</g>
	<g>
		<path class="st2" d="M423.7,271.9c-0.9,0-0.9,1.3,0,1.3C424.5,273.2,424.5,271.9,423.7,271.9L423.7,271.9z"/>
	</g>
	<g>
		<path class="st2" d="M469.4,287.7c-0.9,0-0.9,1.3,0,1.3S470.3,287.7,469.4,287.7L469.4,287.7z"/>
	</g>
	<g>
		<path class="st2" d="M540.7,262.6c-0.9,0-0.9,1.3,0,1.3C541.6,263.9,541.6,262.6,540.7,262.6L540.7,262.6z"/>
	</g>
	<g>
		<path class="st2" d="M554.4,293.9c-0.9,0-0.9,1.3,0,1.3C555.2,295.2,555.2,293.9,554.4,293.9L554.4,293.9z"/>
	</g>
	<g>
		<path class="st2" d="M608.5,293.4c-0.9,0-0.9,1.3,0,1.3C609.3,294.7,609.3,293.4,608.5,293.4L608.5,293.4z"/>
	</g>
	<g>
		<path class="st2" d="M672.3,286.4c-0.9,0-0.9,1.3,0,1.3C673.1,287.7,673.1,286.4,672.3,286.4L672.3,286.4z"/>
	</g>
	<g>
		<path class="st2" d="M425.4,215.5c-0.9,0-0.9,1.3,0,1.3C426.3,216.9,426.3,215.5,425.4,215.5L425.4,215.5z"/>
	</g>
	<g>
		<path class="st2" d="M485.3,223.5c-0.9,0-0.9,1.3,0,1.3C486.1,224.8,486.1,223.5,485.3,223.5L485.3,223.5z"/>
	</g>
	<g>
		<path class="st2" d="M447.9,274.5c-0.9,0-0.9,1.3,0,1.3C448.7,275.8,448.7,274.5,447.9,274.5L447.9,274.5z"/>
	</g>
	<g>
		<path class="st2" d="M399.9,301.8c-0.9,0-0.9,1.3,0,1.3C400.8,303.1,400.8,301.8,399.9,301.8L399.9,301.8z"/>
	</g>
	<g>
		<path class="st2" d="M376.6,256.5c-0.9,0-0.9,1.3,0,1.3C377.4,257.8,377.4,256.5,376.6,256.5L376.6,256.5z"/>
	</g>
	<g>
		<path class="st2" d="M392.4,206.7c-0.9,0-0.9,1.3,0,1.3S393.3,206.7,392.4,206.7L392.4,206.7z"/>
	</g>
	<g>
		<path class="st2" d="M307.1,119.6c-0.9,0-0.9,1.3,0,1.3C307.9,120.9,307.9,119.6,307.1,119.6L307.1,119.6z"/>
	</g>
	<g>
		<path class="st2" d="M370.9,118.7c-0.9,0-0.9,1.3,0,1.3S371.7,118.7,370.9,118.7L370.9,118.7z"/>
	</g>
	<g>
		<path class="st2" d="M344,154.8c-0.9,0-0.9,1.3,0,1.3S344.9,154.8,344,154.8L344,154.8z"/>
	</g>
	<g>
		<path class="st2" d="M406.5,91.5c-0.6,0-1,0.4-1.1,0.9c-0.1,0.8,1.1,1.2,1.3,0.4c-0.1,0-0.1,0-0.2,0
			C407.4,92.7,407.4,91.4,406.5,91.5L406.5,91.5z"/>
	</g>
	<g>
		<path class="st2" d="M419.7,180.3c-0.9,0-0.9,1.3,0,1.3C420.6,181.7,420.6,180.3,419.7,180.3L419.7,180.3z"/>
	</g>
	<g>
		<path class="st2" d="M447.9,128.9c-0.9,0-0.9,1.3,0,1.3C448.7,130.2,448.7,128.9,447.9,128.9L447.9,128.9z"/>
	</g>
	<g>
		<path class="st2" d="M320.7,98.5c-0.9,0-0.9,1.3,0,1.3S321.6,98.5,320.7,98.5L320.7,98.5z"/>
	</g>
	<g>
		<path class="st2" d="M498.9,82.2c-0.9,0-0.9,1.3,0,1.3S499.8,82.2,498.9,82.2L498.9,82.2z"/>
	</g>
	<g>
		<path class="st2" d="M569.3,86.2c-0.9,0-0.9,1.3,0,1.3S570.2,86.2,569.3,86.2L569.3,86.2z"/>
	</g>
	<g>
		<path class="st2" d="M617.7,80c-0.3,0-0.6,0-0.9,0c-0.9,0-0.9,1.3,0,1.3c0.3,0,0.6,0,0.9,0C618.6,81.3,618.6,80,617.7,80L617.7,80
			z"/>
	</g>
	<g>
		<path class="st2" d="M623.9,104.7c-0.9,0-0.9,1.3,0,1.3C624.7,106,624.7,104.7,623.9,104.7L623.9,104.7z"/>
	</g>
	<g>
		<path class="st2" d="M643.2,123.6c-0.9,0-0.9,1.3,0,1.3C644.1,124.9,644.1,123.6,643.2,123.6L643.2,123.6z"/>
	</g>
	<g>
		<path class="st2" d="M674.9,86.2c-0.9,0-0.9,1.3,0,1.3C675.8,87.5,675.8,86.2,674.9,86.2L674.9,86.2z"/>
	</g>
	<g>
		<path class="st2" d="M650.7,157.9c-0.9,0-0.9,1.3,0,1.3C651.6,159.2,651.6,157.9,650.7,157.9L650.7,157.9z"/>
	</g>
	<g>
		<path class="st2" d="M700,147.3c-0.9,0-0.9,1.3,0,1.3C700.8,148.7,700.8,147.3,700,147.3L700,147.3z"/>
	</g>
	<g>
		<path class="st2" d="M691.2,91.5c-0.9,0-0.9,1.3,0,1.3C692,92.8,692,91.5,691.2,91.5L691.2,91.5z"/>
	</g>
	<g>
		<path class="st2" d="M670.1,135c-0.9,0-0.9,1.3,0,1.3C670.9,136.3,670.9,135,670.1,135L670.1,135z"/>
	</g>
	<g>
		<path class="st2" d="M667.4,157.5c-0.9,0-0.9,1.3,0,1.3C668.3,158.8,668.3,157.5,667.4,157.5L667.4,157.5z"/>
	</g>
	<g>
		<path class="st2" d="M583.8,142.9c-0.9,0-0.9,1.3,0,1.3C584.7,144.3,584.7,142.9,583.8,142.9L583.8,142.9z"/>
	</g>
	<g>
		<path class="st2" d="M565.4,131.5c-0.9,0-0.9,1.3,0,1.3C566.2,132.8,566.2,131.5,565.4,131.5L565.4,131.5z"/>
	</g>
	<g>
		<path class="st2" d="M445.2,166.7c-0.9,0-0.9,1.3,0,1.3S446.1,166.7,445.2,166.7L445.2,166.7z"/>
	</g>
	<g>
		<path class="st2" d="M476.9,138.1c-0.9,0-0.9,1.3,0,1.3C477.8,139.4,477.8,138.1,476.9,138.1L476.9,138.1z"/>
	</g>
	<g>
		<path class="st2" d="M513.9,143.4c-0.9,0-0.9,1.3,0,1.3C514.7,144.7,514.7,143.4,513.9,143.4L513.9,143.4z"/>
	</g>
	<g>
		<path class="st2" d="M504.6,160.1c-0.9,0-0.9,1.3,0,1.3C505.5,161.4,505.5,160.1,504.6,160.1L504.6,160.1z"/>
	</g>
	<g>
		<path class="st2" d="M515.2,190.5c-0.9,0-0.9,1.3,0,1.3C516,191.8,516,190.5,515.2,190.5L515.2,190.5z"/>
	</g>
	<g>
		<path class="st2" d="M454.5,100.3c-0.9,0-0.9,1.3,0,1.3C455.3,101.6,455.3,100.3,454.5,100.3L454.5,100.3z"/>
	</g>
	<g>
		<path class="st2" d="M523.1,91.5c-0.9,0-0.9,1.3,0,1.3S524,91.5,523.1,91.5L523.1,91.5z"/>
	</g>
	<g>
		<path class="st2" d="M432.9,85.3c-0.9,0-0.9,1.3,0,1.3C433.8,86.6,433.8,85.3,432.9,85.3L432.9,85.3z"/>
	</g>
	<g>
		<path class="st2" d="M520.9,240.2c-0.9,0-0.9,1.3,0,1.3C521.8,241.5,521.8,240.2,520.9,240.2L520.9,240.2z"/>
	</g>
	<g>
		<path class="st2" d="M496.3,220.4c-0.9,0-0.9,1.3,0,1.3C497.1,221.7,497.1,220.4,496.3,220.4L496.3,220.4z"/>
	</g>
	<g>
		<path class="st2" d="M506,285.5c-0.9,0-0.9,1.3,0,1.3C506.8,286.8,506.8,285.5,506,285.5L506,285.5z"/>
	</g>
</g>
<g class="st3">
	<g>
		<path class="st2" d="M581.5,137.5c-0.9,0-0.9-1.3,0-1.3S582.4,137.5,581.5,137.5L581.5,137.5z"/>
	</g>
	<g>
		<path class="st2" d="M569.2,165.7c-0.9,0-0.9-1.3,0-1.3C570.1,164.4,570.1,165.7,569.2,165.7L569.2,165.7z"/>
	</g>
	<g>
		<path class="st2" d="M588.7,114.5c-0.9,0-0.9-1.3,0-1.3C589.6,113.2,589.6,114.5,588.7,114.5L588.7,114.5z"/>
	</g>
	<g>
		<path class="st2" d="M614.7,114.5c-0.9,0-0.9-1.3,0-1.3C615.5,113.2,615.5,114.5,614.7,114.5L614.7,114.5z"/>
	</g>
	<g>
		<path class="st2" d="M564.1,105.7c-0.9,0-0.9-1.3,0-1.3C564.9,104.4,564.9,105.7,564.1,105.7L564.1,105.7z"/>
	</g>
	<g>
		<path class="st2" d="M501.2,84.6c-0.9,0-0.9-1.3,0-1.3C502,83.2,502,84.6,501.2,84.6L501.2,84.6z"/>
	</g>
	<g>
		<path class="st2" d="M466,151c-0.9,0-0.9-1.3,0-1.3C466.8,149.7,466.8,151,466,151L466,151z"/>
	</g>
	<g>
		<path class="st2" d="M461.1,74.4c-0.9,0-0.9-1.3,0-1.3S462,74.4,461.1,74.4L461.1,74.4z"/>
	</g>
	<g>
		<path class="st2" d="M521.8,104.4c-0.9,0-0.9-1.3,0-1.3C522.7,103,522.7,104.4,521.8,104.4L521.8,104.4z"/>
	</g>
	<g>
		<path class="st2" d="M502,50.2c-0.9,0-0.9-1.3,0-1.3S502.9,50.2,502,50.2L502,50.2z"/>
	</g>
	<g>
		<path class="st2" d="M564.5,139.1c-0.9,0-0.9-1.3,0-1.3S565.4,139.1,564.5,139.1L564.5,139.1z"/>
	</g>
	<g>
		<path class="st2" d="M517.4,148.8c-0.9,0-0.9-1.3,0-1.3C518.3,147.5,518.3,148.8,517.4,148.8L517.4,148.8z"/>
	</g>
	<g>
		<path class="st2" d="M583.9,90.3c-0.9,0-0.9-1.3,0-1.3C584.7,89,584.7,90.3,583.9,90.3L583.9,90.3z"/>
	</g>
	<g>
		<path class="st2" d="M643.3,85c-0.9,0-0.9-1.3,0-1.3C644.1,83.7,644.1,85,643.3,85L643.3,85z"/>
	</g>
	<g>
		<path class="st2" d="M623.9,63.9c-0.9,0-0.9-1.3,0-1.3C624.8,62.6,624.8,63.9,623.9,63.9L623.9,63.9z"/>
	</g>
	<g>
		<path class="st2" d="M612.5,49.8c-0.9,0-0.9-1.3,0-1.3C613.3,48.5,613.3,49.8,612.5,49.8L612.5,49.8z"/>
	</g>
	<g>
		<path class="st2" d="M612.5,49.8c-0.9,0-0.9-1.3,0-1.3C613.3,48.5,613.3,49.8,612.5,49.8L612.5,49.8z"/>
	</g>
	<g>
		<path class="st2" d="M741.4,52.9c-0.9,0-0.9-1.3,0-1.3C742.2,51.6,742.2,52.9,741.4,52.9L741.4,52.9z"/>
	</g>
	<g>
		<path class="st2" d="M695.6,78.4c-0.9,0-0.9-1.3,0-1.3S696.5,78.4,695.6,78.4L695.6,78.4z"/>
	</g>
	<g>
		<path class="st2" d="M635.8,58.6c-0.9,0-0.9-1.3,0-1.3C636.6,57.3,636.6,58.6,635.8,58.6L635.8,58.6z"/>
	</g>
	<g>
		<path class="st2" d="M409.6,47.6c-0.9,0-0.9-1.3,0-1.3S410.5,47.6,409.6,47.6L409.6,47.6z"/>
	</g>
	<g>
		<path class="st2" d="M376.6,56.4c-0.8,0-0.8-1.3,0-1.3C377.5,55.1,377.5,56.4,376.6,56.4L376.6,56.4z"/>
	</g>
	<g>
		<path class="st2" d="M291.3,143.5c-0.8,0-0.8-1.3,0-1.3C292.1,142.2,292.1,143.5,291.3,143.5L291.3,143.5z"/>
	</g>
	<g>
		<path class="st2" d="M355.1,144.4c-0.8,0-0.8-1.3,0-1.3C355.9,143.1,355.9,144.4,355.1,144.4L355.1,144.4z"/>
	</g>
	<g>
		<path class="st2" d="M328.2,108.3c-0.8,0-0.8-1.3,0-1.3C329.1,107,329.1,108.3,328.2,108.3L328.2,108.3z"/>
	</g>
	<g>
		<path class="st2" d="M390.7,171.7c-0.6,0-1-0.4-1.1-0.9c-0.1-0.8,1.1-1.2,1.3-0.4c-0.1,0-0.1,0-0.2,0
			C391.6,170.4,391.6,171.7,390.7,171.7L390.7,171.7z"/>
	</g>
	<g>
		<path class="st2" d="M403.9,82.8c-0.9,0-0.9-1.3,0-1.3S404.8,82.8,403.9,82.8L403.9,82.8z"/>
	</g>
	<g>
		<path class="st2" d="M432.1,134.3c-0.9,0-0.9-1.3,0-1.3C432.9,133,432.9,134.3,432.1,134.3L432.1,134.3z"/>
	</g>
	<g>
		<path class="st2" d="M349.4,188.4c-0.8,0-0.8-1.3,0-1.3C350.2,187.1,350.2,188.4,349.4,188.4L349.4,188.4z"/>
	</g>
	<g>
		<path class="st2" d="M304.9,164.6c-0.8,0-0.8-1.3,0-1.3C305.8,163.3,305.8,164.6,304.9,164.6L304.9,164.6z"/>
	</g>
	<g>
		<path class="st2" d="M483.1,180.9c-0.9,0-0.9-1.3,0-1.3C484,179.6,484,180.9,483.1,180.9L483.1,180.9z"/>
	</g>
	<g>
		<path class="st2" d="M553.5,177c-0.9,0-0.9-1.3,0-1.3C554.4,175.6,554.4,177,553.5,177L553.5,177z"/>
	</g>
	<g>
		<path class="st2" d="M601.9,183.1c-0.3,0-0.6,0-0.9,0c-0.9,0-0.9-1.3,0-1.3c0.3,0,0.6,0,0.9,0
			C602.8,181.8,602.8,183.1,601.9,183.1L601.9,183.1z"/>
	</g>
	<g>
		<path class="st2" d="M627.4,139.6c-0.9,0-0.9-1.3,0-1.3C628.3,138.2,628.3,139.6,627.4,139.6L627.4,139.6z"/>
	</g>
	<g>
		<path class="st2" d="M659.1,177c-0.9,0-0.9-1.3,0-1.3C660,175.6,660,177,659.1,177L659.1,177z"/>
	</g>
	<g>
		<path class="st2" d="M634.9,105.2c-0.9,0-0.9-1.3,0-1.3C635.8,103.9,635.8,105.2,634.9,105.2L634.9,105.2z"/>
	</g>
	<g>
		<path class="st2" d="M684.2,115.8c-0.9,0-0.9-1.3,0-1.3C685,114.5,685,115.8,684.2,115.8L684.2,115.8z"/>
	</g>
	<g>
		<path class="st2" d="M675.4,171.7c-0.9,0-0.9-1.3,0-1.3C676.2,170.4,676.2,171.7,675.4,171.7L675.4,171.7z"/>
	</g>
	<g>
		<path class="st2" d="M654.3,128.1c-0.9,0-0.9-1.3,0-1.3C655.1,126.8,655.1,128.1,654.3,128.1L654.3,128.1z"/>
	</g>
	<g>
		<path class="st2" d="M651.6,105.7c-0.9,0-0.9-1.3,0-1.3C652.5,104.4,652.5,105.7,651.6,105.7L651.6,105.7z"/>
	</g>
	<g>
		<path class="st2" d="M568,120.2c-0.9,0-0.9-1.3,0-1.3C568.9,118.9,568.9,120.2,568,120.2L568,120.2z"/>
	</g>
	<g>
		<path class="st2" d="M549.6,131.6c-0.9,0-0.9-1.3,0-1.3C550.4,130.3,550.4,131.6,549.6,131.6L549.6,131.6z"/>
	</g>
	<g>
		<path class="st2" d="M429.4,96.4c-0.9,0-0.9-1.3,0-1.3S430.3,96.4,429.4,96.4L429.4,96.4z"/>
	</g>
	<g>
		<path class="st2" d="M461.1,125c-0.9,0-0.9-1.3,0-1.3S462,125,461.1,125L461.1,125z"/>
	</g>
	<g>
		<path class="st2" d="M498.1,119.8c-0.9,0-0.9-1.3,0-1.3C498.9,118.4,498.9,119.8,498.1,119.8L498.1,119.8z"/>
	</g>
	<g>
		<path class="st2" d="M488.8,103c-0.9,0-0.9-1.3,0-1.3C489.7,101.7,489.7,103,488.8,103L488.8,103z"/>
	</g>
	<g>
		<path class="st2" d="M499.4,72.7c-0.9,0-0.9-1.3,0-1.3C500.2,71.4,500.2,72.7,499.4,72.7L499.4,72.7z"/>
	</g>
	<g>
		<path class="st2" d="M438.7,162.9c-0.9,0-0.9-1.3,0-1.3C439.5,161.6,439.5,162.9,438.7,162.9L438.7,162.9z"/>
	</g>
	<g>
		<path class="st2" d="M507.3,171.7c-0.9,0-0.9-1.3,0-1.3C508.2,170.4,508.2,171.7,507.3,171.7L507.3,171.7z"/>
	</g>
	<g>
		<path class="st2" d="M417.1,177.8c-0.9,0-0.9-1.3,0-1.3S418,177.8,417.1,177.8L417.1,177.8z"/>
	</g>
</g>
<g class="st1">
	<g>
		<path class="st2" d="M418.2,79.9c-0.9,0-0.9-1.3,0-1.3C419,78.6,419,79.9,418.2,79.9L418.2,79.9z"/>
	</g>
	<g>
		<path class="st2" d="M405.9,108c-0.9,0-0.9-1.3,0-1.3C406.7,106.7,406.7,108,405.9,108L405.9,108z"/>
	</g>
	<g>
		<path class="st2" d="M437,81.5c-0.9,0-0.9-1.3,0-1.3C437.8,80.2,437.8,81.5,437,81.5L437,81.5z"/>
	</g>
	<g>
		<path class="st2" d="M302.6,93.4c-0.9,0-0.9-1.3,0-1.3S303.5,93.4,302.6,93.4L302.6,93.4z"/>
	</g>
	<g>
		<path class="st2" d="M401.2,81.5c-0.9,0-0.9-1.3,0-1.3C402,80.2,402,81.5,401.2,81.5L401.2,81.5z"/>
	</g>
	<g>
		<path class="st2" d="M354.1,91.2c-0.9,0-0.9-1.3,0-1.3C354.9,89.8,354.9,91.2,354.1,91.2L354.1,91.2z"/>
	</g>
	<g>
		<path class="st2" d="M127.9,85.9c-0.8,0-0.8-1.3,0-1.3C128.8,84.6,128.8,85.9,127.9,85.9L127.9,85.9z"/>
	</g>
	<g>
		<path class="st2" d="M191.7,86.8c-0.8,0-0.8-1.3,0-1.3C192.6,85.4,192.6,86.8,191.7,86.8L191.7,86.8z"/>
	</g>
	<g>
		<path class="st2" d="M227.4,114c-0.6,0-1-0.4-1.1-0.9c-0.1-0.8,1.1-1.2,1.3-0.4c-0.1,0-0.1,0-0.2,0
			C228.2,112.8,228.2,114.1,227.4,114L227.4,114z"/>
	</g>
	<g>
		<path class="st2" d="M268.7,76.6c-0.9,0-0.9-1.3,0-1.3C269.6,75.3,269.6,76.6,268.7,76.6L268.7,76.6z"/>
	</g>
	<g>
		<path class="st2" d="M186,130.8c-0.8,0-0.8-1.3,0-1.3C186.9,129.4,186.9,130.8,186,130.8L186,130.8z"/>
	</g>
	<g>
		<path class="st2" d="M141.6,107c-0.8,0-0.8-1.3,0-1.3C142.4,105.7,142.4,107,141.6,107L141.6,107z"/>
	</g>
	<g>
		<path class="st2" d="M319.8,123.3c-0.9,0-0.9-1.3,0-1.3S320.6,123.3,319.8,123.3L319.8,123.3z"/>
	</g>
	<g>
		<path class="st2" d="M390.2,119.3c-0.9,0-0.9-1.3,0-1.3S391,119.3,390.2,119.3L390.2,119.3z"/>
	</g>
	<g>
		<path class="st2" d="M438.6,125.5c-0.3,0-0.6,0-0.9,0c-0.9,0-0.9-1.3,0-1.3c0.3,0,0.6,0,0.9,0
			C439.4,124.2,439.4,125.5,438.6,125.5L438.6,125.5z"/>
	</g>
	<g>
		<path class="st2" d="M444.7,100.8c-0.9,0-0.9-1.3,0-1.3S445.6,100.8,444.7,100.8L444.7,100.8z"/>
	</g>
	<g>
		<path class="st2" d="M464.1,81.9c-0.9,0-0.9-1.3,0-1.3C464.9,80.6,464.9,81.9,464.1,81.9L464.1,81.9z"/>
	</g>
	<g>
		<path class="st2" d="M495.8,119.3c-0.9,0-0.9-1.3,0-1.3C496.6,118,496.6,119.3,495.8,119.3L495.8,119.3z"/>
	</g>
	<g>
		<path class="st2" d="M512,114c-0.9,0-0.9-1.3,0-1.3C512.9,112.7,512.9,114,512,114L512,114z"/>
	</g>
	<g>
		<path class="st2" d="M386.2,74c-0.9,0-0.9-1.3,0-1.3S387.1,74,386.2,74L386.2,74z"/>
	</g>
	<g>
		<path class="st2" d="M275.3,105.2c-0.9,0-0.9-1.3,0-1.3S276.2,105.2,275.3,105.2L275.3,105.2z"/>
	</g>
	<g>
		<path class="st2" d="M344,114c-0.9,0-0.9-1.3,0-1.3C344.8,112.7,344.8,114,344,114L344,114z"/>
	</g>
	<g>
		<path class="st2" d="M253.8,120.2c-0.9,0-0.9-1.3,0-1.3S254.6,120.2,253.8,120.2L253.8,120.2z"/>
	</g>
</g>
<g class="st1">
	<g>
		<path class="st2" d="M784.7,113.7c-0.9,0-0.9-1.3,0-1.3C785.5,112.4,785.5,113.7,784.7,113.7L784.7,113.7z"/>
	</g>
	<g>
		<path class="st2" d="M772.4,141.9c-0.9,0-0.9-1.3,0-1.3C773.2,140.6,773.2,141.9,772.4,141.9L772.4,141.9z"/>
	</g>
	<g>
		<path class="st2" d="M767.2,81.9c-0.9,0-0.9-1.3,0-1.3C768.1,80.6,768.1,81.9,767.2,81.9L767.2,81.9z"/>
	</g>
	<g>
		<path class="st2" d="M704.3,60.8c-0.9,0-0.9-1.3,0-1.3S705.1,60.8,704.3,60.8L704.3,60.8z"/>
	</g>
	<g>
		<path class="st2" d="M669.1,127.2c-0.9,0-0.9-1.3,0-1.3C669.9,125.9,669.9,127.2,669.1,127.2L669.1,127.2z"/>
	</g>
	<g>
		<path class="st2" d="M725,80.6c-0.9,0-0.9-1.3,0-1.3S725.8,80.6,725,80.6L725,80.6z"/>
	</g>
	<g>
		<path class="st2" d="M767.7,115.4c-0.9,0-0.9-1.3,0-1.3C768.5,114,768.5,115.4,767.7,115.4L767.7,115.4z"/>
	</g>
	<g>
		<path class="st2" d="M720.6,125c-0.9,0-0.9-1.3,0-1.3C721.4,123.7,721.4,125,720.6,125L720.6,125z"/>
	</g>
	<g>
		<path class="st2" d="M787,66.5c-0.9,0-0.9-1.3,0-1.3S787.9,66.5,787,66.5L787,66.5z"/>
	</g>
	<g>
		<path class="st2" d="M494.4,119.8c-0.8,0-0.8-1.3,0-1.3C495.3,118.4,495.3,119.8,494.4,119.8L494.4,119.8z"/>
	</g>
	<g>
		<path class="st2" d="M558.2,120.6c-0.8,0-0.8-1.3,0-1.3C559.1,119.3,559.1,120.6,558.2,120.6L558.2,120.6z"/>
	</g>
	<g>
		<path class="st2" d="M531.4,84.6c-0.8,0-0.8-1.3,0-1.3C532.2,83.2,532.2,84.6,531.4,84.6L531.4,84.6z"/>
	</g>
	<g>
		<path class="st2" d="M593.9,147.9c-0.6,0-1-0.4-1.1-0.9c-0.1-0.8,1.1-1.2,1.3-0.4c-0.1,0-0.1,0-0.2,0
			C594.7,146.6,594.7,148,593.9,147.9L593.9,147.9z"/>
	</g>
	<g>
		<path class="st2" d="M607.1,59c-0.9,0-0.9-1.3,0-1.3S607.9,59,607.1,59L607.1,59z"/>
	</g>
	<g>
		<path class="st2" d="M635.2,110.5c-0.9,0-0.9-1.3,0-1.3C636.1,109.2,636.1,110.5,635.2,110.5L635.2,110.5z"/>
	</g>
	<g>
		<path class="st2" d="M552.5,164.6c-0.8,0-0.8-1.3,0-1.3S553.3,164.6,552.5,164.6L552.5,164.6z"/>
	</g>
	<g>
		<path class="st2" d="M508.1,140.9c-0.8,0-0.8-1.3,0-1.3C508.9,139.6,508.9,140.9,508.1,140.9L508.1,140.9z"/>
	</g>
	<g>
		<path class="st2" d="M686.3,157.2c-0.9,0-0.9-1.3,0-1.3C687.1,155.8,687.1,157.2,686.3,157.2L686.3,157.2z"/>
	</g>
	<g>
		<path class="st2" d="M756.7,153.2c-0.9,0-0.9-1.3,0-1.3C757.5,151.9,757.5,153.2,756.7,153.2L756.7,153.2z"/>
	</g>
	<g>
		<path class="st2" d="M771.2,96.4c-0.9,0-0.9-1.3,0-1.3C772,95.1,772,96.4,771.2,96.4L771.2,96.4z"/>
	</g>
	<g>
		<path class="st2" d="M752.7,107.9c-0.9,0-0.9-1.3,0-1.3C753.5,106.6,753.5,107.9,752.7,107.9L752.7,107.9z"/>
	</g>
	<g>
		<path class="st2" d="M632.6,72.7c-0.9,0-0.9-1.3,0-1.3C633.4,71.4,633.4,72.7,632.6,72.7L632.6,72.7z"/>
	</g>
	<g>
		<path class="st2" d="M664.3,101.3c-0.9,0-0.9-1.3,0-1.3C665.1,100,665.1,101.3,664.3,101.3L664.3,101.3z"/>
	</g>
	<g>
		<path class="st2" d="M701.2,96c-0.9,0-0.9-1.3,0-1.3C702.1,94.7,702.1,96,701.2,96L701.2,96z"/>
	</g>
	<g>
		<path class="st2" d="M692,79.3c-0.9,0-0.9-1.3,0-1.3S692.8,79.3,692,79.3L692,79.3z"/>
	</g>
	<g>
		<path class="st2" d="M641.8,139.1c-0.9,0-0.9-1.3,0-1.3S642.7,139.1,641.8,139.1L641.8,139.1z"/>
	</g>
	<g>
		<path class="st2" d="M710.5,147.9c-0.9,0-0.9-1.3,0-1.3C711.3,146.6,711.3,147.9,710.5,147.9L710.5,147.9z"/>
	</g>
</g>
<g class="st1">
	<g>
		<path class="st2" d="M266.1,272.2c-0.9,0-0.9-1.3,0-1.3C266.9,270.8,266.9,272.2,266.1,272.2L266.1,272.2z"/>
	</g>
	<g>
		<path class="st2" d="M284.9,273.8c-0.9,0-0.9-1.3,0-1.3C285.7,272.4,285.7,273.8,284.9,273.8L284.9,273.8z"/>
	</g>
	<g>
		<path class="st2" d="M273.3,249.1c-0.9,0-0.9-1.3,0-1.3C274.1,247.8,274.1,249.1,273.3,249.1L273.3,249.1z"/>
	</g>
	<g>
		<path class="st2" d="M299.2,249.1c-0.9,0-0.9-1.3,0-1.3S300.1,249.1,299.2,249.1L299.2,249.1z"/>
	</g>
	<g>
		<path class="st2" d="M248.6,240.3c-0.9,0-0.9-1.3,0-1.3S249.5,240.3,248.6,240.3L248.6,240.3z"/>
	</g>
	<g>
		<path class="st2" d="M132.9,176.5c-0.9,0-0.9-1.3,0-1.3C133.8,175.2,133.8,176.5,132.9,176.5L132.9,176.5z"/>
	</g>
	<g>
		<path class="st2" d="M185.7,219.2c-0.9,0-0.9-1.3,0-1.3C186.6,217.9,186.6,219.2,185.7,219.2L185.7,219.2z"/>
	</g>
	<g>
		<path class="st2" d="M150.5,285.6c-0.9,0-0.9-1.3,0-1.3C151.4,284.3,151.4,285.6,150.5,285.6L150.5,285.6z"/>
	</g>
	<g>
		<path class="st2" d="M145.7,209.1c-0.9,0-0.9-1.3,0-1.3S146.5,209.1,145.7,209.1L145.7,209.1z"/>
	</g>
	<g>
		<path class="st2" d="M206.4,239c-0.9,0-0.9-1.3,0-1.3C207.2,237.7,207.2,239,206.4,239L206.4,239z"/>
	</g>
	<g>
		<path class="st2" d="M186.6,184.9c-0.9,0-0.9-1.3,0-1.3C187.4,183.6,187.4,184.9,186.6,184.9L186.6,184.9z"/>
	</g>
	<g>
		<path class="st2" d="M249.1,273.8c-0.9,0-0.9-1.3,0-1.3C249.9,272.4,249.9,273.8,249.1,273.8L249.1,273.8z"/>
	</g>
	<g>
		<path class="st2" d="M202,283.4c-0.9,0-0.9-1.3,0-1.3C202.8,282.1,202.8,283.4,202,283.4L202,283.4z"/>
	</g>
	<g>
		<path class="st2" d="M268.4,224.9c-0.9,0-0.9-1.3,0-1.3S269.3,224.9,268.4,224.9L268.4,224.9z"/>
	</g>
	<g>
		<path class="st2" d="M327.8,219.6c-0.9,0-0.9-1.3,0-1.3C328.7,218.3,328.7,219.6,327.8,219.6L327.8,219.6z"/>
	</g>
	<g>
		<path class="st2" d="M308.5,198.5c-0.9,0-0.9-1.3,0-1.3S309.3,198.5,308.5,198.5L308.5,198.5z"/>
	</g>
	<g>
		<path class="st2" d="M297,184.4c-0.9,0-0.9-1.3,0-1.3S297.9,184.4,297,184.4L297,184.4z"/>
	</g>
	<g>
		<path class="st2" d="M297,184.4c-0.9,0-0.9-1.3,0-1.3S297.9,184.4,297,184.4L297,184.4z"/>
	</g>
	<g>
		<path class="st2" d="M345.9,175.6c-0.9,0-0.9-1.3,0-1.3S346.7,175.6,345.9,175.6L345.9,175.6z"/>
	</g>
	<g>
		<path class="st2" d="M360.8,183.1c-0.9,0-0.9-1.3,0-1.3C361.7,181.8,361.7,183.1,360.8,183.1L360.8,183.1z"/>
	</g>
	<g>
		<path class="st2" d="M379.8,177.8c-0.9,0-0.9-1.3,0-1.3S380.6,177.8,379.8,177.8L379.8,177.8z"/>
	</g>
	<g>
		<path class="st2" d="M424.2,166.8c-0.9,0-0.9-1.3,0-1.3C425,165.5,425,166.8,424.2,166.8L424.2,166.8z"/>
	</g>
	<g>
		<path class="st2" d="M426,187.5c-0.9,0-0.9-1.3,0-1.3C426.8,186.2,426.8,187.5,426,187.5L426,187.5z"/>
	</g>
	<g>
		<path class="st2" d="M380.2,213c-0.9,0-0.9-1.3,0-1.3C381,211.7,381,213,380.2,213L380.2,213z"/>
	</g>
	<g>
		<path class="st2" d="M320.4,193.2c-0.9,0-0.9-1.3,0-1.3C321.2,191.9,321.2,193.2,320.4,193.2L320.4,193.2z"/>
	</g>
	<g>
		<path class="st2" d="M261.8,167.7c-0.9,0-0.9-1.3,0-1.3C262.7,166.4,262.7,167.7,261.8,167.7L261.8,167.7z"/>
	</g>
	<g>
		<path class="st2" d="M140.8,146.6c-0.9,0-0.9-1.3,0-1.3S141.7,146.6,140.8,146.6L140.8,146.6z"/>
	</g>
	<g>
		<path class="st2" d="M84.5,148.4c-0.9,0-0.9-1.3,0-1.3C85.4,147,85.4,148.4,84.5,148.4L84.5,148.4z"/>
	</g>
	<g>
		<path class="st2" d="M92.4,125.9c-0.9,0-0.9-1.3,0-1.3S93.3,125.9,92.4,125.9L92.4,125.9z"/>
	</g>
	<g>
		<path class="st2" d="M138.2,110.1c-0.9,0-0.9-1.3,0-1.3C139,108.8,139,110.1,138.2,110.1L138.2,110.1z"/>
	</g>
	<g>
		<path class="st2" d="M209.5,135.2c-0.9,0-0.9-1.3,0-1.3C210.3,133.8,210.3,135.2,209.5,135.2L209.5,135.2z"/>
	</g>
	<g>
		<path class="st2" d="M223.1,103.9c-0.9,0-0.9-1.3,0-1.3S224,103.9,223.1,103.9L223.1,103.9z"/>
	</g>
	<g>
		<path class="st2" d="M277.2,104.4c-0.9,0-0.9-1.3,0-1.3C278.1,103,278.1,104.4,277.2,104.4L277.2,104.4z"/>
	</g>
	<g>
		<path class="st2" d="M341,111.4c-0.9,0-0.9-1.3,0-1.3S341.9,111.4,341,111.4L341,111.4z"/>
	</g>
	<g>
		<path class="st2" d="M94.2,182.2c-0.9,0-0.9-1.3,0-1.3C95,180.9,95,182.2,94.2,182.2L94.2,182.2z"/>
	</g>
	<g>
		<path class="st2" d="M154,174.3c-0.9,0-0.9-1.3,0-1.3S154.9,174.3,154,174.3L154,174.3z"/>
	</g>
	<g>
		<path class="st2" d="M116.6,123.3c-0.9,0-0.9-1.3,0-1.3S117.5,123.3,116.6,123.3L116.6,123.3z"/>
	</g>
	<g>
		<path class="st2" d="M68.7,96c-0.9,0-0.9-1.3,0-1.3C69.5,94.7,69.5,96,68.7,96L68.7,96z"/>
	</g>
	<g>
		<path class="st2" d="M45.4,141.3c-0.9,0-0.9-1.3,0-1.3S46.2,141.3,45.4,141.3L45.4,141.3z"/>
	</g>
	<g>
		<path class="st2" d="M61.2,191c-0.9,0-0.9-1.3,0-1.3S62,191,61.2,191L61.2,191z"/>
	</g>
	<g>
		<path class="st2" d="M39.6,279c-0.9,0-0.9-1.3,0-1.3S40.5,279,39.6,279L39.6,279z"/>
	</g>
	<g>
		<path class="st2" d="M12.8,243c-0.9,0-0.9-1.3,0-1.3C13.6,241.6,13.6,243,12.8,243L12.8,243z"/>
	</g>
	<g>
		<path class="st2" d="M88.5,217.4c-0.9,0-0.9-1.3,0-1.3C89.3,216.1,89.3,217.4,88.5,217.4L88.5,217.4z"/>
	</g>
	<g>
		<path class="st2" d="M116.6,268.9c-0.9,0-0.9-1.3,0-1.3S117.5,268.9,116.6,268.9L116.6,268.9z"/>
	</g>
	<g>
		<path class="st2" d="M292.6,293.1c-0.9,0-0.9-1.3,0-1.3C293.5,291.8,293.5,293.1,292.6,293.1L292.6,293.1z"/>
	</g>
	<g>
		<path class="st2" d="M312,274.2c-0.9,0-0.9-1.3,0-1.3S312.8,274.2,312,274.2L312,274.2z"/>
	</g>
	<g>
		<path class="st2" d="M319.5,239.9c-0.9,0-0.9-1.3,0-1.3S320.3,239.9,319.5,239.9L319.5,239.9z"/>
	</g>
	<g>
		<path class="st2" d="M368.8,250.4c-0.9,0-0.9-1.3,0-1.3S369.6,250.4,368.8,250.4L368.8,250.4z"/>
	</g>
	<g>
		<path class="st2" d="M338.8,262.8c-0.9,0-0.9-1.3,0-1.3C339.7,261.4,339.7,262.8,338.8,262.8L338.8,262.8z"/>
	</g>
	<g>
		<path class="st2" d="M336.2,240.3c-0.9,0-0.9-1.3,0-1.3C337,239,337,240.3,336.2,240.3L336.2,240.3z"/>
	</g>
	<g>
		<path class="st2" d="M252.6,254.8c-0.9,0-0.9-1.3,0-1.3S253.4,254.8,252.6,254.8L252.6,254.8z"/>
	</g>
	<g>
		<path class="st2" d="M234.1,266.3c-0.9,0-0.9-1.3,0-1.3S235,266.3,234.1,266.3L234.1,266.3z"/>
	</g>
	<g>
		<path class="st2" d="M114,231.1c-0.9,0-0.9-1.3,0-1.3C114.8,229.8,114.8,231.1,114,231.1L114,231.1z"/>
	</g>
	<g>
		<path class="st2" d="M145.7,259.7c-0.9,0-0.9-1.3,0-1.3S146.5,259.7,145.7,259.7L145.7,259.7z"/>
	</g>
	<g>
		<path class="st2" d="M182.6,254.4c-0.9,0-0.9-1.3,0-1.3C183.5,253.1,183.5,254.4,182.6,254.4L182.6,254.4z"/>
	</g>
	<g>
		<path class="st2" d="M173.4,237.7c-0.9,0-0.9-1.3,0-1.3S174.2,237.7,173.4,237.7L173.4,237.7z"/>
	</g>
	<g>
		<path class="st2" d="M184,207.3c-0.9,0-0.9-1.3,0-1.3S184.8,207.3,184,207.3L184,207.3z"/>
	</g>
	<g>
		<path class="st2" d="M189.7,157.6c-0.9,0-0.9-1.3,0-1.3C190.5,156.3,190.5,157.6,189.7,157.6L189.7,157.6z"/>
	</g>
	<g>
		<path class="st2" d="M165,177.4c-0.9,0-0.9-1.3,0-1.3S165.9,177.4,165,177.4L165,177.4z"/>
	</g>
	<g>
		<path class="st2" d="M174.7,112.3c-0.9,0-0.9-1.3,0-1.3C175.6,111,175.6,112.3,174.7,112.3L174.7,112.3z"/>
	</g>
</g>
<g class="st3">
	<g>
		<path class="st2" d="M750.5,237c-0.9,0-0.9-1.3,0-1.3C751.4,235.6,751.4,237,750.5,237L750.5,237z"/>
	</g>
	<g>
		<path class="st2" d="M738.2,265.1c-0.9,0-0.9-1.3,0-1.3C739.1,263.8,739.1,265.1,738.2,265.1L738.2,265.1z"/>
	</g>
	<g>
		<path class="st2" d="M769.3,238.6c-0.9,0-0.9-1.3,0-1.3C770.2,237.2,770.2,238.6,769.3,238.6L769.3,238.6z"/>
	</g>
	<g>
		<path class="st2" d="M757.7,213.9c-0.9,0-0.9-1.3,0-1.3C758.6,212.6,758.6,213.9,757.7,213.9L757.7,213.9z"/>
	</g>
	<g>
		<path class="st2" d="M783.7,213.9c-0.9,0-0.9-1.3,0-1.3C784.5,212.6,784.5,213.9,783.7,213.9L783.7,213.9z"/>
	</g>
	<g>
		<path class="st2" d="M733.1,205.1c-0.9,0-0.9-1.3,0-1.3C733.9,203.8,733.9,205.1,733.1,205.1L733.1,205.1z"/>
	</g>
	<g>
		<path class="st2" d="M670.2,184c-0.9,0-0.9-1.3,0-1.3C671,182.7,671,184,670.2,184L670.2,184z"/>
	</g>
	<g>
		<path class="st2" d="M635,250.4c-0.9,0-0.9-1.3,0-1.3C635.8,249.1,635.8,250.4,635,250.4L635,250.4z"/>
	</g>
	<g>
		<path class="st2" d="M630.1,173.9c-0.9,0-0.9-1.3,0-1.3C631,172.6,631,173.9,630.1,173.9L630.1,173.9z"/>
	</g>
	<g>
		<path class="st2" d="M690.8,203.8c-0.9,0-0.9-1.3,0-1.3S691.7,203.8,690.8,203.8L690.8,203.8z"/>
	</g>
	<g>
		<path class="st2" d="M671,149.7c-0.9,0-0.9-1.3,0-1.3S671.9,149.7,671,149.7L671,149.7z"/>
	</g>
	<g>
		<path class="st2" d="M733.5,238.6c-0.9,0-0.9-1.3,0-1.3C734.4,237.2,734.4,238.6,733.5,238.6L733.5,238.6z"/>
	</g>
	<g>
		<path class="st2" d="M686.4,248.2c-0.9,0-0.9-1.3,0-1.3C687.3,246.9,687.3,248.2,686.4,248.2L686.4,248.2z"/>
	</g>
	<g>
		<path class="st2" d="M752.9,189.7c-0.9,0-0.9-1.3,0-1.3C753.7,188.4,753.7,189.7,752.9,189.7L752.9,189.7z"/>
	</g>
	<g>
		<path class="st2" d="M781.5,149.2c-0.9,0-0.9-1.3,0-1.3C782.3,147.9,782.3,149.2,781.5,149.2L781.5,149.2z"/>
	</g>
	<g>
		<path class="st2" d="M781.5,149.2c-0.9,0-0.9-1.3,0-1.3C782.3,147.9,782.3,149.2,781.5,149.2L781.5,149.2z"/>
	</g>
	<g>
		<path class="st2" d="M746.3,132.5c-0.9,0-0.9-1.3,0-1.3C747.1,131.2,747.1,132.5,746.3,132.5L746.3,132.5z"/>
	</g>
	<g>
		<path class="st2" d="M625.3,111.4c-0.9,0-0.9-1.3,0-1.3C626.1,110.1,626.1,111.4,625.3,111.4L625.3,111.4z"/>
	</g>
	<g>
		<path class="st2" d="M569,113.2c-0.9,0-0.9-1.3,0-1.3C569.8,111.8,569.8,113.2,569,113.2L569,113.2z"/>
	</g>
	<g>
		<path class="st2" d="M576.9,90.7c-0.9,0-0.9-1.3,0-1.3C577.7,89.4,577.7,90.7,576.9,90.7L576.9,90.7z"/>
	</g>
	<g>
		<path class="st2" d="M622.6,74.9c-0.9,0-0.9-1.3,0-1.3S623.5,74.9,622.6,74.9L622.6,74.9z"/>
	</g>
	<g>
		<path class="st2" d="M693.9,100c-0.9,0-0.9-1.3,0-1.3C694.8,98.6,694.8,100,693.9,100L693.9,100z"/>
	</g>
	<g>
		<path class="st2" d="M707.6,68.7c-0.9,0-0.9-1.3,0-1.3C708.4,67.4,708.4,68.7,707.6,68.7L707.6,68.7z"/>
	</g>
	<g>
		<path class="st2" d="M761.7,69.2c-0.9,0-0.9-1.3,0-1.3C762.5,67.8,762.5,69.2,761.7,69.2L761.7,69.2z"/>
	</g>
	<g>
		<path class="st2" d="M578.6,147c-0.9,0-0.9-1.3,0-1.3S579.5,147,578.6,147L578.6,147z"/>
	</g>
	<g>
		<path class="st2" d="M638.5,139.1c-0.9,0-0.9-1.3,0-1.3C639.3,137.8,639.3,139.1,638.5,139.1L638.5,139.1z"/>
	</g>
	<g>
		<path class="st2" d="M601.1,88.1c-0.9,0-0.9-1.3,0-1.3C601.9,86.8,601.9,88.1,601.1,88.1L601.1,88.1z"/>
	</g>
	<g>
		<path class="st2" d="M553.1,60.8c-0.9,0-0.9-1.3,0-1.3S554,60.8,553.1,60.8L553.1,60.8z"/>
	</g>
	<g>
		<path class="st2" d="M529.8,106.1c-0.9,0-0.9-1.3,0-1.3S530.7,106.1,529.8,106.1L529.8,106.1z"/>
	</g>
	<g>
		<path class="st2" d="M545.6,155.8c-0.9,0-0.9-1.3,0-1.3S546.5,155.8,545.6,155.8L545.6,155.8z"/>
	</g>
	<g>
		<path class="st2" d="M460.3,243c-0.9,0-0.9-1.3,0-1.3C461.1,241.6,461.1,243,460.3,243L460.3,243z"/>
	</g>
	<g>
		<path class="st2" d="M524.1,243.8c-0.9,0-0.9-1.3,0-1.3C524.9,242.5,524.9,243.8,524.1,243.8L524.1,243.8z"/>
	</g>
	<g>
		<path class="st2" d="M497.2,207.8c-0.9,0-0.9-1.3,0-1.3C498.1,206.4,498.1,207.8,497.2,207.8L497.2,207.8z"/>
	</g>
	<g>
		<path class="st2" d="M559.7,271.1c-0.6,0-1-0.4-1.1-0.9c-0.1-0.8,1.1-1.2,1.3-0.4c-0.1,0-0.1,0-0.2,0
			C560.6,269.9,560.6,271.2,559.7,271.1L559.7,271.1z"/>
	</g>
	<g>
		<path class="st2" d="M572.9,182.2c-0.9,0-0.9-1.3,0-1.3C573.8,180.9,573.8,182.2,572.9,182.2L572.9,182.2z"/>
	</g>
	<g>
		<path class="st2" d="M601.1,233.7c-0.9,0-0.9-1.3,0-1.3C601.9,232.4,601.9,233.7,601.1,233.7L601.1,233.7z"/>
	</g>
	<g>
		<path class="st2" d="M518.4,287.8c-0.9,0-0.9-1.3,0-1.3S519.2,287.8,518.4,287.8L518.4,287.8z"/>
	</g>
	<g>
		<path class="st2" d="M473.9,264.1c-0.9,0-0.9-1.3,0-1.3C474.8,262.8,474.8,264.1,473.9,264.1L473.9,264.1z"/>
	</g>
	<g>
		<path class="st2" d="M652.1,280.4c-0.9,0-0.9-1.3,0-1.3C653,279,653,280.4,652.1,280.4L652.1,280.4z"/>
	</g>
	<g>
		<path class="st2" d="M722.5,276.4c-0.9,0-0.9-1.3,0-1.3S723.4,276.4,722.5,276.4L722.5,276.4z"/>
	</g>
	<g>
		<path class="st2" d="M770.9,282.6c-0.3,0-0.6,0-0.9,0c-0.9,0-0.9-1.3,0-1.3c0.3,0,0.6,0,0.9,0
			C771.8,281.2,771.8,282.6,770.9,282.6L770.9,282.6z"/>
	</g>
	<g>
		<path class="st2" d="M777.1,257.9c-0.9,0-0.9-1.3,0-1.3C777.9,256.6,777.9,257.9,777.1,257.9L777.1,257.9z"/>
	</g>
	<g>
		<path class="st2" d="M737,219.6c-0.9,0-0.9-1.3,0-1.3S737.9,219.6,737,219.6L737,219.6z"/>
	</g>
	<g>
		<path class="st2" d="M718.6,231.1c-0.9,0-0.9-1.3,0-1.3C719.4,229.8,719.4,231.1,718.6,231.1L718.6,231.1z"/>
	</g>
	<g>
		<path class="st2" d="M598.4,195.9c-0.9,0-0.9-1.3,0-1.3C599.3,194.6,599.3,195.9,598.4,195.9L598.4,195.9z"/>
	</g>
	<g>
		<path class="st2" d="M630.1,224.5c-0.9,0-0.9-1.3,0-1.3S631,224.5,630.1,224.5L630.1,224.5z"/>
	</g>
	<g>
		<path class="st2" d="M667.1,219.2c-0.9,0-0.9-1.3,0-1.3C667.9,217.9,667.9,219.2,667.1,219.2L667.1,219.2z"/>
	</g>
	<g>
		<path class="st2" d="M657.8,202.5c-0.9,0-0.9-1.3,0-1.3S658.7,202.5,657.8,202.5L657.8,202.5z"/>
	</g>
	<g>
		<path class="st2" d="M668.4,172.1c-0.9,0-0.9-1.3,0-1.3C669.3,170.8,669.3,172.1,668.4,172.1L668.4,172.1z"/>
	</g>
	<g>
		<path class="st2" d="M607.7,262.3c-0.9,0-0.9-1.3,0-1.3C608.5,261,608.5,262.3,607.7,262.3L607.7,262.3z"/>
	</g>
	<g>
		<path class="st2" d="M676.3,271.1c-0.9,0-0.9-1.3,0-1.3C677.2,269.8,677.2,271.1,676.3,271.1L676.3,271.1z"/>
	</g>
	<g>
		<path class="st2" d="M586.1,277.3c-0.9,0-0.9-1.3,0-1.3S587,277.3,586.1,277.3L586.1,277.3z"/>
	</g>
	<g>
		<path class="st2" d="M674.1,122.4c-0.9,0-0.9-1.3,0-1.3S675,122.4,674.1,122.4L674.1,122.4z"/>
	</g>
	<g>
		<path class="st2" d="M649.5,142.2c-0.9,0-0.9-1.3,0-1.3C650.3,140.9,650.3,142.2,649.5,142.2L649.5,142.2z"/>
	</g>
	<g>
		<path class="st2" d="M659.2,77.1c-0.9,0-0.9-1.3,0-1.3C660,75.8,660,77.1,659.2,77.1L659.2,77.1z"/>
	</g>
</g>
<g class="st4">
	<g>
		<path class="st2" d="M365.3,230.6c-0.9,0-0.9-1.3,0-1.3C366.2,229.3,366.2,230.6,365.3,230.6L365.3,230.6z"/>
	</g>
	<g>
		<path class="st2" d="M353,258.8c-0.9,0-0.9-1.3,0-1.3C353.8,257.5,353.8,258.8,353,258.8L353,258.8z"/>
	</g>
	<g>
		<path class="st2" d="M384.1,232.2c-0.9,0-0.9-1.3,0-1.3C384.9,230.9,384.9,232.2,384.1,232.2L384.1,232.2z"/>
	</g>
	<g>
		<path class="st2" d="M372.5,207.6c-0.9,0-0.9-1.3,0-1.3S373.3,207.6,372.5,207.6L372.5,207.6z"/>
	</g>
	<g>
		<path class="st2" d="M398.5,207.6c-0.9,0-0.9-1.3,0-1.3C399.3,206.3,399.3,207.6,398.5,207.6L398.5,207.6z"/>
	</g>
	<g>
		<path class="st2" d="M347.9,198.8c-0.9,0-0.9-1.3,0-1.3C348.7,197.5,348.7,198.8,347.9,198.8L347.9,198.8z"/>
	</g>
	<g>
		<path class="st2" d="M232.1,135c-0.9,0-0.9-1.3,0-1.3S233,135,232.1,135L232.1,135z"/>
	</g>
	<g>
		<path class="st2" d="M284.9,177.7c-0.9,0-0.9-1.3,0-1.3S285.8,177.7,284.9,177.7L284.9,177.7z"/>
	</g>
	<g>
		<path class="st2" d="M249.7,244.1c-0.9,0-0.9-1.3,0-1.3C250.6,242.8,250.6,244.1,249.7,244.1L249.7,244.1z"/>
	</g>
	<g>
		<path class="st2" d="M244.9,167.5c-0.9,0-0.9-1.3,0-1.3C245.7,166.2,245.7,167.5,244.9,167.5L244.9,167.5z"/>
	</g>
	<g>
		<path class="st2" d="M305.6,197.5c-0.9,0-0.9-1.3,0-1.3C306.5,196.1,306.5,197.5,305.6,197.5L305.6,197.5z"/>
	</g>
	<g>
		<path class="st2" d="M285.8,143.3c-0.9,0-0.9-1.3,0-1.3S286.7,143.3,285.8,143.3L285.8,143.3z"/>
	</g>
	<g>
		<path class="st2" d="M348.3,232.2c-0.9,0-0.9-1.3,0-1.3C349.1,230.9,349.1,232.2,348.3,232.2L348.3,232.2z"/>
	</g>
	<g>
		<path class="st2" d="M301.2,241.9c-0.9,0-0.9-1.3,0-1.3S302.1,241.9,301.2,241.9L301.2,241.9z"/>
	</g>
	<g>
		<path class="st2" d="M367.7,183.4c-0.9,0-0.9-1.3,0-1.3S368.5,183.4,367.7,183.4L367.7,183.4z"/>
	</g>
	<g>
		<path class="st2" d="M427.1,178.1c-0.9,0-0.9-1.3,0-1.3C427.9,176.8,427.9,178.1,427.1,178.1L427.1,178.1z"/>
	</g>
	<g>
		<path class="st2" d="M407.7,157c-0.9,0-0.9-1.3,0-1.3C408.5,155.7,408.5,157,407.7,157L407.7,157z"/>
	</g>
	<g>
		<path class="st2" d="M396.3,142.9c-0.9,0-0.9-1.3,0-1.3C397.1,141.6,397.1,142.9,396.3,142.9L396.3,142.9z"/>
	</g>
	<g>
		<path class="st2" d="M396.3,142.9c-0.9,0-0.9-1.3,0-1.3C397.1,141.6,397.1,142.9,396.3,142.9L396.3,142.9z"/>
	</g>
	<g>
		<path class="st2" d="M445.1,134.1c-0.9,0-0.9-1.3,0-1.3C445.9,132.8,445.9,134.1,445.1,134.1L445.1,134.1z"/>
	</g>
	<g>
		<path class="st2" d="M460.1,141.6c-0.9,0-0.9-1.3,0-1.3C460.9,140.3,460.9,141.6,460.1,141.6L460.1,141.6z"/>
	</g>
	<g>
		<path class="st2" d="M479,136.3c-0.9,0-0.9-1.3,0-1.3C479.8,135,479.8,136.3,479,136.3L479,136.3z"/>
	</g>
	<g>
		<path class="st2" d="M523.4,125.3c-0.9,0-0.9-1.3,0-1.3C524.3,124,524.3,125.3,523.4,125.3L523.4,125.3z"/>
	</g>
	<g>
		<path class="st2" d="M525.2,146c-0.9,0-0.9-1.3,0-1.3C526,144.7,526,146,525.2,146L525.2,146z"/>
	</g>
	<g>
		<path class="st2" d="M479.4,171.5c-0.9,0-0.9-1.3,0-1.3S480.3,171.5,479.4,171.5L479.4,171.5z"/>
	</g>
	<g>
		<path class="st2" d="M419.6,151.7c-0.9,0-0.9-1.3,0-1.3C420.4,150.4,420.4,151.7,419.6,151.7L419.6,151.7z"/>
	</g>
	<g>
		<path class="st2" d="M361.1,126.2c-0.9,0-0.9-1.3,0-1.3C361.9,124.9,361.9,126.2,361.1,126.2L361.1,126.2z"/>
	</g>
	<g>
		<path class="st2" d="M240.1,105.1c-0.9,0-0.9-1.3,0-1.3C240.9,103.7,240.9,105.1,240.1,105.1L240.1,105.1z"/>
	</g>
	<g>
		<path class="st2" d="M183.7,106.8c-0.9,0-0.9-1.3,0-1.3C184.6,105.5,184.6,106.8,183.7,106.8L183.7,106.8z"/>
	</g>
	<g>
		<path class="st2" d="M191.7,84.4c-0.9,0-0.9-1.3,0-1.3C192.5,83.1,192.5,84.4,191.7,84.4L191.7,84.4z"/>
	</g>
	<g>
		<path class="st2" d="M237.4,68.5c-0.9,0-0.9-1.3,0-1.3C238.3,67.2,238.3,68.5,237.4,68.5L237.4,68.5z"/>
	</g>
	<g>
		<path class="st2" d="M308.7,93.6c-0.9,0-0.9-1.3,0-1.3C309.5,92.3,309.5,93.6,308.7,93.6L308.7,93.6z"/>
	</g>
	<g>
		<path class="st2" d="M322.3,62.4c-0.9,0-0.9-1.3,0-1.3C323.2,61.1,323.2,62.4,322.3,62.4L322.3,62.4z"/>
	</g>
	<g>
		<path class="st2" d="M376.5,62.8c-0.9,0-0.9-1.3,0-1.3C377.3,61.5,377.3,62.8,376.5,62.8L376.5,62.8z"/>
	</g>
	<g>
		<path class="st2" d="M440.3,69.9c-0.9,0-0.9-1.3,0-1.3C441.1,68.5,441.1,69.9,440.3,69.9L440.3,69.9z"/>
	</g>
	<g>
		<path class="st2" d="M193.4,140.7c-0.9,0-0.9-1.3,0-1.3C194.3,139.4,194.3,140.7,193.4,140.7L193.4,140.7z"/>
	</g>
	<g>
		<path class="st2" d="M253.3,132.8c-0.9,0-0.9-1.3,0-1.3C254.1,131.5,254.1,132.8,253.3,132.8L253.3,132.8z"/>
	</g>
	<g>
		<path class="st2" d="M215.9,81.7c-0.9,0-0.9-1.3,0-1.3C216.7,80.4,216.7,81.7,215.9,81.7L215.9,81.7z"/>
	</g>
	<g>
		<path class="st2" d="M167.9,54.5c-0.9,0-0.9-1.3,0-1.3S168.7,54.5,167.9,54.5L167.9,54.5z"/>
	</g>
	<g>
		<path class="st2" d="M144.6,99.8c-0.9,0-0.9-1.3,0-1.3C145.4,98.5,145.4,99.8,144.6,99.8L144.6,99.8z"/>
	</g>
	<g>
		<path class="st2" d="M160.4,149.5c-0.9,0-0.9-1.3,0-1.3S161.3,149.5,160.4,149.5L160.4,149.5z"/>
	</g>
	<g>
		<path class="st2" d="M75.1,236.6c-0.9,0-0.9-1.3,0-1.3C75.9,235.3,75.9,236.6,75.1,236.6L75.1,236.6z"/>
	</g>
	<g>
		<path class="st2" d="M138.9,237.5c-0.9,0-0.9-1.3,0-1.3S139.7,237.5,138.9,237.5L138.9,237.5z"/>
	</g>
	<g>
		<path class="st2" d="M112,201.4c-0.9,0-0.9-1.3,0-1.3S112.9,201.4,112,201.4L112,201.4z"/>
	</g>
	<g>
		<path class="st2" d="M174.5,264.8c-0.6,0-1-0.4-1.1-0.9c-0.1-0.8,1.1-1.2,1.3-0.4c-0.1,0-0.1,0-0.2,0
			C175.3,263.5,175.3,264.8,174.5,264.8L174.5,264.8z"/>
	</g>
	<g>
		<path class="st2" d="M187.7,175.9c-0.9,0-0.9-1.3,0-1.3C188.5,174.6,188.5,175.9,187.7,175.9L187.7,175.9z"/>
	</g>
	<g>
		<path class="st2" d="M215.9,227.4c-0.9,0-0.9-1.3,0-1.3C216.7,226.1,216.7,227.4,215.9,227.4L215.9,227.4z"/>
	</g>
	<g>
		<path class="st2" d="M133.1,281.5c-0.9,0-0.9-1.3,0-1.3S134,281.5,133.1,281.5L133.1,281.5z"/>
	</g>
	<g>
		<path class="st2" d="M88.7,257.7c-0.9,0-0.9-1.3,0-1.3S89.5,257.7,88.7,257.7L88.7,257.7z"/>
	</g>
	<g>
		<path class="st2" d="M266.9,274c-0.9,0-0.9-1.3,0-1.3C267.7,272.7,267.7,274,266.9,274L266.9,274z"/>
	</g>
	<g>
		<path class="st2" d="M337.3,270.1c-0.9,0-0.9-1.3,0-1.3C338.1,268.7,338.1,270.1,337.3,270.1L337.3,270.1z"/>
	</g>
	<g>
		<path class="st2" d="M385.7,276.2c-0.3,0-0.6,0-0.9,0c-0.9,0-0.9-1.3,0-1.3c0.3,0,0.6,0,0.9,0
			C386.5,274.9,386.5,276.2,385.7,276.2L385.7,276.2z"/>
	</g>
	<g>
		<path class="st2" d="M391.9,251.6c-0.9,0-0.9-1.3,0-1.3C392.7,250.3,392.7,251.6,391.9,251.6L391.9,251.6z"/>
	</g>
	<g>
		<path class="st2" d="M411.2,232.7c-0.9,0-0.9-1.3,0-1.3C412.1,231.3,412.1,232.7,411.2,232.7L411.2,232.7z"/>
	</g>
	<g>
		<path class="st2" d="M442.9,270.1c-0.9,0-0.9-1.3,0-1.3C443.7,268.7,443.7,270.1,442.9,270.1L442.9,270.1z"/>
	</g>
	<g>
		<path class="st2" d="M418.7,198.3c-0.9,0-0.9-1.3,0-1.3C419.5,197,419.5,198.3,418.7,198.3L418.7,198.3z"/>
	</g>
	<g>
		<path class="st2" d="M468,208.9c-0.9,0-0.9-1.3,0-1.3C468.8,207.6,468.8,208.9,468,208.9L468,208.9z"/>
	</g>
	<g>
		<path class="st2" d="M459.2,264.8c-0.9,0-0.9-1.3,0-1.3C460,263.5,460,264.8,459.2,264.8L459.2,264.8z"/>
	</g>
	<g>
		<path class="st2" d="M438.1,221.2c-0.9,0-0.9-1.3,0-1.3C438.9,219.9,438.9,221.2,438.1,221.2L438.1,221.2z"/>
	</g>
	<g>
		<path class="st2" d="M435.4,198.8c-0.9,0-0.9-1.3,0-1.3S436.3,198.8,435.4,198.8L435.4,198.8z"/>
	</g>
	<g>
		<path class="st2" d="M351.8,213.3c-0.9,0-0.9-1.3,0-1.3S352.7,213.3,351.8,213.3L351.8,213.3z"/>
	</g>
	<g>
		<path class="st2" d="M333.3,224.7c-0.9,0-0.9-1.3,0-1.3C334.2,223.4,334.2,224.7,333.3,224.7L333.3,224.7z"/>
	</g>
	<g>
		<path class="st2" d="M213.2,189.5c-0.9,0-0.9-1.3,0-1.3C214.1,188.2,214.1,189.5,213.2,189.5L213.2,189.5z"/>
	</g>
	<g>
		<path class="st2" d="M244.9,218.1c-0.9,0-0.9-1.3,0-1.3C245.7,216.8,245.7,218.1,244.9,218.1L244.9,218.1z"/>
	</g>
	<g>
		<path class="st2" d="M281.9,212.9c-0.9,0-0.9-1.3,0-1.3C282.7,211.5,282.7,212.9,281.9,212.9L281.9,212.9z"/>
	</g>
	<g>
		<path class="st2" d="M272.6,196.1c-0.9,0-0.9-1.3,0-1.3S273.5,196.1,272.6,196.1L272.6,196.1z"/>
	</g>
	<g>
		<path class="st2" d="M283.2,165.8c-0.9,0-0.9-1.3,0-1.3C284,164.5,284,165.8,283.2,165.8L283.2,165.8z"/>
	</g>
	<g>
		<path class="st2" d="M222.5,256c-0.9,0-0.9-1.3,0-1.3C223.3,254.7,223.3,256,222.5,256L222.5,256z"/>
	</g>
	<g>
		<path class="st2" d="M291.1,264.8c-0.9,0-0.9-1.3,0-1.3S291.9,264.8,291.1,264.8L291.1,264.8z"/>
	</g>
	<g>
		<path class="st2" d="M200.9,270.9c-0.9,0-0.9-1.3,0-1.3C201.7,269.6,201.7,270.9,200.9,270.9L200.9,270.9z"/>
	</g>
	<g>
		<path class="st2" d="M288.9,116.1c-0.9,0-0.9-1.3,0-1.3C289.7,114.7,289.7,116.1,288.9,116.1L288.9,116.1z"/>
	</g>
	<g>
		<path class="st2" d="M264.3,135.9c-0.9,0-0.9-1.3,0-1.3S265.1,135.9,264.3,135.9L264.3,135.9z"/>
	</g>
	<g>
		<path class="st2" d="M273.9,70.7c-0.9,0-0.9-1.3,0-1.3S274.8,70.7,273.9,70.7L273.9,70.7z"/>
	</g>
</g>
<g class="st5">
	<g>
		<path class="st2" d="M229.8,189c-1.7,0-1.7,2.6,0,2.6C231.5,191.7,231.5,189,229.8,189L229.8,189z"/>
	</g>
	<g>
		<path class="st2" d="M217.5,160.9c-1.7,0-1.7,2.6,0,2.6S219.2,160.9,217.5,160.9L217.5,160.9z"/>
	</g>
	<g>
		<path class="st2" d="M248.6,187.4c-1.7,0-1.7,2.6,0,2.6C250.3,190.1,250.3,187.4,248.6,187.4L248.6,187.4z"/>
	</g>
	<g>
		<path class="st2" d="M237,212.1c-1.7,0-1.7,2.6,0,2.6S238.7,212.1,237,212.1L237,212.1z"/>
	</g>
	<g>
		<path class="st2" d="M263,212.1c-1.7,0-1.7,2.6,0,2.6S264.7,212.1,263,212.1L263,212.1z"/>
	</g>
	<g>
		<path class="st2" d="M212.4,220.9c-1.7,0-1.7,2.6,0,2.6S214.1,220.9,212.4,220.9L212.4,220.9z"/>
	</g>
	<g>
		<path class="st2" d="M96.7,284.7c-1.7,0-1.7,2.6,0,2.6S98.4,284.7,96.7,284.7L96.7,284.7z"/>
	</g>
	<g>
		<path class="st2" d="M149.5,242c-1.7,0-1.7,2.6,0,2.6S151.2,242,149.5,242L149.5,242z"/>
	</g>
	<g>
		<path class="st2" d="M114.3,175.5c-1.7,0-1.7,2.6,0,2.6S116,175.5,114.3,175.5L114.3,175.5z"/>
	</g>
	<g>
		<path class="st2" d="M109.4,252.1c-1.7,0-1.7,2.6,0,2.6S111.1,252.1,109.4,252.1L109.4,252.1z"/>
	</g>
	<g>
		<path class="st2" d="M170.1,222.2c-1.7,0-1.7,2.6,0,2.6S171.8,222.2,170.1,222.2L170.1,222.2z"/>
	</g>
	<g>
		<path class="st2" d="M150.3,276.3c-1.7,0-1.7,2.6,0,2.6S152,276.3,150.3,276.3L150.3,276.3z"/>
	</g>
	<g>
		<path class="st2" d="M212.8,187.4c-1.7,0-1.7,2.6,0,2.6S214.5,187.4,212.8,187.4L212.8,187.4z"/>
	</g>
	<g>
		<path class="st2" d="M165.7,177.7c-1.7,0-1.7,2.6,0,2.6S167.4,177.7,165.7,177.7L165.7,177.7z"/>
	</g>
	<g>
		<path class="st2" d="M232.2,236.3c-1.7,0-1.7,2.6,0,2.6S233.9,236.3,232.2,236.3L232.2,236.3z"/>
	</g>
	<g>
		<path class="st2" d="M291.6,241.5c-1.7,0-1.7,2.6,0,2.6S293.3,241.5,291.6,241.5L291.6,241.5z"/>
	</g>
	<g>
		<path class="st2" d="M272.2,262.7c-1.7,0-1.7,2.6,0,2.6S273.9,262.7,272.2,262.7L272.2,262.7z"/>
	</g>
	<g>
		<path class="st2" d="M260.8,276.7c-1.7,0-1.7,2.6,0,2.6S262.5,276.7,260.8,276.7L260.8,276.7z"/>
	</g>
	<g>
		<path class="st2" d="M260.8,276.7c-1.7,0-1.7,2.6,0,2.6S262.5,276.7,260.8,276.7L260.8,276.7z"/>
	</g>
	<g>
		<path class="st2" d="M309.6,285.5c-1.7,0-1.7,2.6,0,2.6S311.3,285.5,309.6,285.5L309.6,285.5z"/>
	</g>
	<g>
		<path class="st2" d="M324.6,278.1c-1.7,0-1.7,2.6,0,2.6S326.3,278.1,324.6,278.1L324.6,278.1z"/>
	</g>
	<g>
		<path class="st2" d="M343.5,283.3c-1.7,0-1.7,2.6,0,2.6S345.2,283.3,343.5,283.3L343.5,283.3z"/>
	</g>
	<g>
		<path class="st2" d="M387.9,294.3c-1.7,0-1.7,2.6,0,2.6S389.6,294.3,387.9,294.3L387.9,294.3z"/>
	</g>
	<g>
		<path class="st2" d="M389.7,273.7c-1.7,0-1.7,2.6,0,2.6S391.4,273.7,389.7,273.7L389.7,273.7z"/>
	</g>
	<g>
		<path class="st2" d="M343.9,248.1c-1.7,0-1.7,2.6,0,2.6S345.6,248.1,343.9,248.1L343.9,248.1z"/>
	</g>
	<g>
		<path class="st2" d="M284.1,267.9c-1.7,0-1.7,2.6,0,2.6S285.8,267.9,284.1,267.9L284.1,267.9z"/>
	</g>
	<g>
		<path class="st2" d="M225.6,293.5c-1.7,0-1.7,2.6,0,2.6S227.3,293.5,225.6,293.5L225.6,293.5z"/>
	</g>
	<g>
		<path class="st2" d="M57.9,278.9c-1.7,0-1.7,2.6,0,2.6C59.6,281.6,59.6,278.9,57.9,278.9L57.9,278.9z"/>
	</g>
	<g>
		<path class="st2" d="M117.8,286.9c-1.7,0-1.7,2.6,0,2.6S119.5,286.9,117.8,286.9L117.8,286.9z"/>
	</g>
	<g>
		<path class="st2" d="M24.9,270.1c-1.7,0-1.7,2.6,0,2.6S26.6,270.1,24.9,270.1L24.9,270.1z"/>
	</g>
	<g>
		<path class="st2" d="M39,154.9c-0.8,0.1-1.6,0.6-1.7,1.4c-0.3,1.7,2.3,2.4,2.5,0.7c-0.2,0.4-0.5,0.5-0.8,0.5
			C40.7,157.4,40.7,154.8,39,154.9L39,154.9z"/>
	</g>
	<g>
		<path class="st2" d="M52.2,243.7c-1.7,0-1.7,2.6,0,2.6S53.9,243.7,52.2,243.7L52.2,243.7z"/>
	</g>
	<g>
		<path class="st2" d="M80.4,192.3c-1.7,0-1.7,2.6,0,2.6C82.1,194.9,82.1,192.3,80.4,192.3L80.4,192.3z"/>
	</g>
	<g>
		<path class="st2" d="M131.4,145.6c-1.7,0-1.7,2.6,0,2.6S133.1,145.6,131.4,145.6L131.4,145.6z"/>
	</g>
	<g>
		<path class="st2" d="M201.8,149.6c-1.7,0-1.7,2.6,0,2.6S203.5,149.6,201.8,149.6L201.8,149.6z"/>
	</g>
	<g>
		<path class="st2" d="M250.2,143.4c-0.3,0-0.6,0-0.9,0c-1.7,0-1.7,2.6,0,2.6c0.3,0,0.6,0,0.9,0
			C251.9,146.1,251.9,143.4,250.2,143.4L250.2,143.4z"/>
	</g>
	<g>
		<path class="st2" d="M256.4,168.1c-1.7,0-1.7,2.6,0,2.6C258.1,170.7,258.1,168.1,256.4,168.1L256.4,168.1z"/>
	</g>
	<g>
		<path class="st2" d="M275.7,187c-1.7,0-1.7,2.6,0,2.6S277.4,187,275.7,187L275.7,187z"/>
	</g>
	<g>
		<path class="st2" d="M307.4,149.6c-1.7,0-1.7,2.6,0,2.6S309.1,149.6,307.4,149.6L307.4,149.6z"/>
	</g>
	<g>
		<path class="st2" d="M283.2,221.3c-1.7,0-1.7,2.6,0,2.6S284.9,221.3,283.2,221.3L283.2,221.3z"/>
	</g>
	<g>
		<path class="st2" d="M332.5,210.7c-1.7,0-1.7,2.6,0,2.6S334.2,210.7,332.5,210.7L332.5,210.7z"/>
	</g>
	<g>
		<path class="st2" d="M323.7,154.9c-1.7,0-1.7,2.6,0,2.6S325.4,154.9,323.7,154.9L323.7,154.9z"/>
	</g>
	<g>
		<path class="st2" d="M302.6,198.4c-1.7,0-1.7,2.6,0,2.6S304.3,198.4,302.6,198.4L302.6,198.4z"/>
	</g>
	<g>
		<path class="st2" d="M299.9,220.9c-1.7,0-1.7,2.6,0,2.6S301.6,220.9,299.9,220.9L299.9,220.9z"/>
	</g>
	<g>
		<path class="st2" d="M216.3,206.3c-1.7,0-1.7,2.6,0,2.6S218,206.3,216.3,206.3L216.3,206.3z"/>
	</g>
	<g>
		<path class="st2" d="M197.9,194.9c-1.7,0-1.7,2.6,0,2.6S199.6,194.9,197.9,194.9L197.9,194.9z"/>
	</g>
	<g>
		<path class="st2" d="M77.7,230.1c-1.7,0-1.7,2.6,0,2.6C79.4,232.7,79.4,230.1,77.7,230.1L77.7,230.1z"/>
	</g>
	<g>
		<path class="st2" d="M109.4,201.5c-1.7,0-1.7,2.6,0,2.6S111.1,201.5,109.4,201.5L109.4,201.5z"/>
	</g>
	<g>
		<path class="st2" d="M146.4,206.8c-1.7,0-1.7,2.6,0,2.6S148.1,206.8,146.4,206.8L146.4,206.8z"/>
	</g>
	<g>
		<path class="st2" d="M137.1,223.5c-1.7,0-1.7,2.6,0,2.6S138.8,223.5,137.1,223.5L137.1,223.5z"/>
	</g>
	<g>
		<path class="st2" d="M147.7,253.9c-1.7,0-1.7,2.6,0,2.6S149.4,253.9,147.7,253.9L147.7,253.9z"/>
	</g>
	<g>
		<path class="st2" d="M87,163.7c-1.7,0-1.7,2.6,0,2.6S88.7,163.7,87,163.7L87,163.7z"/>
	</g>
	<g>
		<path class="st2" d="M155.6,154.9c-1.7,0-1.7,2.6,0,2.6S157.3,154.9,155.6,154.9L155.6,154.9z"/>
	</g>
	<g>
		<path class="st2" d="M65.4,148.7c-1.7,0-1.7,2.6,0,2.6C67.1,151.3,67.1,148.7,65.4,148.7L65.4,148.7z"/>
	</g>
	<g>
		<path class="st2" d="M153.4,303.6c-1.7,0-1.7,2.6,0,2.6S155.1,303.6,153.4,303.6L153.4,303.6z"/>
	</g>
	<g>
		<path class="st2" d="M128.8,283.8c-1.7,0-1.7,2.6,0,2.6S130.5,283.8,128.8,283.8L128.8,283.8z"/>
	</g>
</g>
<g class="st6">
	<g>
		<path class="st2" d="M541.6,260.9c-1.7,0-1.7-2.6,0-2.6S543.3,260.9,541.6,260.9L541.6,260.9z"/>
	</g>
	<g>
		<path class="st2" d="M529.3,289.1c-1.7,0-1.7-2.6,0-2.6S531,289.1,529.3,289.1L529.3,289.1z"/>
	</g>
	<g>
		<path class="st2" d="M560.4,262.5c-1.7,0-1.7-2.6,0-2.6C562.1,259.9,562.1,262.5,560.4,262.5L560.4,262.5z"/>
	</g>
	<g>
		<path class="st2" d="M548.8,237.9c-1.7,0-1.7-2.6,0-2.6C550.5,235.3,550.5,237.9,548.8,237.9L548.8,237.9z"/>
	</g>
	<g>
		<path class="st2" d="M574.8,237.9c-1.7,0-1.7-2.6,0-2.6C576.5,235.3,576.5,237.9,574.8,237.9L574.8,237.9z"/>
	</g>
	<g>
		<path class="st2" d="M524.2,229.1c-1.7,0-1.7-2.6,0-2.6S525.9,229.1,524.2,229.1L524.2,229.1z"/>
	</g>
	<g>
		<path class="st2" d="M408.4,165.3c-1.7,0-1.7-2.6,0-2.6S410.1,165.3,408.4,165.3L408.4,165.3z"/>
	</g>
	<g>
		<path class="st2" d="M461.2,208c-1.7,0-1.7-2.6,0-2.6C462.9,205.3,462.9,208,461.2,208L461.2,208z"/>
	</g>
	<g>
		<path class="st2" d="M426,274.4c-1.7,0-1.7-2.6,0-2.6S427.7,274.4,426,274.4L426,274.4z"/>
	</g>
	<g>
		<path class="st2" d="M421.2,197.9c-1.7,0-1.7-2.6,0-2.6C422.9,195.2,422.9,197.9,421.2,197.9L421.2,197.9z"/>
	</g>
	<g>
		<path class="st2" d="M481.9,227.8c-1.7,0-1.7-2.6,0-2.6C483.6,225.1,483.6,227.8,481.9,227.8L481.9,227.8z"/>
	</g>
	<g>
		<path class="st2" d="M462.1,173.7c-1.7,0-1.7-2.6,0-2.6C463.8,171,463.8,173.7,462.1,173.7L462.1,173.7z"/>
	</g>
	<g>
		<path class="st2" d="M524.6,262.5c-1.7,0-1.7-2.6,0-2.6S526.3,262.5,524.6,262.5L524.6,262.5z"/>
	</g>
	<g>
		<path class="st2" d="M477.5,272.2c-1.7,0-1.7-2.6,0-2.6S479.2,272.2,477.5,272.2L477.5,272.2z"/>
	</g>
	<g>
		<path class="st2" d="M544,213.7c-1.7,0-1.7-2.6,0-2.6C545.7,211.1,545.7,213.7,544,213.7L544,213.7z"/>
	</g>
	<g>
		<path class="st2" d="M603.4,208.4c-1.7,0-1.7-2.6,0-2.6C605.1,205.8,605.1,208.4,603.4,208.4L603.4,208.4z"/>
	</g>
	<g>
		<path class="st2" d="M584,187.3c-1.7,0-1.7-2.6,0-2.6S585.7,187.3,584,187.3L584,187.3z"/>
	</g>
	<g>
		<path class="st2" d="M572.6,173.2c-1.7,0-1.7-2.6,0-2.6C574.3,170.6,574.3,173.2,572.6,173.2L572.6,173.2z"/>
	</g>
	<g>
		<path class="st2" d="M572.6,173.2c-1.7,0-1.7-2.6,0-2.6C574.3,170.6,574.3,173.2,572.6,173.2L572.6,173.2z"/>
	</g>
	<g>
		<path class="st2" d="M636.4,171.9c-1.7,0-1.7-2.6,0-2.6C638.1,169.3,638.1,171.9,636.4,171.9L636.4,171.9z"/>
	</g>
	<g>
		<path class="st2" d="M655.3,166.6c-1.7,0-1.7-2.6,0-2.6S657,166.6,655.3,166.6L655.3,166.6z"/>
	</g>
	<g>
		<path class="st2" d="M699.7,155.6c-1.7,0-1.7-2.6,0-2.6S701.4,155.6,699.7,155.6L699.7,155.6z"/>
	</g>
	<g>
		<path class="st2" d="M701.5,176.3c-1.7,0-1.7-2.6,0-2.6S703.2,176.3,701.5,176.3L701.5,176.3z"/>
	</g>
	<g>
		<path class="st2" d="M655.7,201.8c-1.7,0-1.7-2.6,0-2.6S657.4,201.8,655.7,201.8L655.7,201.8z"/>
	</g>
	<g>
		<path class="st2" d="M595.9,182c-1.7,0-1.7-2.6,0-2.6C597.6,179.4,597.6,182,595.9,182L595.9,182z"/>
	</g>
	<g>
		<path class="st2" d="M537.4,156.5c-1.7,0-1.7-2.6,0-2.6C539.1,153.9,539.1,156.5,537.4,156.5L537.4,156.5z"/>
	</g>
	<g>
		<path class="st2" d="M416.4,135.4c-1.7,0-1.7-2.6,0-2.6C418.1,132.7,418.1,135.4,416.4,135.4L416.4,135.4z"/>
	</g>
	<g>
		<path class="st2" d="M360,137.1c-1.7,0-1.7-2.6,0-2.6S361.7,137.1,360,137.1L360,137.1z"/>
	</g>
	<g>
		<path class="st2" d="M368,114.7c-1.7,0-1.7-2.6,0-2.6S369.7,114.7,368,114.7L368,114.7z"/>
	</g>
	<g>
		<path class="st2" d="M413.7,98.9c-1.7,0-1.7-2.6,0-2.6C415.4,96.2,415.4,98.9,413.7,98.9L413.7,98.9z"/>
	</g>
	<g>
		<path class="st2" d="M485,123.9c-1.7,0-1.7-2.6,0-2.6S486.7,123.9,485,123.9L485,123.9z"/>
	</g>
	<g>
		<path class="st2" d="M498.6,92.7c-1.7,0-1.7-2.6,0-2.6C500.3,90.1,500.3,92.7,498.6,92.7L498.6,92.7z"/>
	</g>
	<g>
		<path class="st2" d="M552.8,93.1c-1.7,0-1.7-2.6,0-2.6S554.5,93.1,552.8,93.1L552.8,93.1z"/>
	</g>
	<g>
		<path class="st2" d="M616.6,100.2c-1.7,0-1.7-2.6,0-2.6C618.3,97.5,618.3,100.2,616.6,100.2L616.6,100.2z"/>
	</g>
	<g>
		<path class="st2" d="M369.7,171c-1.7,0-1.7-2.6,0-2.6C371.4,168.4,371.4,171,369.7,171L369.7,171z"/>
	</g>
	<g>
		<path class="st2" d="M429.6,163.1c-1.7,0-1.7-2.6,0-2.6C431.3,160.5,431.3,163.1,429.6,163.1L429.6,163.1z"/>
	</g>
	<g>
		<path class="st2" d="M392.2,112.1c-1.7,0-1.7-2.6,0-2.6C393.9,109.4,393.9,112.1,392.2,112.1L392.2,112.1z"/>
	</g>
	<g>
		<path class="st2" d="M343.5,57.4c-1.7,0-1.7-2.6,0-2.6C345.2,54.8,345.2,57.4,343.5,57.4L343.5,57.4z"/>
	</g>
	<g>
		<path class="st2" d="M334.8,52.2c-1.7,0-1.7-2.6,0-2.6S336.5,52.2,334.8,52.2L334.8,52.2z"/>
	</g>
	<g class="st7">
		<path class="st2" d="M321.5,76.6c-1.7,0-1.7-2.6,0-2.6S323.2,76.6,321.5,76.6L321.5,76.6z"/>
	</g>
	<g>
		<path class="st2" d="M288.4,56.1c-1.7,0-1.7-2.6,0-2.6S290.1,56.1,288.4,56.1L288.4,56.1z"/>
	</g>
	<g class="st7">
		<path class="st2" d="M279.8,50.8c-1.7,0-1.7-2.6,0-2.6S281.5,50.8,279.8,50.8L279.8,50.8z"/>
	</g>
	<g>
		<path class="st2" d="M251.7,76.6c-1.7,0-1.7-2.6,0-2.6S253.4,76.6,251.7,76.6L251.7,76.6z"/>
	</g>
	<g>
		<path class="st2" d="M344.2,84.8c-1.7,0-1.7-2.6,0-2.6C345.9,82.1,345.9,84.8,344.2,84.8L344.2,84.8z"/>
	</g>
	<g>
		<path class="st2" d="M320.9,130.1c-1.7,0-1.7-2.6,0-2.6C322.6,127.5,322.6,130.1,320.9,130.1L320.9,130.1z"/>
	</g>
	<g>
		<path class="st2" d="M336.7,179.8c-1.7,0-1.7-2.6,0-2.6C338.4,177.2,338.4,179.8,336.7,179.8L336.7,179.8z"/>
	</g>
	<g>
		<path class="st2" d="M251.4,266.9c-1.7,0-1.7-2.6,0-2.6C253.1,264.3,253.1,266.9,251.4,266.9L251.4,266.9z"/>
	</g>
	<g>
		<path class="st2" d="M315.2,267.8c-1.7,0-1.7-2.6,0-2.6C316.9,265.2,316.9,267.8,315.2,267.8L315.2,267.8z"/>
	</g>
	<g>
		<path class="st2" d="M288.3,231.7c-1.7,0-1.7-2.6,0-2.6C290,229.1,290,231.7,288.3,231.7L288.3,231.7z"/>
	</g>
	<g>
		<path class="st2" d="M350.8,295.1c-0.8-0.1-1.6-0.6-1.7-1.4c-0.3-1.7,2.3-2.4,2.5-0.7c-0.2-0.4-0.5-0.5-0.8-0.5
			C352.5,292.6,352.5,295.2,350.8,295.1L350.8,295.1z"/>
	</g>
	<g>
		<path class="st2" d="M364,206.2c-1.7,0-1.7-2.6,0-2.6C365.7,203.6,365.7,206.2,364,206.2L364,206.2z"/>
	</g>
	<g>
		<path class="st2" d="M392.2,257.7c-1.7,0-1.7-2.6,0-2.6C393.9,255.1,393.9,257.7,392.2,257.7L392.2,257.7z"/>
	</g>
	<g>
		<path class="st2" d="M265,288.1c-1.7,0-1.7-2.6,0-2.6C266.7,285.4,266.7,288.1,265,288.1L265,288.1z"/>
	</g>
	<g>
		<path class="st2" d="M513.6,300.4c-1.7,0-1.7-2.6,0-2.6C515.3,297.7,515.3,300.4,513.6,300.4L513.6,300.4z"/>
	</g>
	<g>
		<path class="st2" d="M568.2,281.9c-1.7,0-1.7-2.6,0-2.6S569.9,281.9,568.2,281.9L568.2,281.9z"/>
	</g>
	<g>
		<path class="st2" d="M587.5,263c-1.7,0-1.7-2.6,0-2.6C589.2,260.3,589.2,263,587.5,263L587.5,263z"/>
	</g>
	<g>
		<path class="st2" d="M619.2,300.4c-1.7,0-1.7-2.6,0-2.6C620.9,297.7,620.9,300.4,619.2,300.4L619.2,300.4z"/>
	</g>
	<g>
		<path class="st2" d="M595,228.7c-1.7,0-1.7-2.6,0-2.6C596.7,226,596.7,228.7,595,228.7L595,228.7z"/>
	</g>
	<g>
		<path class="st2" d="M644.3,239.2c-1.7,0-1.7-2.6,0-2.6C646,236.6,646,239.2,644.3,239.2L644.3,239.2z"/>
	</g>
	<g>
		<path class="st2" d="M635.5,295.1c-1.7,0-1.7-2.6,0-2.6S637.2,295.1,635.5,295.1L635.5,295.1z"/>
	</g>
	<g>
		<path class="st2" d="M614.4,251.5c-1.7,0-1.7-2.6,0-2.6C616.1,248.9,616.1,251.5,614.4,251.5L614.4,251.5z"/>
	</g>
	<g>
		<path class="st2" d="M611.7,229.1c-1.7,0-1.7-2.6,0-2.6S613.4,229.1,611.7,229.1L611.7,229.1z"/>
	</g>
	<g>
		<path class="st2" d="M528.1,243.6c-1.7,0-1.7-2.6,0-2.6S529.8,243.6,528.1,243.6L528.1,243.6z"/>
	</g>
	<g>
		<path class="st2" d="M509.6,255.1c-1.7,0-1.7-2.6,0-2.6C511.3,252.4,511.3,255.1,509.6,255.1L509.6,255.1z"/>
	</g>
	<g>
		<path class="st2" d="M389.5,219.9c-1.7,0-1.7-2.6,0-2.6C391.2,217.2,391.2,219.9,389.5,219.9L389.5,219.9z"/>
	</g>
	<g>
		<path class="st2" d="M421.2,248.5c-1.7,0-1.7-2.6,0-2.6C422.9,245.8,422.9,248.5,421.2,248.5L421.2,248.5z"/>
	</g>
	<g>
		<path class="st2" d="M458.2,243.2c-1.7,0-1.7-2.6,0-2.6C459.9,240.5,459.9,243.2,458.2,243.2L458.2,243.2z"/>
	</g>
	<g>
		<path class="st2" d="M448.9,226.5c-1.7,0-1.7-2.6,0-2.6C450.6,223.8,450.6,226.5,448.9,226.5L448.9,226.5z"/>
	</g>
	<g>
		<path class="st2" d="M459.5,196.1c-1.7,0-1.7-2.6,0-2.6S461.2,196.1,459.5,196.1L459.5,196.1z"/>
	</g>
	<g>
		<path class="st2" d="M398.8,286.3c-1.7,0-1.7-2.6,0-2.6S400.5,286.3,398.8,286.3L398.8,286.3z"/>
	</g>
	<g>
		<path class="st2" d="M467.4,295.1c-1.7,0-1.7-2.6,0-2.6S469.1,295.1,467.4,295.1L467.4,295.1z"/>
	</g>
	<g>
		<path class="st2" d="M465.2,146.4c-1.7,0-1.7-2.6,0-2.6C466.9,143.7,466.9,146.4,465.2,146.4L465.2,146.4z"/>
	</g>
	<g>
		<path class="st2" d="M440.6,166.2c-1.7,0-1.7-2.6,0-2.6C442.3,163.5,442.3,166.2,440.6,166.2L440.6,166.2z"/>
	</g>
	<g>
		<path class="st2" d="M450.2,101.1c-1.7,0-1.7-2.6,0-2.6C451.9,98.4,451.9,101.1,450.2,101.1L450.2,101.1z"/>
	</g>
</g>
<rect y="294.3" class="st8" width="792" height="11.7"/>
<rect y="282.6" class="st9" width="792" height="11.7"/>
<rect y="270.9" class="st10" width="792" height="11.7"/>
<rect y="259.2" class="st11" width="792" height="11.7"/>
</svg>
