<?xml version="1.0" encoding="utf-8"?>
<!-- Generator: Adobe Illustrator 22.0.1, SVG Export Plug-In . SVG Version: 6.00 Build 0)  -->
<svg version="1.1" id="Layer_1" xmlns="http://www.w3.org/2000/svg" xmlns:xlink="http://www.w3.org/1999/xlink" x="0px" y="0px"
	 viewBox="0 0 792 244.2" style="enable-background:new 0 0 792 244.2;" xml:space="preserve">
<style type="text/css">
	.st0{fill:url(#SVGID_1_);}
	.st1{fill:url(#SVGID_2_);}
	.st2{fill:url(#SVGID_3_);}
	.st3{fill:url(#SVGID_4_);}
	.st4{opacity:0.32;fill:#FFFFFF;}
	.st5{fill:#FFFFFF;}
	.st6{opacity:0.42;fill:#FFFFFF;}
	.st7{fill:url(#SVGID_5_);}
	.st8{opacity:0.92;fill:url(#SVGID_6_);}
	.st9{opacity:0.92;fill:url(#SVGID_7_);}
	.st10{opacity:0.92;fill:url(#SVGID_8_);}
	.st11{opacity:0.92;fill:url(#SVGID_9_);}
	.st12{opacity:0.92;fill:url(#SVGID_10_);}
	.st13{opacity:0.92;fill:url(#SVGID_11_);}
	.st14{opacity:0.92;fill:url(#SVGID_12_);}
	.st15{opacity:0.92;fill:url(#SVGID_13_);}
	.st16{opacity:0.92;fill:url(#SVGID_14_);}
	.st17{fill:url(#SVGID_15_);}
	.st18{fill:url(#SVGID_16_);}
	.st19{opacity:0.34;fill:url(#SVGID_17_);}
	.st20{fill:#CCE2F0;}
	.st21{fill:url(#SVGID_18_);}
	.st22{fill:#74B8CF;}
	.st23{fill:#587185;}
	.st24{fill:url(#SVGID_19_);}
	.st25{opacity:0.18;fill:#587185;}
	.st26{fill:#69A3B3;}
	.st27{fill:#758A96;}
	.st28{fill:#B6E1DB;}
	.st29{opacity:0.76;fill:url(#SVGID_20_);}
	.st30{opacity:0.92;fill:url(#SVGID_21_);}
	.st31{fill:url(#SVGID_22_);}
	.st32{fill:url(#SVGID_23_);}
	.st33{opacity:0.34;fill:url(#SVGID_24_);}
	.st34{fill:url(#SVGID_25_);}
	.st35{fill:url(#SVGID_26_);}
	.st36{opacity:0.76;fill:url(#SVGID_27_);}
	.st37{opacity:0.92;fill:url(#SVGID_28_);}
	.st38{opacity:0.26;fill:url(#SVGID_29_);}
	.st39{opacity:7.000000e-02;fill:url(#SVGID_30_);}
	.st40{fill:url(#SVGID_31_);}
	.st41{fill:url(#SVGID_32_);}
	.st42{fill:url(#SVGID_33_);}
	.st43{opacity:0.34;fill:url(#SVGID_34_);}
	.st44{fill:url(#SVGID_35_);}
	.st45{fill:url(#SVGID_36_);}
	.st46{opacity:0.76;fill:url(#SVGID_37_);}
	.st47{opacity:0.92;fill:url(#SVGID_38_);}
	.st48{fill:#8097A9;}
	.st49{fill:#747E87;}
	.st50{opacity:0.48;}
	.st51{fill:#BA9E7E;}
	.st52{fill:url(#SVGID_39_);}
	.st53{fill:url(#SVGID_40_);}
	.st54{fill:url(#SVGID_41_);}
	.st55{fill:url(#SVGID_42_);}
	.st56{fill:url(#SVGID_43_);}
	.st57{fill:url(#SVGID_44_);}
	.st58{filter:url(#Adobe_OpacityMaskFilter);}
	.st59{filter:url(#Adobe_OpacityMaskFilter_1_);}
	.st60{mask:url(#SVGID_45_);fill:url(#SVGID_46_);}
	.st61{filter:url(#Adobe_OpacityMaskFilter_2_);}
	.st62{filter:url(#Adobe_OpacityMaskFilter_3_);}
	.st63{mask:url(#SVGID_47_);fill:url(#SVGID_48_);}
	.st64{fill:#D1E3E6;}
	.st65{fill:url(#SVGID_49_);}
	.st66{fill:url(#SVGID_50_);}
	.st67{fill:#F5F6F6;}
	.st68{opacity:0.44;fill:url(#SVGID_51_);}
	.st69{fill:#9FB9B9;}
	.st70{fill:none;}
	.st71{opacity:0.92;fill:url(#SVGID_52_);}
	.st72{fill:url(#SVGID_53_);}
</style>
<g>
	<linearGradient id="SVGID_1_" gradientUnits="userSpaceOnUse" x1="0.1079" y1="123.0758" x2="792" y2="123.0758">
		<stop  offset="0" style="stop-color:#6EABD1"/>
		<stop  offset="0.3758" style="stop-color:#BED9E6"/>
		<stop  offset="0.841" style="stop-color:#9DD3D3"/>
		<stop  offset="1" style="stop-color:#90D1CC"/>
	</linearGradient>
	<polygon class="st0" points="792,242.3 792,8.8 734.4,3.9 714.6,12.3 697.9,8.8 628.2,35.9 609,35.9 492.8,51 427.1,35.9 284,58 
		213.6,46.7 203.1,51 131.5,38.2 66.7,46.9 0.1,29.9 0.1,242.3 	"/>
	<linearGradient id="SVGID_2_" gradientUnits="userSpaceOnUse" x1="367.5531" y1="248.5811" x2="361.0672" y2="62.8488">
		<stop  offset="0" style="stop-color:#9ACCD1"/>
		<stop  offset="0.4077" style="stop-color:#BBDCDD"/>
		<stop  offset="0.7712" style="stop-color:#D1E9E7"/>
		<stop  offset="1" style="stop-color:#DAEFEB"/>
	</linearGradient>
	<path class="st1" d="M728.7,75.5l-55.7-4.1l-11,0.6l-61.3-1.2l52.8-0.8l-66.3-4.9l-86.2,8.2l-69.2-2.9l-218.2,2.4l25.8,3.5
		L198,75.4l30.7,3.7l-44.2-4h-0.1L77.2,72.8l4.7,6.8l1.8-0.5l33.8,5.7l-38.9-1.8L20,92.1L0.1,95v147.2H548l143.8-141.4l-21.8-10
		l11.7-2.5l-76.8-1.2l92.2-2.1h0l29.9-6.4l-18.3-1.1L728.7,75.5z M41.5,98.3l77-3h56.1l38.1,5.9L41.5,98.3z M411.2,78.8l-22.4-2.5
		h40.5l52.5,3.7L411.2,78.8z"/>
	<linearGradient id="SVGID_3_" gradientUnits="userSpaceOnUse" x1="542.0358" y1="148.6713" x2="717.6349" y2="-53.3324">
		<stop  offset="0" style="stop-color:#C3DEE8"/>
		<stop  offset="0.3957" style="stop-color:#8397A9"/>
		<stop  offset="0.8045" style="stop-color:#54677E"/>
		<stop  offset="1" style="stop-color:#415870"/>
	</linearGradient>
	<polygon class="st2" points="741.8,72 772.2,58 770.9,54.9 792,45.3 792,11.3 737.2,7.6 720.1,13.4 726.2,13.4 716.9,16 
		699.3,11.1 664.2,25 675.9,23 637.1,41 608.1,38.4 511.6,58.8 502.7,58 450.8,69.4 500.8,70.9 587.9,62.8 676.7,68.5 733.7,54.2 
		759,48.3 690.8,69.4 	"/>
	<linearGradient id="SVGID_4_" gradientUnits="userSpaceOnUse" x1="786.5007" y1="247.7799" x2="660.3845" y2="121.6636">
		<stop  offset="0" style="stop-color:#415870"/>
		<stop  offset="0.1955" style="stop-color:#54677E"/>
		<stop  offset="0.6043" style="stop-color:#8397A9"/>
		<stop  offset="1" style="stop-color:#C3DEE8"/>
	</linearGradient>
	<polygon class="st3" points="792,242.3 792,53 780.4,57.1 779.7,63.1 785.8,63.1 787.3,65.1 756.7,89.8 749.8,90.1 690.5,91.5 
		696.8,98.4 702.4,98.4 703.6,101.5 580.7,242.3 	"/>
	<polygon class="st4" points="0.1,29.9 66.7,46.9 101.3,55.7 33.8,43.9 50.7,51.2 6.9,39.7 4.3,42.8 0.1,40.3 	"/>
	<polygon class="st5" points="213.6,46.7 284,58 229.9,51 255.4,56 216,49.7 214.6,50.6 215.4,51.3 209.7,50.2 203.1,51 	"/>
	<polygon class="st6" points="131.5,38.2 203.1,51 246.9,63.7 199.4,53.3 173.8,47.7 161.6,49.4 143.2,42.8 129.5,39.9 95.3,43 	"/>
	<polygon class="st5" points="298.1,55.8 427.1,35.9 476.1,47.1 444.4,42.7 444.4,42.7 429.9,40.3 407.8,43.7 393.3,44.6 
		342.1,50.9 	"/>
	<polygon class="st5" points="330.2,58 389.5,46.9 403.3,45.8 359.9,55.8 	"/>
	<polygon class="st5" points="492.8,51 609,35.9 516.2,53.8 540.5,47.7 	"/>
	<polygon class="st5" points="628.2,35.9 697.9,8.8 663.1,24.3 658.8,27 663.1,26.8 642.9,34.5 	"/>
	<polygon class="st5" points="714.6,12.3 728.5,8.2 734.4,3.9 	"/>
	<polygon class="st5" points="792,45.3 770.9,54.9 772.2,58 741.8,72 766.9,64.6 763.2,67.8 744.5,77.7 775.6,65.1 778.1,56.6 
		792,51.6 	"/>
	<linearGradient id="SVGID_5_" gradientUnits="userSpaceOnUse" x1="82.6199" y1="57.9814" x2="497.2402" y2="57.9814">
		<stop  offset="0" style="stop-color:#C3DEE8"/>
		<stop  offset="0.1336" style="stop-color:#B6D0DB"/>
		<stop  offset="0.4928" style="stop-color:#9AB4C2"/>
		<stop  offset="0.7944" style="stop-color:#8BA4B4"/>
		<stop  offset="1" style="stop-color:#859EAF"/>
	</linearGradient>
	<polygon class="st7" points="444.4,67.6 497.2,54.6 447.7,45.8 427.3,45.3 360,58 323.7,62.3 309.8,58 276,62.3 227.8,54.9 
		272.4,68.6 249.3,66.1 173.8,50 159.6,53.8 128.6,42.8 82.6,48.5 109,56.4 137.1,71.4 209.1,73.1 188.8,69.4 248.5,70.7 
		290.2,71.3 	"/>
	<linearGradient id="SVGID_6_" gradientUnits="userSpaceOnUse" x1="484.5072" y1="81.1458" x2="532.0515" y2="81.1458">
		<stop  offset="1.212120e-02" style="stop-color:#809BC3"/>
		<stop  offset="0.2462" style="stop-color:#87A4CA"/>
		<stop  offset="0.6725" style="stop-color:#9ABFDB"/>
		<stop  offset="1" style="stop-color:#AED9EC"/>
	</linearGradient>
	<path class="st8" d="M510,81C510,81,510,81,510,81C510,80.9,510,80.9,510,81c0.1,0.1,0.2,0.2,0.3,0.4c0,0-0.1-0.1-0.1-0.2
		C510.1,81.1,510.1,81.1,510,81z"/>
	<linearGradient id="SVGID_7_" gradientUnits="userSpaceOnUse" x1="484.5078" y1="81.578" x2="532.0512" y2="81.578">
		<stop  offset="1.212120e-02" style="stop-color:#809BC3"/>
		<stop  offset="0.2462" style="stop-color:#87A4CA"/>
		<stop  offset="0.6725" style="stop-color:#9ABFDB"/>
		<stop  offset="1" style="stop-color:#AED9EC"/>
	</linearGradient>
	<path class="st9" d="M510.5,81.5C510.5,81.5,510.5,81.5,510.5,81.5c0.1,0.1,0.2,0.1,0.3,0.2c0,0-0.1,0-0.1-0.1
		C510.6,81.6,510.6,81.6,510.5,81.5z"/>
	<linearGradient id="SVGID_8_" gradientUnits="userSpaceOnUse" x1="484.5056" y1="81.9294" x2="532.0532" y2="81.9294">
		<stop  offset="1.212120e-02" style="stop-color:#809BC3"/>
		<stop  offset="0.2462" style="stop-color:#87A4CA"/>
		<stop  offset="0.6725" style="stop-color:#9ABFDB"/>
		<stop  offset="1" style="stop-color:#AED9EC"/>
	</linearGradient>
	<path class="st10" d="M511.2,81.9c0,0-0.1-0.1-0.1-0.1c0.1,0.1,0.2,0.1,0.3,0.1C511.3,82,511.3,82,511.2,81.9z"/>
	<linearGradient id="SVGID_9_" gradientUnits="userSpaceOnUse" x1="484.5161" y1="82.097" x2="532.0511" y2="82.097">
		<stop  offset="1.212120e-02" style="stop-color:#809BC3"/>
		<stop  offset="0.2462" style="stop-color:#87A4CA"/>
		<stop  offset="0.6725" style="stop-color:#9ABFDB"/>
		<stop  offset="1" style="stop-color:#AED9EC"/>
	</linearGradient>
	<path class="st11" d="M520.4,82.1C520.4,82.1,520.4,82.1,520.4,82.1C520.4,82.1,520.4,82.1,520.4,82.1
		C520.4,82.1,520.4,82.1,520.4,82.1C520.4,82.1,520.4,82.1,520.4,82.1z"/>
	<linearGradient id="SVGID_10_" gradientUnits="userSpaceOnUse" x1="484.487" y1="79.3258" x2="532.0576" y2="79.3258">
		<stop  offset="1.212120e-02" style="stop-color:#809BC3"/>
		<stop  offset="0.2462" style="stop-color:#87A4CA"/>
		<stop  offset="0.6725" style="stop-color:#9ABFDB"/>
		<stop  offset="1" style="stop-color:#AED9EC"/>
	</linearGradient>
	<path class="st12" d="M526.3,79.1L526.3,79.1c0,0.2,0.1,0.3,0.1,0.5c0-0.1,0-0.2-0.1-0.2C526.3,79.3,526.3,79.2,526.3,79.1z"/>
	<linearGradient id="SVGID_11_" gradientUnits="userSpaceOnUse" x1="484.4633" y1="80.0193" x2="532.0607" y2="80.0193">
		<stop  offset="1.212120e-02" style="stop-color:#809BC3"/>
		<stop  offset="0.2462" style="stop-color:#87A4CA"/>
		<stop  offset="0.6725" style="stop-color:#9ABFDB"/>
		<stop  offset="1" style="stop-color:#AED9EC"/>
	</linearGradient>
	<path class="st13" d="M526.5,79.8c0,0.2,0.1,0.3,0.2,0.4c0-0.1-0.1-0.1-0.1-0.2C526.5,80,526.5,79.9,526.5,79.8z"/>
	<linearGradient id="SVGID_12_" gradientUnits="userSpaceOnUse" x1="484.5005" y1="80.8742" x2="532.0558" y2="80.8742">
		<stop  offset="1.212120e-02" style="stop-color:#809BC3"/>
		<stop  offset="0.2462" style="stop-color:#87A4CA"/>
		<stop  offset="0.6725" style="stop-color:#9ABFDB"/>
		<stop  offset="1" style="stop-color:#AED9EC"/>
	</linearGradient>
	<path class="st14" d="M527.1,81C527.1,81,527.1,80.9,527.1,81c-0.1-0.2-0.2-0.2-0.2-0.3c0-0.1-0.1-0.2-0.1-0.2c0,0,0,0,0,0
		C526.8,80.6,526.9,80.8,527.1,81c0.1,0.1,0.2,0.2,0.3,0.4c0,0-0.1-0.1-0.1-0.2C527.2,81.1,527.1,81.1,527.1,81z"/>
	<linearGradient id="SVGID_13_" gradientUnits="userSpaceOnUse" x1="484.4915" y1="81.578" x2="532.0567" y2="81.578">
		<stop  offset="1.212120e-02" style="stop-color:#809BC3"/>
		<stop  offset="0.2462" style="stop-color:#87A4CA"/>
		<stop  offset="0.6725" style="stop-color:#9ABFDB"/>
		<stop  offset="1" style="stop-color:#AED9EC"/>
	</linearGradient>
	<path class="st15" d="M527.6,81.5C527.5,81.5,527.5,81.5,527.6,81.5c0.1,0.1,0.2,0.1,0.3,0.2c0,0-0.1,0-0.1-0.1
		C527.7,81.6,527.6,81.6,527.6,81.5z"/>
	<linearGradient id="SVGID_14_" gradientUnits="userSpaceOnUse" x1="484.4863" y1="81.9294" x2="532.0569" y2="81.9294">
		<stop  offset="1.212120e-02" style="stop-color:#809BC3"/>
		<stop  offset="0.2462" style="stop-color:#87A4CA"/>
		<stop  offset="0.6725" style="stop-color:#9ABFDB"/>
		<stop  offset="1" style="stop-color:#AED9EC"/>
	</linearGradient>
	<path class="st16" d="M528.3,81.9c0,0-0.1-0.1-0.1-0.1c0.1,0.1,0.2,0.1,0.3,0.1C528.4,82,528.3,82,528.3,81.9z"/>
	<g>
		<g>
			<linearGradient id="SVGID_15_" gradientUnits="userSpaceOnUse" x1="380.7849" y1="79.8826" x2="444.8598" y2="79.8826">
				<stop  offset="0" style="stop-color:#CADEE0"/>
				<stop  offset="0.2773" style="stop-color:#C3D9DD"/>
				<stop  offset="0.6803" style="stop-color:#B0CCD4"/>
				<stop  offset="0.9879" style="stop-color:#9EBFCC"/>
			</linearGradient>
			<path class="st17" d="M442.8,79.7L442.8,79.7l-54.1,0l0-1.7l-8,2.9l2.8,0.4l0.2,0h0.1l4.6,0.5h40.6l4.7-0.3h1.3
				c1.1,0,2.2-0.1,3.2-0.1c1-0.1,1.8-0.2,2.2-0.3l4.5-1.4H442.8z"/>
			<linearGradient id="SVGID_16_" gradientUnits="userSpaceOnUse" x1="415.7876" y1="79.6516" x2="415.7876" y2="51.18">
				<stop  offset="0.1636" style="stop-color:#91CFDA"/>
				<stop  offset="0.3096" style="stop-color:#9DD3DC"/>
				<stop  offset="0.5659" style="stop-color:#BCDFDF"/>
				<stop  offset="0.8061" style="stop-color:#DDEFE3"/>
			</linearGradient>
			<polygon class="st18" points="442.8,66.6 442.8,79.7 388.7,79.7 388.7,66.6 389.1,66.4 411.8,51.2 419.8,51.2 442.5,66.4 			"/>
			<linearGradient id="SVGID_17_" gradientUnits="userSpaceOnUse" x1="388.7485" y1="65.3539" x2="442.8268" y2="65.3539">
				<stop  offset="1.212120e-02" style="stop-color:#7EA3B3"/>
				<stop  offset="0.342" style="stop-color:#A0BBC7"/>
				<stop  offset="1" style="stop-color:#E9F3F6"/>
			</linearGradient>
			<polygon class="st19" points="442.8,66.6 442.5,66.4 439.5,66.4 419.6,51.1 418.9,51.1 438.8,66.4 435.1,66.4 418.7,51.1 
				418,51.1 434.5,66.4 429.7,66.4 417.7,51.1 417.1,51.1 429.1,66.4 423.4,66.4 416.8,51.1 416.4,51.1 422.9,66.4 416,66.4 
				416,51.1 415.6,51.1 415.6,66.4 408.7,66.4 415.2,51.1 414.7,51.1 408.2,66.4 402.4,66.4 414.5,51.1 413.9,51.1 401.9,66.4 
				397.1,66.4 413.6,51.1 412.9,51.1 396.5,66.4 392.8,66.4 412.7,51.1 412,51.1 392.1,66.4 389.1,66.4 388.7,66.6 388.7,66.8 
				392,66.8 392,79.6 392.4,79.6 392.4,66.8 396.3,66.8 396.3,79.6 396.8,79.6 396.8,66.8 401.8,66.8 401.8,79.6 402.2,79.6 
				402.2,66.8 408.1,66.8 408.1,79.6 408.6,79.6 408.6,66.8 415.6,66.8 415.6,79.6 416,79.6 416,66.8 423,66.8 423,79.6 423.4,79.6 
				423.4,66.8 429.4,66.8 429.4,79.6 429.8,79.6 429.8,66.8 434.8,66.8 434.8,79.6 435.2,79.6 435.2,66.8 439.2,66.8 439.2,79.6 
				439.6,79.6 439.6,66.8 442.8,66.8 			"/>
			<path class="st20" d="M444.9,68.4v11.2h-7.7V68.4c0-2.1,1.7-3.8,3.8-3.8c1.1,0,2,0.4,2.7,1.1C444.4,66.4,444.9,67.4,444.9,68.4z"
				/>
			<linearGradient id="SVGID_18_" gradientUnits="userSpaceOnUse" x1="433.5939" y1="79.6463" x2="433.5939" y2="64.5732">
				<stop  offset="0.1636" style="stop-color:#91CFDA"/>
				<stop  offset="0.3537" style="stop-color:#9DD3DC"/>
				<stop  offset="0.6874" style="stop-color:#BCDFDF"/>
				<stop  offset="1" style="stop-color:#DDEFE3"/>
			</linearGradient>
			<path class="st21" d="M441,64.6c-2.1,0-3.8,1.7-3.8,3.8v11.2h-9.6l-1.4-10.7c-0.3-2.1,1.2-4,3.3-4.3c0.2,0,0.3,0,0.5,0L441,64.6z
				"/>
			<rect x="388.7" y="76.7" class="st22" width="48.4" height="2.9"/>
			<path class="st23" d="M444.5,68.4v11.2h-6.9V68.4c0-0.5,0.1-1,0.3-1.4c0.5-1.2,1.7-2,3.1-2c1,0,1.8,0.4,2.4,1
				C444.1,66.6,444.5,67.5,444.5,68.4z"/>
			<linearGradient id="SVGID_19_" gradientUnits="userSpaceOnUse" x1="440.6314" y1="79.6463" x2="440.6314" y2="65.814">
				<stop  offset="0" style="stop-color:#8294A0"/>
				<stop  offset="0.9879" style="stop-color:#A9BBD9"/>
			</linearGradient>
			<path class="st24" d="M443.7,69.1v10.6h-6.1V68.5c0-0.5,0.1-1,0.3-1.4c0.6-0.7,1.5-1.2,2.5-1.2c0.9,0,1.7,0.4,2.3,1
				C443.3,67.3,443.7,68.2,443.7,69.1z"/>
			<rect x="438.6" y="68.6" class="st23" width="3.6" height="2.2"/>
			<rect x="438.6" y="71.3" class="st25" width="3.6" height="7.5"/>
			<rect x="417.2" y="68.6" class="st26" width="4.7" height="1.6"/>
			<rect x="403.1" y="68.6" class="st26" width="4.2" height="1.6"/>
			<rect x="393.1" y="68.6" class="st26" width="2.7" height="1.6"/>
			<path class="st27" d="M418.8,50.3v-0.5v-4.1h-0.3v4.1h-1v0.5h-1v-0.2c0.5-0.2,0.9-0.8,0.9-1.4c0-0.9-0.7-1.5-1.5-1.5
				c-0.9,0-1.5,0.7-1.5,1.5c0,0.6,0.4,1.2,0.9,1.4v0.2H414v-4.6h-0.3v4.6h-0.3v-8.1h0.2v-2.9h-0.2v-3.1h-0.5v3.1h-0.2v2.9h0.2v8.1
				h-0.7v0.9h0.7h0.5h1.8h1.3h2.8v-0.9H418.8z"/>
			<g>
				<path class="st28" d="M401.2,74.6h-0.6v-1.7c0-0.1,0-0.2,0-0.3c0,0.1-0.1,0.2-0.2,0.3l-1,1.4h-0.1l-1-1.4
					c-0.1-0.1-0.1-0.2-0.2-0.3c0,0.1,0,0.2,0,0.3v1.7h-0.5v-2.7h0.5l1.3,1.6l1.2-1.6h0.5V74.6z"/>
				<path class="st28" d="M405.7,72.3l-1.4,2.3h-0.7l1.5-2.3h-1.8v0.6l-0.6-0.1v-0.9h3V72.3z"/>
			</g>
			<linearGradient id="SVGID_20_" gradientUnits="userSpaceOnUse" x1="427.2003" y1="78.1792" x2="437.1609" y2="78.1792">
				<stop  offset="1.212120e-02" style="stop-color:#9EBFCC"/>
				<stop  offset="0.2879" style="stop-color:#AFCACC"/>
				<stop  offset="0.7098" style="stop-color:#C2D9CC"/>
				<stop  offset="1" style="stop-color:#C9DECC"/>
			</linearGradient>
			<polygon class="st29" points="427.2,76.7 427.7,79.7 437.2,79.7 437.2,76.7 			"/>
			<linearGradient id="SVGID_21_" gradientUnits="userSpaceOnUse" x1="413.5981" y1="80.4693" x2="412.5742" y2="51.1517">
				<stop  offset="1.212120e-02" style="stop-color:#809BC3"/>
				<stop  offset="0.2989" style="stop-color:#A1B8D3"/>
				<stop  offset="0.5884" style="stop-color:#BFD2E1"/>
				<stop  offset="0.8325" style="stop-color:#D2E4E9"/>
				<stop  offset="1" style="stop-color:#D9EBED"/>
			</linearGradient>
			<path class="st30" d="M426.9,66.2l-4.1,4.1l0,0L408,68.2v-1.6l6.5-15.4h-2.7l-23,15.3l0,13.1l18,0v0.1l16.1,0h14.3V68.5
				c0-0.9,0.3-1.7,0.8-2.3H426.9z"/>
		</g>
		<g>
			<linearGradient id="SVGID_22_" gradientUnits="userSpaceOnUse" x1="342.1708" y1="82.6985" x2="412.287" y2="82.6985">
				<stop  offset="0" style="stop-color:#CADEE0"/>
				<stop  offset="0.2773" style="stop-color:#C3D9DD"/>
				<stop  offset="0.6803" style="stop-color:#B0CCD4"/>
				<stop  offset="0.9879" style="stop-color:#9EBFCC"/>
			</linearGradient>
			<path class="st31" d="M410.1,82.1L410.1,82.1l-59.2,0l0-1.8l-8.7,3.1l3,0.5l0.3,0h0.1l10.6,1.2h29.4l14.6-0.9h1.4
				c1.2,0,2.4-0.1,3.5-0.2c1.1-0.1,1.9-0.2,2.4-0.4l4.9-1.5H410.1z"/>
			<linearGradient id="SVGID_23_" gradientUnits="userSpaceOnUse" x1="380.4726" y1="82.1374" x2="380.4726" y2="50.9815">
				<stop  offset="0.1636" style="stop-color:#91CFDA"/>
				<stop  offset="0.3096" style="stop-color:#9DD3DC"/>
				<stop  offset="0.5659" style="stop-color:#BCDFDF"/>
				<stop  offset="0.8061" style="stop-color:#DDEFE3"/>
			</linearGradient>
			<polygon class="st32" points="410.1,67.9 410.1,82.1 350.9,82.1 350.9,67.9 351.2,67.7 376.1,51 384.9,51 409.7,67.7 			"/>
			<linearGradient id="SVGID_24_" gradientUnits="userSpaceOnUse" x1="350.8853" y1="66.4924" x2="410.0599" y2="66.4924">
				<stop  offset="1.212120e-02" style="stop-color:#7EA3B3"/>
				<stop  offset="0.342" style="stop-color:#A0BBC7"/>
				<stop  offset="1" style="stop-color:#E9F3F6"/>
			</linearGradient>
			<polygon class="st33" points="410.1,67.8 409.7,67.6 406.4,67.6 384.7,50.9 383.9,50.9 405.6,67.6 401.6,67.6 383.6,50.9 
				382.9,50.9 400.9,67.6 395.7,67.6 382.5,50.9 381.9,50.9 395.1,67.6 388.8,67.6 381.6,50.9 381.1,50.9 388.2,67.6 380.7,67.6 
				380.7,50.9 380.2,50.9 380.2,67.6 372.7,67.6 379.9,50.9 379.3,50.9 372.2,67.6 365.9,67.6 379,50.9 378.4,50.9 365.2,67.6 
				360,67.6 378,50.9 377.3,50.9 359.3,67.6 355.3,67.6 377.1,50.9 376.3,50.9 354.6,67.6 351.2,67.6 350.9,67.8 350.9,68.1 
				354.4,68.1 354.4,82.1 354.9,82.1 354.9,68.1 359.2,68.1 359.2,82.1 359.7,82.1 359.7,68.1 365.1,68.1 365.1,82.1 365.6,82.1 
				365.6,68.1 372.1,68.1 372.1,82.1 372.6,82.1 372.6,68.1 380.2,68.1 380.2,82.1 380.7,82.1 380.7,68.1 388.4,68.1 388.4,82.1 
				388.8,82.1 388.8,68.1 395.3,68.1 395.3,82.1 395.8,82.1 395.8,68.1 401.3,68.1 401.3,82.1 401.8,82.1 401.8,68.1 406.1,68.1 
				406.1,82.1 406.6,82.1 406.6,68.1 410.1,68.1 			"/>
			<path class="st20" d="M412.3,69.8v12.3h-8.4V69.8c0-2.3,1.9-4.2,4.2-4.2c1.2,0,2.2,0.5,3,1.2C411.8,67.6,412.3,68.7,412.3,69.8z"
				/>
			<linearGradient id="SVGID_25_" gradientUnits="userSpaceOnUse" x1="399.9586" y1="82.1321" x2="399.9586" y2="65.637">
				<stop  offset="0.1636" style="stop-color:#91CFDA"/>
				<stop  offset="0.3537" style="stop-color:#9DD3DC"/>
				<stop  offset="0.6874" style="stop-color:#BCDFDF"/>
				<stop  offset="1" style="stop-color:#DDEFE3"/>
			</linearGradient>
			<path class="st34" d="M408.1,65.6c-2.3,0-4.2,1.9-4.2,4.2v12.3h-10.5l-1.5-11.8c-0.3-2.3,1.3-4.4,3.6-4.7c0.2,0,0.4,0,0.5,0
				L408.1,65.6z"/>
			<rect x="350.9" y="78.9" class="st22" width="53" height="3.2"/>
			<path class="st23" d="M411.8,69.9v12.3h-7.5V69.9c0-0.6,0.1-1.1,0.3-1.6c0.6-1.3,1.9-2.2,3.4-2.2c1,0,2,0.4,2.7,1.1
				C411.4,67.9,411.8,68.8,411.8,69.9z"/>
			<linearGradient id="SVGID_26_" gradientUnits="userSpaceOnUse" x1="407.66" y1="82.1321" x2="407.66" y2="66.9955">
				<stop  offset="0" style="stop-color:#8294A0"/>
				<stop  offset="0.9879" style="stop-color:#A9BBD9"/>
			</linearGradient>
			<path class="st35" d="M411,70.6v11.6h-6.7V69.9c0-0.6,0.1-1.1,0.3-1.6c0.7-0.8,1.7-1.3,2.8-1.3c1,0,1.9,0.4,2.5,1
				C410.6,68.7,411,69.6,411,70.6z"/>
			<rect x="405.4" y="70.1" class="st23" width="4" height="2.4"/>
			<rect x="405.4" y="73" class="st25" width="4" height="8.2"/>
			<rect x="382" y="70.1" class="st26" width="5.1" height="1.7"/>
			<rect x="366.5" y="70.1" class="st26" width="4.5" height="1.7"/>
			<rect x="355.6" y="70.1" class="st26" width="2.9" height="1.7"/>
			<path class="st27" d="M383.8,50v-0.6V45h-0.4v4.4h-1.1V50h-1.1v-0.2c0.6-0.3,1-0.9,1-1.5c0-0.9-0.8-1.7-1.7-1.7
				c-0.9,0-1.7,0.8-1.7,1.7c0,0.7,0.4,1.3,1,1.5V50h-1.3v-5h-0.4v5h-0.3v-8.9h0.2v-3.2h-0.2v-3.4h-0.5v3.4h-0.2v3.2h0.2V50h-0.8v1
				h0.8h0.5h1.9h1.4h3.1v-1H383.8z"/>
			<g>
				<path class="st28" d="M364.5,76.6h-0.6v-1.8c0-0.1,0-0.2,0-0.3c0,0.1-0.1,0.2-0.2,0.3l-1.1,1.5h-0.1l-1.1-1.5
					c-0.1-0.1-0.1-0.2-0.2-0.3c0,0.1,0,0.2,0,0.3v1.9h-0.6v-3h0.6l1.4,1.8l1.4-1.8h0.6V76.6z"/>
				<path class="st28" d="M369.4,74.1l-1.5,2.5h-0.8l1.6-2.5h-2v0.6l-0.6-0.1v-1h3.3V74.1z"/>
			</g>
			<linearGradient id="SVGID_27_" gradientUnits="userSpaceOnUse" x1="392.9633" y1="80.5267" x2="403.8611" y2="80.5267">
				<stop  offset="1.212120e-02" style="stop-color:#9EBFCC"/>
				<stop  offset="0.2879" style="stop-color:#AFCACC"/>
				<stop  offset="0.7098" style="stop-color:#C2D9CC"/>
				<stop  offset="1" style="stop-color:#C9DECC"/>
			</linearGradient>
			<polygon class="st36" points="393,78.9 393.5,82.1 403.9,82.1 403.9,78.9 			"/>
			<linearGradient id="SVGID_28_" gradientUnits="userSpaceOnUse" x1="378.0785" y1="83.0327" x2="376.9582" y2="50.9506">
				<stop  offset="1.212120e-02" style="stop-color:#809BC3"/>
				<stop  offset="0.2989" style="stop-color:#A1B8D3"/>
				<stop  offset="0.5884" style="stop-color:#BFD2E1"/>
				<stop  offset="0.8325" style="stop-color:#D2E4E9"/>
				<stop  offset="1" style="stop-color:#D9EBED"/>
			</linearGradient>
			<path class="st37" d="M392.7,67.4l-4.5,4.5l0,0l-16.3-2.3v-1.8L379,51h-3l-25.2,16.8l0,14.3l19.7,0v0.1l17.6,0h15.7V69.9
				c0-0.9,0.3-1.8,0.8-2.5H392.7z"/>
		</g>
		<linearGradient id="SVGID_29_" gradientUnits="userSpaceOnUse" x1="417.0305" y1="80.6121" x2="415.4763" y2="36.1053">
			<stop  offset="0" style="stop-color:#C0E4DA"/>
			<stop  offset="0.372" style="stop-color:#D9EEE6"/>
			<stop  offset="0.7373" style="stop-color:#EAF5EE"/>
			<stop  offset="1" style="stop-color:#F1F8F1"/>
		</linearGradient>
		<path class="st38" d="M443.7,65.7c-0.7-0.7-1.7-1.1-2.7-1.1l-1.3,0l-19.9-13.4h-0.1l-0.1-0.1h-0.3v-0.8h-0.5v-0.5v-4.1h-0.3v4.1
			h-1v0.5h-1v-0.2c0.5-0.2,0.9-0.8,0.9-1.4c0-0.9-0.7-1.5-1.5-1.5c-0.9,0-1.5,0.7-1.5,1.5c0,0.6,0.4,1.2,0.9,1.4v0.2H414v-4.6h-0.3
			v4.6h-0.3v-8.1h0.2v-2.9h-0.2v-3.1h-0.5v3.1h-0.2v2.9h0.2v8.1h-0.7v0.8H412l-0.1,0.1h-0.1l-23,15.3l0,10.2h0v2.9h0h38.9h9.5h5.7v0
			h0.9h0.8h0.4V68.4C444.9,67.4,444.4,66.4,443.7,65.7z"/>
		<linearGradient id="SVGID_30_" gradientUnits="userSpaceOnUse" x1="381.8343" y1="83.1896" x2="380.1335" y2="34.4866">
			<stop  offset="0" style="stop-color:#C0E4DA"/>
			<stop  offset="0.372" style="stop-color:#D9EEE6"/>
			<stop  offset="0.7373" style="stop-color:#EAF5EE"/>
			<stop  offset="1" style="stop-color:#F1F8F1"/>
		</linearGradient>
		<path class="st39" d="M411.1,66.9c-0.8-0.8-1.8-1.2-3-1.2l-1.4,0L384.9,51h-0.1l-0.1-0.1h-0.4V50h-0.5v-0.6V45h-0.4v4.4h-1.1V50
			h-1.1v-0.2c0.6-0.3,1-0.9,1-1.5c0-0.9-0.8-1.7-1.7-1.7c-0.9,0-1.7,0.8-1.7,1.7c0,0.7,0.4,1.3,1,1.5V50h-1.3v-5h-0.4v5h-0.3v-8.9
			h0.2v-3.2h-0.2v-3.4h-0.5v3.4h-0.2v3.2h0.2V50h-0.8v0.9h-0.3l-0.1,0.1h-0.1l-25.2,16.8l0,11.2h0v3.2h0h42.6h10.4h6.2v0h0.9h0.8
			h0.4V69.8C412.3,68.7,411.8,67.6,411.1,66.9z"/>
		
			<linearGradient id="SVGID_31_" gradientUnits="userSpaceOnUse" x1="674.3268" y1="85.4759" x2="759.1335" y2="85.4759" gradientTransform="matrix(1 0 1.5454 1 -328.436 0)">
			<stop  offset="0" style="stop-color:#B2CCD4"/>
			<stop  offset="1" style="stop-color:#CADEE0"/>
		</linearGradient>
		<path class="st40" d="M552.5,82.3c2.5-1,3.4-1.7,2.2-1.9c-0.1,0-0.3,0-0.4,0c-0.2,0-0.5,0-0.7,0c0,0,0.1,0,0.1,0
			c0.2,0,0.4,0,0.6,0c0.1,0,0.3,0,0.4,0c-1.2-0.1-4-0.1-5.6,0c-0.1,0-0.1,0-0.2,0c-0.2,0-0.4,0-0.7,0.1c-0.3,0-0.6,0.1-0.9,0.1
			c-0.2,0-0.3,0.1-0.5,0.1c-0.2,0-0.5,0.1-0.7,0.1c-0.2,0-0.3,0.1-0.5,0.1c-0.1,0-0.1,0-0.2,0.1c0.3-0.3,0.3-0.5-0.3-0.6
			c-0.1,0-0.3,0-0.4,0c-0.1,0-0.2,0-0.3,0c0,0,0,0,0,0c0.1,0,0.2,0,0.3,0c0.1,0,0.3,0,0.4,0c-0.6-0.1-1.7-0.1-2.9-0.1
			c-1.2,0-2.5,0-3.5,0.1c-0.1,0-0.1,0-0.2,0c-0.2,0-0.4,0-0.7,0.1c-0.3,0-0.6,0.1-0.9,0.1c-0.2,0-0.3,0.1-0.5,0.1
			c-0.2,0-0.4,0.1-0.5,0.1c0.1-0.2,0-0.4-0.5-0.4c-0.1,0-0.3,0-0.4,0c-0.2,0-0.5,0-0.7,0c0,0,0.1,0,0.1,0c0.2,0,0.4,0,0.6,0
			c0.1,0,0.3,0,0.4,0c-1.1-0.1-3.4-0.1-5.1,0c-1.3-0.1-3.8-0.1-5.2,0c-0.1,0-0.1,0-0.2,0c-0.2,0-0.4,0-0.7,0.1
			c-0.3,0-0.6,0.1-0.9,0.1c-0.2,0-0.3,0.1-0.5,0.1c-0.2,0-0.5,0.1-0.7,0.1c-0.2,0-0.3,0.1-0.5,0.1c-0.2,0-0.4,0.1-0.7,0.2
			c-0.2,0-0.3,0.1-0.5,0.1c-0.2,0.1-0.4,0.1-0.7,0.2c-0.2,0-0.3,0.1-0.5,0.1c-0.2,0.1-0.5,0.1-0.7,0.2c-0.1,0-0.3,0.1-0.4,0.1h-1.5
			c1.8-0.8,2.3-1.4,1.2-1.5c0,0,0,0,0,0c0,0,0,0,0,0c-1.2-0.1-4-0.1-5.6,0c-0.1,0-0.1,0-0.2,0c-0.2,0-0.4,0-0.7,0.1
			c-0.3,0-0.6,0.1-0.9,0.1c-0.2,0-0.3,0.1-0.5,0.1c-0.2,0-0.5,0.1-0.7,0.1c-0.2,0-0.3,0.1-0.5,0.1c-0.2,0-0.4,0.1-0.7,0.2
			c-0.2,0-0.3,0.1-0.5,0.1c-0.2,0.1-0.4,0.1-0.7,0.2c-0.2,0-0.3,0.1-0.5,0.1c-0.2,0.1-0.5,0.1-0.7,0.2c-0.2,0-0.3,0.1-0.5,0.2
			c-0.3,0.1-0.5,0.2-0.8,0.3c-0.1,0-0.2,0.1-0.2,0.1c-0.1,0-0.2,0.1-0.2,0.1c-0.2,0.1-0.3,0.1-0.4,0.2h-1l-10.1,2h0l-3.2,1.2
			l-5.1,3.6h2.1l-0.4,0.1c-0.3,0-0.7,0.1-1.1,0.2c-0.4,0.1-0.5,0.3-0.2,0.3h0.4c0.2,0,0.6-0.1,0.9-0.2c-0.2,0.1-0.3,0.2-0.1,0.2h0.4
			c0.2,0,0.6-0.1,0.9-0.2c-0.2,0.1-0.3,0.2-0.1,0.2h0.4c0.2,0,0.6-0.1,0.9-0.2c-0.2,0.1-0.3,0.2-0.1,0.2h0.4c0.3,0,0.8-0.1,1.2-0.3
			c0.3-0.1,0.4-0.2,0.2-0.2l0.4-0.1h2.8l-0.4,0.1c-0.3,0-0.7,0.1-1.1,0.2c-0.4,0.1-0.5,0.3-0.2,0.3h0.4c0.2,0,0.6-0.1,0.9-0.2
			c-0.2,0.1-0.3,0.2-0.1,0.2h0.4c0.2,0,0.6-0.1,0.9-0.2c-0.2,0.1-0.3,0.2,0,0.2h0.4c0,0,0,0,0,0c-0.1,0.1-0.3,0.2-0.3,0.3
			c-0.3,0.4,0.7,0.5,2.3,0.2c0.7-0.1,1.5-0.3,2.1-0.6h3.1l0.4-0.2l-1.2-0.2l0.6-0.2h5.5l4.6-1.2h0l-2.4,0.6h17.5l2.6-0.6h2.2
			l10.3-2.4l3.2-1.2l0.5-0.6C548,83.6,550.5,83,552.5,82.3z M553.3,80.4c-0.2,0-0.4,0-0.6,0.1c0.1,0,0.2,0,0.3,0
			C553.1,80.4,553.2,80.4,553.3,80.4z M552.1,80.6c0.1,0,0.1,0,0.2,0c-0.2,0-0.5,0.1-0.8,0.1c0,0,0.1,0,0.1,0
			C551.8,80.7,551.9,80.6,552.1,80.6z M549.8,81.1c0.2,0,0.3-0.1,0.5-0.1c0.1,0,0.1,0,0.2,0c0.2,0,0.3-0.1,0.5-0.1
			c0.1,0,0.2-0.1,0.4-0.1c-0.3,0.1-0.7,0.1-1,0.2c-0.3,0.1-0.7,0.2-1,0.2c0,0,0,0,0,0C549.4,81.2,549.6,81.1,549.8,81.1z M549,81.3
			c-0.3,0.1-0.5,0.1-0.8,0.2c0.1,0,0.3-0.1,0.4-0.1C548.7,81.4,548.8,81.3,549,81.3z M547.8,81.6c-0.3,0.1-0.5,0.2-0.8,0.2h0
			c0.1,0,0.3-0.1,0.4-0.1C547.6,81.7,547.7,81.7,547.8,81.6z M544.4,80.4C544.4,80.4,544.4,80.4,544.4,80.4
			C544.3,80.4,544.3,80.4,544.4,80.4L544.4,80.4C544.3,80.4,544.4,80.4,544.4,80.4z M534.1,80.4c-0.2,0-0.4,0-0.6,0.1
			c0.1,0,0.2,0,0.3,0C533.9,80.4,534,80.4,534.1,80.4z M532.9,80.6c0.1,0,0.1,0,0.2,0c-0.2,0-0.5,0.1-0.8,0.1c0,0,0.1,0,0.1,0
			C532.6,80.7,532.7,80.6,532.9,80.6z M531.7,80.8c0.1,0,0.2-0.1,0.4-0.1c-0.3,0.1-0.6,0.1-0.9,0.2c0,0,0,0,0,0c0,0,0.1,0,0.1,0
			C531.4,80.9,531.6,80.9,531.7,80.8z M487.6,89.5c-0.2,0-0.5,0.1-0.8,0.2c0.2-0.1,0.2-0.1,0.1-0.2l0.4-0.1h0.7L487.6,89.5z
			 M488.9,89.5c-0.2,0-0.5,0.1-0.8,0.2c0.2-0.1,0.2-0.2,0.1-0.2l0.4-0.1h0.7L488.9,89.5z M490.1,89.5c-0.2,0-0.5,0.1-0.8,0.2
			c0.2-0.1,0.2-0.2,0.1-0.2l0.4-0.1h0.7L490.1,89.5z M494.8,89.5c-0.2,0-0.5,0.1-0.8,0.2c0.2-0.1,0.2-0.2,0.1-0.2l0.4-0.1h0.7
			L494.8,89.5z M496.1,89.5c-0.2,0-0.5,0.1-0.8,0.2c0.2-0.1,0.2-0.1,0.1-0.2l0.4-0.1h0.7L496.1,89.5z M500.3,89.6l-0.3,0
			c0.2-0.1,0.3-0.2,0.4-0.2h0.5L500.3,89.6z"/>
		<g>
			
				<linearGradient id="SVGID_32_" gradientUnits="userSpaceOnUse" x1="138.1069" y1="89.141" x2="220.5585" y2="89.141" gradientTransform="matrix(1 0 -1.19 1 259.5268 1.000000e-03)">
				<stop  offset="0" style="stop-color:#CADEE0"/>
				<stop  offset="0.2773" style="stop-color:#C3D9DD"/>
				<stop  offset="0.6803" style="stop-color:#B0CCD4"/>
				<stop  offset="0.9879" style="stop-color:#9EBFCC"/>
			</linearGradient>
			<path class="st41" d="M378.7,85.2l-0.2-0.1L378.7,85.2l-3.5-0.1l-7.2,0.1h-12.2l-48.4,0l0,0l3.7-2.5L292.9,88l2.3,0.8l0.2,0.1
				h0.1l15.8,3.4h0.1l0.1,0h0.3l-0.7,0.2h0.9l-6.9,1.8h-0.3l-2.5,0.7h0.3l-2.6,0.7h0.6l2.6-0.7h0.2l2.5-0.7h-0.2l6.9-1.8h0.3l-3.9,1
				h0.4l3.9-1h1.5l-0.1,0c-0.9,0.1-1.8,0.2-2.3,0.3c-0.7,0.2-0.4,0.4,0.6,0.4c1.1,0,2.6-0.2,3.3-0.4c0.5-0.1,0.5-0.3,0.1-0.3l0.1,0
				h1.3l-0.4,0.1h1.3l-3.5,0.9h0.4l3.5-0.9l0.4-0.1h0.6l0.7-0.2h0.4l0.2,0h0.1l36.8-3h1.6c1.4,0,2.9-0.1,4.4-0.3
				c1.5-0.2,2.8-0.4,3.7-0.6L378.7,85.2L378.7,85.2z"/>
			<linearGradient id="SVGID_33_" gradientUnits="userSpaceOnUse" x1="341.7939" y1="85.3648" x2="341.7939" y2="49.2054">
				<stop  offset="0.1636" style="stop-color:#91CFDA"/>
				<stop  offset="0.3096" style="stop-color:#9DD3DC"/>
				<stop  offset="0.5659" style="stop-color:#BCDFDF"/>
				<stop  offset="0.8061" style="stop-color:#DDEFE3"/>
			</linearGradient>
			<polygon class="st42" points="376.1,68.8 376.1,85.4 307.5,85.4 307.5,68.8 307.9,68.6 336.7,49.2 346.9,49.2 375.7,68.6 			"/>
			<linearGradient id="SVGID_34_" gradientUnits="userSpaceOnUse" x1="307.4558" y1="67.2069" x2="376.132" y2="67.2069">
				<stop  offset="1.212120e-02" style="stop-color:#7EA3B3"/>
				<stop  offset="0.342" style="stop-color:#A0BBC7"/>
				<stop  offset="1" style="stop-color:#E9F3F6"/>
			</linearGradient>
			<polygon class="st43" points="376.1,68.8 375.7,68.5 371.9,68.5 346.7,49.1 345.8,49.1 371,68.5 366.3,68.5 345.4,49.1 
				344.6,49.1 365.5,68.5 359.5,68.5 344.2,49.1 343.5,49.1 358.8,68.5 351.4,68.5 343.1,49.1 342.5,49.1 350.8,68.5 342.1,68.5 
				342.1,49.1 341.5,49.1 341.5,68.5 332.8,68.5 341.1,49.1 340.5,49.1 332.2,68.5 324.8,68.5 340.1,49.1 339.4,49.1 324.1,68.5 
				318.1,68.5 339,49.1 338.1,49.1 317.2,68.5 312.6,68.5 337.8,49.1 336.9,49.1 311.7,68.5 307.9,68.5 307.5,68.8 307.5,69 
				311.5,69 311.5,85.3 312.1,85.3 312.1,69 317.1,69 317.1,85.3 317.6,85.3 317.6,69 324,69 324,85.3 324.5,85.3 324.5,69 
				332.1,69 332.1,85.3 332.6,85.3 332.6,69 341.5,69 341.5,85.3 342.1,85.3 342.1,69 351,69 351,85.3 351.5,85.3 351.5,69 
				359.1,69 359.1,85.3 359.6,85.3 359.6,69 366,69 366,85.3 366.5,85.3 366.5,69 371.5,69 371.5,85.3 372.1,85.3 372.1,69 
				376.1,69 			"/>
			<path class="st20" d="M378.7,71.1v14.3H369V71.1c0-2.7,2.2-4.9,4.9-4.9c1.4,0,2.6,0.5,3.5,1.4C378.2,68.5,378.7,69.8,378.7,71.1z
				"/>
			<linearGradient id="SVGID_35_" gradientUnits="userSpaceOnUse" x1="364.4089" y1="85.3578" x2="364.4089" y2="66.2153">
				<stop  offset="0.1636" style="stop-color:#91CFDA"/>
				<stop  offset="0.3537" style="stop-color:#9DD3DC"/>
				<stop  offset="0.6874" style="stop-color:#BCDFDF"/>
				<stop  offset="1" style="stop-color:#DDEFE3"/>
			</linearGradient>
			<path class="st44" d="M373.8,66.2c-2.7,0-4.9,2.2-4.9,4.9v14.3h-12.2L355,71.7c-0.3-2.7,1.5-5.1,4.2-5.5c0.2,0,0.4,0,0.6,0
				L373.8,66.2z"/>
			<rect x="307.4" y="81.6" class="st22" width="61.5" height="3.7"/>
			<path class="st23" d="M378.2,71.1v14.2h-8.7V71.1c0-0.7,0.1-1.3,0.4-1.8c0.7-1.5,2.2-2.5,4-2.5c1.2,0,2.3,0.5,3.1,1.3
				C377.7,68.8,378.2,69.9,378.2,71.1z"/>
			<linearGradient id="SVGID_36_" gradientUnits="userSpaceOnUse" x1="373.3446" y1="85.3578" x2="373.3446" y2="67.792">
				<stop  offset="0" style="stop-color:#8294A0"/>
				<stop  offset="0.9879" style="stop-color:#A9BBD9"/>
			</linearGradient>
			<path class="st45" d="M377.2,71.9v13.4h-7.8V71.2c0-0.7,0.1-1.3,0.4-1.8c0.8-1,1.9-1.6,3.2-1.6c1.1,0,2.2,0.5,2.9,1.2
				C376.8,69.7,377.2,70.8,377.2,71.9z"/>
			<rect x="370.8" y="71.4" class="st23" width="4.6" height="2.7"/>
			<rect x="370.8" y="74.8" class="st25" width="4.6" height="9.5"/>
			<rect x="343.5" y="71.4" class="st26" width="6" height="2"/>
			<rect x="325.6" y="71.4" class="st26" width="5.3" height="2"/>
			<rect x="312.9" y="71.4" class="st26" width="3.4" height="2"/>
			<path class="st27" d="M345.6,48.1v-0.7v-5.2h-0.4v5.2h-1.3v0.7h-1.3v-0.2c0.7-0.3,1.1-1,1.1-1.8c0-1.1-0.9-2-2-2
				c-1.1,0-2,0.9-2,2c0,0.8,0.5,1.5,1.1,1.8v0.2h-1.5v-5.8H339v5.8h-0.3V37.8h0.2v-3.7h-0.2v-3.9h-0.6v3.9h-0.3v3.7h0.3v10.3h-0.9
				v1.2h0.9h0.6h2.3h1.7h3.6v-1.2H345.6z"/>
			<g>
				<path class="st28" d="M323.3,78.9h-0.7v-2.1c0-0.1,0-0.2,0-0.4c0,0.1-0.1,0.2-0.2,0.4l-1.3,1.7h-0.2l-1.3-1.7
					c-0.1-0.1-0.2-0.2-0.2-0.4c0,0.1,0,0.3,0,0.3v2.2h-0.6v-3.4h0.6l1.6,2.1l1.6-2.1h0.6V78.9z"/>
				<path class="st28" d="M329,76.1l-1.8,2.9h-0.9l1.9-2.9h-2.3v0.7l-0.7-0.1v-1.2h3.8V76.1z"/>
			</g>
			<linearGradient id="SVGID_37_" gradientUnits="userSpaceOnUse" x1="356.2892" y1="83.4946" x2="368.9366" y2="83.4946">
				<stop  offset="1.212120e-02" style="stop-color:#9EBFCC"/>
				<stop  offset="0.2879" style="stop-color:#AFCACC"/>
				<stop  offset="0.7098" style="stop-color:#C2D9CC"/>
				<stop  offset="1" style="stop-color:#C9DECC"/>
			</linearGradient>
			<polygon class="st46" points="356.3,81.6 356.9,85.4 368.9,85.4 368.9,81.6 			"/>
			<linearGradient id="SVGID_38_" gradientUnits="userSpaceOnUse" x1="339.0154" y1="86.403" x2="337.7152" y2="49.1695">
				<stop  offset="1.212120e-02" style="stop-color:#809BC3"/>
				<stop  offset="0.2462" style="stop-color:#87A4CA"/>
				<stop  offset="0.6725" style="stop-color:#9ABFDB"/>
				<stop  offset="1" style="stop-color:#AED9EC"/>
			</linearGradient>
			<path class="st47" d="M355.9,68.3l-5.2,5.2l0,0l-18.9-2.7v-2.1l8.3-19.5h-3.4l-29.2,19.5l0,16.6l22.9,0v0.1l20.4,0h18.2V71.2
				c0-1.1,0.4-2.1,1-2.9H355.9z"/>
		</g>
		<g>
			<g>
				<path class="st48" d="M516.4,77.1c0,2.2-1.2,4-2.8,4.3c0,0,0,0-0.1,0c0,0,0,0,0.1,0c-1.6,0.3-4.3,0.3-5.6,0c0,0-0.1,0-0.1,0
					c-0.2,0-0.3-0.1-0.5-0.2c-0.2-0.1-0.4-0.2-0.5-0.3c-0.1-0.1-0.2-0.1-0.2-0.2c-0.1-0.1-0.2-0.2-0.3-0.3c-0.1-0.1-0.1-0.2-0.2-0.2
					c-0.1-0.1-0.2-0.2-0.2-0.4c-0.1-0.1-0.1-0.2-0.2-0.3c-0.1-0.1-0.1-0.3-0.2-0.4c0-0.1-0.1-0.2-0.1-0.3c0-0.2-0.1-0.3-0.1-0.5
					c0-0.1,0-0.2-0.1-0.4c0-0.2,0-0.4-0.1-0.6c0-0.1,0-0.1,0-0.2c0-0.1,0-0.1,0-0.2c0-0.2,0-0.4,0.1-0.6c0-0.1,0-0.2,0.1-0.4
					c0-0.2,0.1-0.3,0.1-0.5c0-0.1,0.1-0.2,0.1-0.3c0.1-0.1,0.1-0.3,0.2-0.4c0.1-0.1,0.1-0.2,0.2-0.3c0.1-0.1,0.2-0.2,0.2-0.4
					c0.1-0.1,0.1-0.2,0.2-0.2c0.1-0.1,0.2-0.2,0.3-0.3c0.1-0.1,0.2-0.1,0.2-0.2c0.2-0.1,0.4-0.2,0.5-0.3c0.2-0.1,0.3-0.1,0.5-0.2
					c0.1,0,0.1,0,0.2,0c0,0,0,0,0,0c1.3-0.3,3.9-0.3,5.5,0C515.2,73.1,516.4,74.9,516.4,77.1z"/>
			</g>
			<g>
				<path class="st49" d="M542.7,77.1c0,2.2-1.2,4-2.8,4.3c0,0-0.1,0-0.1,0c0,0,0.1,0,0.1,0c-1.6,0.3-4.3,0.3-5.6,0c0,0-0.1,0-0.1,0
					c-0.2,0-0.3-0.1-0.5-0.2c-0.2-0.1-0.4-0.2-0.5-0.3c-0.1-0.1-0.2-0.1-0.2-0.2c-0.1-0.1-0.2-0.2-0.3-0.3c-0.1-0.1-0.1-0.2-0.2-0.2
					c-0.1-0.1-0.2-0.2-0.2-0.4c-0.1-0.1-0.1-0.2-0.1-0.3c-0.1-0.1-0.1-0.3-0.2-0.4c0-0.1-0.1-0.2-0.1-0.3c-0.1-0.2-0.1-0.3-0.1-0.5
					c0-0.1,0-0.2-0.1-0.4c0-0.2,0-0.4-0.1-0.6c0-0.1,0-0.1,0-0.2c0-0.1,0-0.1,0-0.2c0-0.2,0-0.4,0.1-0.6c0-0.1,0-0.2,0.1-0.4
					c0-0.2,0.1-0.3,0.1-0.5c0-0.1,0.1-0.2,0.1-0.3c0.1-0.1,0.1-0.3,0.2-0.4c0-0.1,0.1-0.2,0.2-0.3c0.1-0.1,0.2-0.2,0.2-0.4
					c0.1-0.1,0.1-0.2,0.2-0.2c0.1-0.1,0.2-0.2,0.3-0.3c0.1-0.1,0.2-0.1,0.2-0.2c0.2-0.1,0.4-0.2,0.5-0.3c0.2-0.1,0.3-0.1,0.5-0.2
					c0.1,0,0.1,0,0.2,0c0,0,0,0,0,0c1.3-0.3,3.9-0.3,5.5,0C541.4,73.1,542.7,74.9,542.7,77.1z"/>
			</g>
			<g>
				<path class="st48" d="M529.1,77.1c0,2.2-1.2,4-2.8,4.3c0,0,0,0-0.1,0c0,0,0,0,0.1,0c-1.6,0.3-4.3,0.3-5.6,0c0,0-0.1,0-0.1,0
					c-0.2,0-0.3-0.1-0.5-0.2c-0.2-0.1-0.4-0.2-0.5-0.3c-0.1-0.1-0.2-0.1-0.2-0.2c-0.1-0.1-0.2-0.2-0.3-0.3c-0.1-0.1-0.1-0.2-0.2-0.2
					c-0.1-0.1-0.2-0.2-0.2-0.4c-0.1-0.1-0.1-0.2-0.2-0.3c-0.1-0.1-0.1-0.3-0.2-0.4c0-0.1-0.1-0.2-0.1-0.3c0-0.2-0.1-0.3-0.1-0.5
					c0-0.1,0-0.2-0.1-0.4c0-0.2,0-0.4-0.1-0.6c0-0.1,0-0.1,0-0.2c0-0.1,0-0.1,0-0.2c0-0.2,0-0.4,0.1-0.6c0-0.1,0-0.2,0.1-0.4
					c0-0.2,0.1-0.3,0.1-0.5c0-0.1,0.1-0.2,0.1-0.3c0.1-0.1,0.1-0.3,0.2-0.4c0-0.1,0.1-0.2,0.2-0.3c0.1-0.1,0.1-0.2,0.2-0.4
					c0.1-0.1,0.1-0.2,0.2-0.2c0.1-0.1,0.2-0.2,0.3-0.3c0.1-0.1,0.2-0.1,0.2-0.2c0.2-0.1,0.4-0.2,0.5-0.3c0.2-0.1,0.3-0.1,0.5-0.2
					c0.1,0,0.1,0,0.2,0l0,0c1.3-0.3,3.9-0.3,5.5,0C527.8,73.1,529.1,74.9,529.1,77.1z"/>
			</g>
			<g class="st50">
				<path class="st51" d="M516.4,77.1c0,2.2-1.2,4-2.8,4.3c0,0-0.1,0-0.1,0c-0.1,0-0.2,0-0.3,0c0,0-0.1,0-0.1,0c0,0,0,0-0.1,0
					c0,0-0.1,0-0.1,0c0,0,0,0-0.1,0c0,0-0.1,0-0.1,0c0,0-0.1,0-0.1,0c0,0-0.1,0-0.1,0c-0.1,0-0.2-0.1-0.4-0.1c0,0-0.1,0-0.1-0.1
					c-0.1,0-0.2-0.1-0.3-0.2c0,0-0.1-0.1-0.1-0.1c0,0-0.1-0.1-0.1-0.1c0,0,0,0,0,0c0,0-0.1-0.1-0.1-0.1c-0.1-0.1-0.2-0.2-0.2-0.2
					c0,0-0.1-0.1-0.1-0.1c0,0,0-0.1-0.1-0.1c0,0,0,0,0-0.1c0,0,0-0.1-0.1-0.1c0,0,0-0.1-0.1-0.1c0,0-0.1-0.1-0.1-0.1
					c0,0-0.1-0.1-0.1-0.1c0,0-0.1-0.1-0.1-0.1c0,0,0-0.1-0.1-0.1c0-0.1-0.1-0.1-0.1-0.2c0,0,0-0.1-0.1-0.1c0,0,0,0,0-0.1
					c0-0.1,0-0.1-0.1-0.2c0-0.1,0-0.1-0.1-0.2c0,0,0,0,0-0.1c0-0.1-0.1-0.2-0.1-0.3c0,0,0-0.1,0-0.1c0,0,0,0,0,0c0,0,0-0.1,0-0.1
					c0-0.1,0-0.1,0-0.2c0-0.1,0-0.2,0-0.2c0,0,0-0.1,0-0.2c0,0,0-0.1,0-0.1c0,0,0-0.1,0-0.1c0,0,0-0.1,0-0.1c0,0,0-0.1,0-0.1
					c0-0.1,0-0.1,0-0.2c0,0,0-0.1,0-0.1c0,0,0-0.1,0-0.1c0-0.1,0-0.1,0-0.2c0-0.1,0-0.1,0-0.2c0-0.1,0-0.1,0-0.2c0-0.1,0-0.1,0-0.2
					c0,0,0-0.1,0-0.1c0-0.1,0-0.2,0.1-0.3c0,0,0-0.1,0-0.1c0-0.1,0.1-0.2,0.1-0.3c0,0,0-0.1,0-0.1c0,0,0-0.1,0-0.1
					c0-0.1,0.1-0.1,0.1-0.2c0,0,0-0.1,0.1-0.1c0,0,0.1-0.1,0.1-0.1c0.1-0.1,0.1-0.2,0.2-0.3c0,0,0,0,0,0c0,0,0,0,0,0
					c0,0,0.1-0.1,0.1-0.1c0,0,0.1-0.1,0.1-0.1c0,0,0.1-0.1,0.1-0.1c0,0,0.1-0.1,0.1-0.1c0,0,0.1-0.1,0.1-0.1c0,0,0.1,0,0.1-0.1
					c0,0,0.1-0.1,0.1-0.1c0,0,0.1-0.1,0.1-0.1c0,0,0.1-0.1,0.1-0.1c0,0,0.1-0.1,0.1-0.1c0.1-0.1,0.2-0.1,0.3-0.1c0,0,0.1,0,0.1,0
					c0,0,0.1,0,0.1,0c0,0,0.1,0,0.1,0c0,0,0.1,0,0.1,0c0,0,0.1,0,0.1,0c0,0,0.1,0,0.1,0c0,0,0,0,0,0c0,0,0.1,0,0.1,0
					c0.1,0,0.1,0,0.2,0c0.1,0,0.3,0,0.4,0C515.2,73.1,516.4,74.9,516.4,77.1z"/>
			</g>
			<g class="st50">
				<path class="st51" d="M528.3,77.1c0,2.2-1.2,4-2.8,4.3c0,0-0.1,0-0.1,0c-0.1,0-0.2,0-0.3,0c0,0-0.1,0-0.1,0c0,0,0,0-0.1,0
					c0,0-0.1,0-0.1,0c0,0,0,0-0.1,0c0,0-0.1,0-0.1,0c0,0-0.1,0-0.1,0c0,0-0.1,0-0.1,0c-0.1,0-0.2-0.1-0.4-0.1c0,0-0.1,0-0.1-0.1
					c-0.1,0-0.2-0.1-0.3-0.2c0,0-0.1-0.1-0.1-0.1c0,0-0.1-0.1-0.1-0.1c0,0,0,0,0,0c0,0-0.1-0.1-0.1-0.1c-0.1-0.1-0.2-0.2-0.2-0.2
					c0,0-0.1-0.1-0.1-0.1c0,0-0.1-0.1-0.1-0.1c0,0,0,0,0-0.1c0,0,0-0.1-0.1-0.1c0,0,0-0.1-0.1-0.1c0,0-0.1-0.1-0.1-0.1
					c0,0-0.1-0.1-0.1-0.1c0,0-0.1-0.1-0.1-0.1c0,0,0-0.1-0.1-0.1c0-0.1-0.1-0.1-0.1-0.2c0,0,0-0.1-0.1-0.1c0,0,0,0,0-0.1
					c0-0.1,0-0.1-0.1-0.2c0-0.1,0-0.1-0.1-0.2c0,0,0-0.1,0-0.1c0-0.1-0.1-0.2-0.1-0.4c0,0,0,0,0,0c0,0,0-0.1,0-0.1
					c0-0.1,0-0.1,0-0.2c0-0.1,0-0.2,0-0.2c0,0,0-0.1,0-0.2c0,0,0-0.1,0-0.1c0,0,0-0.1,0-0.1c0,0,0-0.1,0-0.1c0,0,0-0.1,0-0.1
					c0-0.1,0-0.1,0-0.2c0,0,0-0.1,0-0.1c0,0,0-0.1,0-0.1c0-0.1,0-0.1,0-0.2c0-0.1,0-0.1,0-0.2c0-0.1,0-0.1,0-0.2c0-0.1,0-0.1,0-0.2
					c0,0,0-0.1,0-0.1c0-0.1,0-0.2,0.1-0.3c0,0,0-0.1,0-0.1c0-0.1,0.1-0.2,0.1-0.3c0,0,0-0.1,0.1-0.1c0,0,0-0.1,0-0.1
					c0-0.1,0.1-0.1,0.1-0.2c0,0,0-0.1,0.1-0.1c0,0,0.1-0.1,0.1-0.1c0.1-0.1,0.1-0.2,0.2-0.3c0,0,0,0,0,0c0,0,0,0,0,0
					c0,0,0.1-0.1,0.1-0.1c0,0,0.1-0.1,0.1-0.1c0,0,0.1-0.1,0.1-0.1c0,0,0.1-0.1,0.1-0.1c0,0,0.1-0.1,0.1-0.1c0,0,0.1,0,0.1-0.1
					c0,0,0.1-0.1,0.1-0.1c0,0,0.1-0.1,0.1-0.1c0,0,0.1-0.1,0.1-0.1c0.1-0.1,0.3-0.2,0.4-0.2c0,0,0.1,0,0.1,0c0,0,0.1,0,0.1,0
					c0,0,0.1,0,0.1,0c0,0,0.1,0,0.1,0c0,0,0.1,0,0.1,0c0,0,0.1,0,0.1,0h0c0,0,0.1,0,0.1,0c0.1,0,0.1,0,0.2,0c0.1,0,0.3,0,0.4,0
					C527.1,73.1,528.3,74.9,528.3,77.1z"/>
			</g>
			<linearGradient id="SVGID_39_" gradientUnits="userSpaceOnUse" x1="527.218" y1="70.058" x2="552.1777" y2="70.058">
				<stop  offset="0.1636" style="stop-color:#ADCFDB"/>
				<stop  offset="0.3789" style="stop-color:#B8D6DE"/>
				<stop  offset="0.757" style="stop-color:#D5EBE9"/>
				<stop  offset="0.8061" style="stop-color:#DAEFEB"/>
			</linearGradient>
			<polygon class="st52" points="552.2,69.2 552.2,71.9 548.4,76.5 527.2,76.5 528.4,63.6 548.4,63.6 			"/>
			<rect x="531.1" y="69.2" class="st48" width="21" height="2.7"/>
			<linearGradient id="SVGID_40_" gradientUnits="userSpaceOnUse" x1="527.4841" y1="66.5551" x2="550.5761" y2="66.5551">
				<stop  offset="1.212120e-02" style="stop-color:#809BC3"/>
				<stop  offset="0.2989" style="stop-color:#A1B8D3"/>
				<stop  offset="0.5884" style="stop-color:#BFD2E1"/>
				<stop  offset="0.8325" style="stop-color:#D2E4E9"/>
				<stop  offset="1" style="stop-color:#D9EBED"/>
			</linearGradient>
			<path class="st53" d="M550.5,68.1c0.1,0.2,0.1,0.4-0.2,0.4h-4.5c-0.3,0-0.3-0.2-0.2-0.4l2.2-3.2c0.1-0.2,0.4-0.2,0.5,0
				L550.5,68.1z M544.2,68.3c0.1,0.2,0.4,0.2,0.5,0l2.2-3.2c0.1-0.2,0-0.4-0.2-0.4h-4.5c-0.3,0-0.3,0.2-0.2,0.4L544.2,68.3z
				 M541.1,64.8c-0.1-0.2-0.4-0.2-0.5,0l-2.2,3.2c-0.1,0.2-0.1,0.4,0.2,0.4h4.5c0.3,0,0.3-0.2,0.2-0.4L541.1,64.8z M537,68.3
				c0.1,0.2,0.4,0.2,0.5,0l2.2-3.2c0.1-0.2,0-0.4-0.2-0.4H535c-0.3,0-0.3,0.2-0.2,0.4L537,68.3z M533.9,64.8c-0.1-0.2-0.4-0.2-0.5,0
				l-2.2,3.2c-0.1,0.2,0,0.4,0.2,0.4h4.5c0.3,0,0.3-0.2,0.2-0.4L533.9,64.8z M529.7,68.3c0.1,0.2,0.4,0.2,0.5,0l2.2-3.2
				c0.1-0.2,0-0.4-0.2-0.4h-4.5c-0.3,0-0.3,0.2-0.2,0.4L529.7,68.3z"/>
			<linearGradient id="SVGID_41_" gradientUnits="userSpaceOnUse" x1="539.6979" y1="76.4843" x2="539.6979" y2="71.8796">
				<stop  offset="1.818180e-02" style="stop-color:#CDA598"/>
				<stop  offset="0.5207" style="stop-color:#BC9C97"/>
				<stop  offset="1" style="stop-color:#A99396"/>
			</linearGradient>
			<polygon class="st54" points="552.2,71.9 548.4,76.5 527.2,76.5 527.6,71.9 			"/>
			<linearGradient id="SVGID_42_" gradientUnits="userSpaceOnUse" x1="527.8401" y1="62.899" x2="546.199" y2="62.899">
				<stop  offset="0.1636" style="stop-color:#ADCFDB"/>
				<stop  offset="0.3789" style="stop-color:#B8D6DE"/>
				<stop  offset="0.757" style="stop-color:#D5EBE9"/>
				<stop  offset="0.8061" style="stop-color:#DAEFEB"/>
			</linearGradient>
			<polygon class="st55" points="527.8,62.2 545.3,62.2 546.2,63.6 528.5,63.6 			"/>
			<polygon class="st48" points="548.8,78 513.3,78 512.4,76.5 548.8,76.5 			"/>
			<linearGradient id="SVGID_43_" gradientUnits="userSpaceOnUse" x1="515.3207" y1="76.4843" x2="515.3207" y2="60.8501">
				<stop  offset="0.1636" style="stop-color:#ADCFDB"/>
				<stop  offset="0.3789" style="stop-color:#B8D6DE"/>
				<stop  offset="0.757" style="stop-color:#D5EBE9"/>
				<stop  offset="0.8061" style="stop-color:#DAEFEB"/>
			</linearGradient>
			<polygon class="st56" points="531.1,69.2 531.1,71.9 527.2,76.5 504.2,76.5 499.5,71.9 499.5,69.2 504.2,60.9 527.2,60.9 			"/>
			<linearGradient id="SVGID_44_" gradientUnits="userSpaceOnUse" x1="515.3214" y1="75.7067" x2="515.3214" y2="61.6269">
				<stop  offset="0" style="stop-color:#BED9E6"/>
				<stop  offset="0.7453" style="stop-color:#9DD3D3"/>
				<stop  offset="1" style="stop-color:#90D1CC"/>
			</linearGradient>
			<path class="st57" d="M501.5,68.4c-0.4,0-0.6-0.3-0.4-0.7l3.1-5.4c0.2-0.4,0.7-0.7,1.2-0.7h12.8c0.4,0,0.8,0.3,0.8,0.8v5.2
				c0,0.4-0.4,0.8-0.8,0.8H501.5z M529.1,68.4c0.4,0,0.6-0.3,0.4-0.7l-2.5-5.4c-0.2-0.4-0.7-0.7-1.1-0.7h-4.7
				c-0.4,0-0.8,0.3-0.8,0.8v5.2c0,0.4,0.3,0.8,0.8,0.8H529.1z M518.1,75.7c0.4,0,0.8-0.3,0.8-0.8v-1.5c0-0.4-0.4-0.8-0.8-0.8h-16
				c-0.4,0-0.5,0.2-0.2,0.5l2,2c0.3,0.3,0.9,0.5,1.3,0.5H518.1z M526,75.7c0.4,0,1-0.3,1.3-0.6l1.6-1.9c0.3-0.3,0.2-0.6-0.3-0.6
				h-7.4c-0.4,0-0.8,0.3-0.8,0.8v1.5c0,0.4,0.3,0.8,0.8,0.8H526z"/>
			<defs>
				<filter id="Adobe_OpacityMaskFilter" filterUnits="userSpaceOnUse" x="521.1" y="62.2" width="5.9" height="1.7">
					<feColorMatrix  type="matrix" values="1 0 0 0 0  0 1 0 0 0  0 0 1 0 0  0 0 0 1 0"/>
				</filter>
			</defs>
			<mask maskUnits="userSpaceOnUse" x="521.1" y="62.2" width="5.9" height="1.7" id="SVGID_45_">
				<g class="st58">
					<defs>
						<filter id="Adobe_OpacityMaskFilter_1_" filterUnits="userSpaceOnUse" x="521.1" y="62.2" width="5.9" height="1.7">
							<feFlood  style="flood-color:white;flood-opacity:1" result="back"/>
							<feBlend  in="SourceGraphic" in2="back" mode="normal"/>
						</filter>
					</defs>
					<mask maskUnits="userSpaceOnUse" x="521.1" y="62.2" width="5.9" height="1.7" id="SVGID_45_">
						<g class="st59">
						</g>
					</mask>
					<linearGradient id="SVGID_46_" gradientUnits="userSpaceOnUse" x1="524.0112" y1="63.8291" x2="524.0112" y2="62.1664">
						<stop  offset="0" style="stop-color:#010101"/>
						<stop  offset="0.1067" style="stop-color:#151515"/>
						<stop  offset="0.3254" style="stop-color:#494949"/>
						<stop  offset="0.6373" style="stop-color:#9C9C9C"/>
						<stop  offset="0.9818" style="stop-color:#FFFFFF"/>
					</linearGradient>
					<path class="st60" d="M527,63.6c-0.5-0.2-1-0.2-1.6-0.2c-0.7,0.1-1.3,0.4-2,0.4c-0.8,0-1.5-0.1-2.3-0.2v-1.3
						c0-0.1,0.1-0.2,0.2-0.2h4.7c0.2,0,0.5,0.2,0.6,0.4L527,63.6z"/>
				</g>
			</mask>
			<path class="st5" d="M527,63.6c-0.5-0.2-1-0.2-1.6-0.2c-0.7,0.1-1.3,0.4-2,0.4c-0.8,0-1.5-0.1-2.3-0.2v-1.3
				c0-0.1,0.1-0.2,0.2-0.2h4.7c0.2,0,0.5,0.2,0.6,0.4L527,63.6z"/>
			<defs>
				<filter id="Adobe_OpacityMaskFilter_2_" filterUnits="userSpaceOnUse" x="503.3" y="62.2" width="15.1" height="3.2">
					<feColorMatrix  type="matrix" values="1 0 0 0 0  0 1 0 0 0  0 0 1 0 0  0 0 0 1 0"/>
				</filter>
			</defs>
			<mask maskUnits="userSpaceOnUse" x="503.3" y="62.2" width="15.1" height="3.2" id="SVGID_47_">
				<g class="st61">
					<defs>
						<filter id="Adobe_OpacityMaskFilter_3_" filterUnits="userSpaceOnUse" x="503.3" y="62.2" width="15.1" height="3.2">
							<feFlood  style="flood-color:white;flood-opacity:1" result="back"/>
							<feBlend  in="SourceGraphic" in2="back" mode="normal"/>
						</filter>
					</defs>
					<mask maskUnits="userSpaceOnUse" x="503.3" y="62.2" width="15.1" height="3.2" id="SVGID_47_">
						<g class="st62">
						</g>
					</mask>
					<linearGradient id="SVGID_48_" gradientUnits="userSpaceOnUse" x1="510.8026" y1="65.3314" x2="510.8026" y2="62.1664">
						<stop  offset="1.212120e-02" style="stop-color:#010101"/>
						<stop  offset="0.1175" style="stop-color:#151515"/>
						<stop  offset="0.3335" style="stop-color:#494949"/>
						<stop  offset="0.6416" style="stop-color:#9C9C9C"/>
						<stop  offset="0.9818" style="stop-color:#FFFFFF"/>
					</linearGradient>
					<path class="st63" d="M518.3,62.4v1.9c-0.5,0.2-1.1,0.3-1.6,0.3c-1,0-1.5-0.3-2.4-0.7c-1.7-0.7-3.3-0.1-5,0.5
						c-2.1,0.9-3.9,1.4-6.1,0.9l1.4-2.6c0.1-0.2,0.4-0.4,0.6-0.4h12.8C518.2,62.2,518.3,62.3,518.3,62.4z"/>
				</g>
			</mask>
			<path class="st5" d="M518.3,62.4v1.9c-0.5,0.2-1.1,0.3-1.6,0.3c-1,0-1.5-0.3-2.4-0.7c-1.7-0.7-3.3-0.1-5,0.5
				c-2.1,0.9-3.9,1.4-6.1,0.9l1.4-2.6c0.1-0.2,0.4-0.4,0.6-0.4h12.8C518.2,62.2,518.3,62.3,518.3,62.4z"/>
			<rect x="499.5" y="69.2" class="st64" width="31.7" height="2.7"/>
			<linearGradient id="SVGID_49_" gradientUnits="userSpaceOnUse" x1="499.4949" y1="74.182" x2="519.7459" y2="74.182">
				<stop  offset="0" style="stop-color:#D9EBED"/>
				<stop  offset="0.1675" style="stop-color:#D2E4E9"/>
				<stop  offset="0.4116" style="stop-color:#BFD2E1"/>
				<stop  offset="0.7011" style="stop-color:#A1B8D3"/>
				<stop  offset="0.9879" style="stop-color:#809BC3"/>
			</linearGradient>
			<polygon class="st65" points="519.7,71.9 519.7,76.5 504.2,76.5 499.5,71.9 			"/>
			<path class="st5" d="M518.9,67.4v0.2c0,0.4-0.4,0.8-0.8,0.8h-16.6c-0.4,0-0.6-0.3-0.4-0.7l0.1-0.2c1.1-0.2,1.4-0.4,2.5-0.1
				c1.2,0.4,2.4,0.1,3.1-0.2c0.8-0.3,1.3-0.4,1.7-0.3c0.3,0.1,1.2-0.2,2.4-0.2c1.2,0,2.2,0.5,3.5,0.8c1.3,0.3,2.6,0.3,2.9,0.1
				C517.6,67.4,518.4,67.4,518.9,67.4z M529.5,67.7l-0.3-0.6c-0.3,0.1-0.6,0.3-1,0.4c-0.5,0.2-1.6-0.4-2.3-0.6
				c-0.7-0.3-2.5,0-3.8,0.4c-0.6,0.2-1.2,0.2-1.7,0.3v0.2c0,0.4,0.3,0.8,0.8,0.8h7.9C529.5,68.4,529.7,68.1,529.5,67.7z"/>
			<linearGradient id="SVGID_50_" gradientUnits="userSpaceOnUse" x1="525.4462" y1="76.4843" x2="525.4462" y2="60.8501">
				<stop  offset="1.212120e-02" style="stop-color:#809BC3"/>
				<stop  offset="0.2989" style="stop-color:#A1B8D3"/>
				<stop  offset="0.5884" style="stop-color:#BFD2E1"/>
				<stop  offset="0.8325" style="stop-color:#D2E4E9"/>
				<stop  offset="1" style="stop-color:#D9EBED"/>
			</linearGradient>
			<polygon class="st66" points="531.1,69.2 531.1,71.9 527.2,76.5 519.7,76.5 519.7,60.9 527.2,60.9 			"/>
			<polygon class="st67" points="531.1,71.9 519.7,71.9 519.7,76.5 527.2,76.5 			"/>
			<linearGradient id="SVGID_51_" gradientUnits="userSpaceOnUse" x1="530.3216" y1="74.7005" x2="530.3216" y2="63.6316">
				<stop  offset="0" style="stop-color:#A99396"/>
				<stop  offset="4.751559e-02" style="stop-color:#AC9697"/>
				<stop  offset="0.6722" style="stop-color:#D8C0A4"/>
				<stop  offset="0.9818" style="stop-color:#EBD2A9"/>
			</linearGradient>
			<polygon class="st68" points="529.1,63.6 532.1,69.2 532.1,71.9 531.3,74.7 529.8,73.5 531.1,71.9 531.1,69.2 528.5,63.6 			"/>
			<g>
				<g>
					<path class="st69" d="M550.1,72.8c-0.1,0-0.3,0-0.4,0c-0.9,0-1.8,0.5-2.4,1.4c-0.5,0.8-0.9,1.8-0.9,2.9c0,1.1,0.3,2.2,0.9,2.9
						c0.6,0.8,1.4,1.4,2.4,1.4c0.1,0,0.3,0,0.5,0c1.6-0.3,2.8-2.1,2.8-4.3C553,74.9,551.7,73.1,550.1,72.8z M550,80.8
						c-0.1,0-0.2,0-0.3,0c-0.7,0-1.4-0.4-1.9-1.1c-0.5-0.7-0.8-1.6-0.8-2.6c0-1,0.3-1.9,0.8-2.6c0.5-0.7,1.2-1.1,1.9-1.1
						c0.1,0,0.2,0,0.3,0c1.3,0.2,2.4,1.8,2.4,3.7C552.4,78.9,551.4,80.5,550,80.8z"/>
				</g>
				<g>
					<path class="st70" d="M552.4,77.1c0,1.9-1,3.4-2.3,3.7c-0.1,0-0.2,0-0.3,0c-0.7,0-1.4-0.4-1.9-1.1c-0.5-0.7-0.8-1.6-0.8-2.6
						c0-1,0.3-1.9,0.8-2.6c0.5-0.7,1.2-1.1,1.9-1.1c0.1,0,0.2,0,0.3,0C551.4,73.6,552.4,75.2,552.4,77.1z"/>
				</g>
				<g>
					<path class="st49" d="M552.4,77.1c0,1.9-1,3.4-2.3,3.7c-0.1,0-0.2,0-0.3,0c-0.3,0-0.7-0.1-1-0.2c-0.4-0.2-0.7-0.5-0.9-0.9
						c-0.5-0.7-0.8-1.6-0.8-2.6c0-1,0.3-1.9,0.8-2.6c0.3-0.4,0.6-0.7,0.9-0.9c0.3-0.2,0.6-0.3,1-0.3c0.1,0,0.2,0,0.3,0
						C551.4,73.6,552.4,75.2,552.4,77.1z"/>
				</g>
				<g>
					<path class="st48" d="M551.4,77.1c0,1.7-0.9,3.2-2.2,3.4c-0.1,0-0.2,0-0.3,0c-0.1,0-0.1,0-0.2,0c-0.4-0.2-0.7-0.5-0.9-0.9
						c-0.5-0.7-0.8-1.6-0.8-2.6c0-1,0.3-1.9,0.8-2.6c0.3-0.4,0.6-0.7,0.9-0.9c0.1,0,0.1,0,0.2,0c0.1,0,0.2,0,0.3,0
						C550.5,73.8,551.4,75.3,551.4,77.1z"/>
				</g>
				<g>
					<path class="st49" d="M548.8,78.3c-0.2,0-0.4-0.1-0.6-0.4c-0.2-0.2-0.2-0.5-0.2-0.8c0-0.3,0.1-0.6,0.2-0.8
						c0.2-0.2,0.4-0.4,0.6-0.4c0,0,0.1,0,0.1,0c0.4,0.1,0.8,0.6,0.8,1.2c0,0.6-0.3,1.1-0.7,1.2C548.8,78.3,548.8,78.3,548.8,78.3z"
						/>
				</g>
				<g>
					<path class="st49" d="M550.2,81.3c-1.6,0.3-4.3,0.3-5.6,0c0,0-0.1,0-0.1,0c-0.2,0-0.3-0.1-0.5-0.2c-0.2-0.1-0.4-0.2-0.5-0.3
						c-0.1-0.1-0.2-0.1-0.2-0.2c-0.1-0.1-0.2-0.2-0.3-0.3c-0.1-0.1-0.1-0.2-0.2-0.2c-0.1-0.1-0.2-0.2-0.2-0.4
						c-0.1-0.1-0.1-0.2-0.2-0.3c-0.1-0.1-0.1-0.3-0.2-0.4c0-0.1-0.1-0.2-0.1-0.3c0-0.2-0.1-0.3-0.1-0.5c0-0.1,0-0.2-0.1-0.4
						c0-0.2,0-0.4-0.1-0.6c0-0.1,0-0.1,0-0.2c0-0.1,0-0.1,0-0.2c0-0.2,0-0.4,0.1-0.6c0-0.1,0-0.2,0.1-0.4c0-0.2,0.1-0.3,0.1-0.5
						c0-0.1,0.1-0.2,0.1-0.3c0.1-0.1,0.1-0.3,0.2-0.4c0-0.1,0.1-0.2,0.2-0.3c0.1-0.1,0.2-0.2,0.2-0.4c0.1-0.1,0.1-0.2,0.2-0.2
						c0.1-0.1,0.2-0.2,0.3-0.3c0.1-0.1,0.2-0.1,0.2-0.2c0.2-0.1,0.4-0.2,0.5-0.3c0.2-0.1,0.3-0.1,0.5-0.2c0.1,0,0.1,0,0.2,0
						c0,0,0,0,0,0c1.3-0.3,3.9-0.3,5.5,0c-0.1,0-0.3,0-0.4,0c-0.2,0-0.3,0-0.5,0.1c-0.2,0-0.3,0.1-0.5,0.2c-0.2,0.1-0.4,0.2-0.5,0.3
						c-0.1,0.1-0.2,0.1-0.2,0.2c-0.1,0.1-0.2,0.2-0.3,0.3c-0.1,0.1-0.1,0.2-0.2,0.2c0,0-0.1,0.1-0.1,0.1c-0.1,0.1-0.1,0.2-0.2,0.3
						c-0.1,0.1-0.1,0.2-0.2,0.3c-0.1,0.1-0.1,0.3-0.2,0.4c0,0.1-0.1,0.2-0.1,0.3c-0.1,0.2-0.1,0.3-0.1,0.5c0,0.1,0,0.2-0.1,0.4
						c0,0.2,0,0.4-0.1,0.6c0,0.1,0,0.1,0,0.2c0,0.1,0,0.1,0,0.2c0,0.2,0,0.4,0.1,0.6c0,0.1,0,0.2,0.1,0.4c0,0.2,0.1,0.3,0.1,0.5
						c0,0.1,0.1,0.2,0.1,0.3c0.1,0.1,0.1,0.3,0.2,0.4c0,0.1,0.1,0.2,0.1,0.3c0.1,0.1,0.1,0.2,0.2,0.3c0,0,0,0.1,0.1,0.1
						c0.1,0.1,0.1,0.2,0.2,0.2c0.1,0.1,0.2,0.2,0.3,0.3c0.1,0.1,0.2,0.1,0.3,0.2c0.2,0.1,0.3,0.2,0.5,0.3c0.2,0.1,0.3,0.1,0.5,0.2
						c0.2,0,0.4,0.1,0.5,0.1C549.9,81.4,550,81.4,550.2,81.3z"/>
				</g>
			</g>
			<g>
				<g>
					<path class="st69" d="M540.5,72.8c-0.1,0-0.3,0-0.4,0c-0.9,0-1.8,0.5-2.4,1.4c-0.5,0.8-0.9,1.8-0.9,2.9c0,1.1,0.3,2.2,0.9,2.9
						c0.6,0.8,1.4,1.4,2.4,1.4c0.1,0,0.3,0,0.5,0c1.6-0.3,2.8-2.1,2.8-4.3C543.4,74.9,542.1,73.1,540.5,72.8z M540.5,80.8
						c-0.1,0-0.2,0-0.3,0c-0.7,0-1.4-0.4-1.9-1.1c-0.5-0.7-0.8-1.6-0.8-2.6c0-1,0.3-1.9,0.8-2.6c0.5-0.7,1.2-1.1,1.9-1.1
						c0.1,0,0.2,0,0.3,0c1.3,0.2,2.4,1.8,2.4,3.7C542.8,78.9,541.8,80.5,540.5,80.8z"/>
				</g>
				<g>
					<path class="st70" d="M542.8,77.1c0,1.9-1,3.4-2.3,3.7c-0.1,0-0.2,0-0.3,0c-0.7,0-1.4-0.4-1.9-1.1c-0.5-0.7-0.8-1.6-0.8-2.6
						c0-1,0.3-1.9,0.8-2.6c0.5-0.7,1.2-1.1,1.9-1.1c0.1,0,0.2,0,0.3,0C541.8,73.6,542.8,75.2,542.8,77.1z"/>
				</g>
				<g>
					<path class="st49" d="M542.8,77.1c0,1.9-1,3.4-2.3,3.7c-0.1,0-0.2,0-0.3,0c-0.3,0-0.7-0.1-1-0.2c-0.4-0.2-0.7-0.5-0.9-0.9
						c-0.5-0.7-0.8-1.6-0.8-2.6c0-1,0.3-1.9,0.8-2.6c0.3-0.4,0.6-0.7,0.9-0.9c0.3-0.2,0.6-0.3,1-0.3c0.1,0,0.2,0,0.3,0
						C541.8,73.6,542.8,75.2,542.8,77.1z"/>
				</g>
				<g>
					<path class="st48" d="M541.9,77.1c0,1.7-0.9,3.2-2.2,3.4c-0.1,0-0.2,0-0.3,0c-0.1,0-0.1,0-0.2,0c-0.4-0.2-0.7-0.5-0.9-0.9
						c-0.5-0.7-0.8-1.6-0.8-2.6c0-1,0.3-1.9,0.8-2.6c0.3-0.4,0.6-0.7,0.9-0.9c0.1,0,0.1,0,0.2,0c0.1,0,0.2,0,0.3,0
						C540.9,73.8,541.9,75.3,541.9,77.1z"/>
				</g>
				<g>
					<path class="st49" d="M539.2,78.3c-0.2,0-0.4-0.1-0.6-0.4c-0.2-0.2-0.2-0.5-0.2-0.8c0-0.3,0.1-0.6,0.2-0.8
						c0.2-0.2,0.4-0.4,0.6-0.4c0,0,0.1,0,0.1,0c0.4,0.1,0.8,0.6,0.8,1.2c0,0.6-0.3,1.1-0.7,1.2C539.2,78.3,539.2,78.3,539.2,78.3z"
						/>
				</g>
				<g>
					<path class="st49" d="M540.6,81.3c-1.6,0.3-4.3,0.3-5.6,0c0,0-0.1,0-0.1,0c-0.2,0-0.3-0.1-0.5-0.2c-0.2-0.1-0.4-0.2-0.5-0.3
						c-0.1-0.1-0.2-0.1-0.2-0.2c-0.1-0.1-0.2-0.2-0.3-0.3c-0.1-0.1-0.1-0.2-0.2-0.2c-0.1-0.1-0.2-0.2-0.2-0.4
						c-0.1-0.1-0.1-0.2-0.2-0.3c-0.1-0.1-0.1-0.3-0.2-0.4c0-0.1-0.1-0.2-0.1-0.3c0-0.2-0.1-0.3-0.1-0.5c0-0.1,0-0.2-0.1-0.4
						c0-0.2,0-0.4-0.1-0.6c0-0.1,0-0.1,0-0.2c0-0.1,0-0.1,0-0.2c0-0.2,0-0.4,0.1-0.6c0-0.1,0-0.2,0.1-0.4c0-0.2,0.1-0.3,0.1-0.5
						c0-0.1,0.1-0.2,0.1-0.3c0.1-0.1,0.1-0.3,0.2-0.4c0.1-0.1,0.1-0.2,0.2-0.3c0.1-0.1,0.2-0.2,0.2-0.4c0.1-0.1,0.1-0.2,0.2-0.2
						c0.1-0.1,0.2-0.2,0.3-0.3c0.1-0.1,0.2-0.1,0.2-0.2c0.2-0.1,0.4-0.2,0.6-0.3c0.2-0.1,0.3-0.1,0.5-0.2c0.1,0,0.1,0,0.2,0
						c0,0,0,0,0,0c1.3-0.3,3.9-0.3,5.5,0c-0.1,0-0.3,0-0.4,0c-0.2,0-0.3,0-0.5,0.1c-0.2,0-0.3,0.1-0.5,0.2c-0.2,0.1-0.4,0.2-0.5,0.3
						c-0.1,0.1-0.2,0.1-0.2,0.2c-0.1,0.1-0.2,0.2-0.3,0.3c-0.1,0.1-0.1,0.2-0.2,0.2c0,0-0.1,0.1-0.1,0.1c-0.1,0.1-0.1,0.2-0.2,0.3
						c-0.1,0.1-0.1,0.2-0.2,0.3c-0.1,0.1-0.1,0.3-0.2,0.4c0,0.1-0.1,0.2-0.1,0.3c-0.1,0.2-0.1,0.3-0.1,0.5c0,0.1,0,0.2-0.1,0.4
						c0,0.2,0,0.4,0,0.6c0,0.1,0,0.1,0,0.2c0,0.1,0,0.1,0,0.2c0,0.2,0,0.4,0,0.6c0,0.1,0,0.2,0.1,0.4c0,0.2,0.1,0.3,0.1,0.5
						c0,0.1,0.1,0.2,0.1,0.3c0.1,0.1,0.1,0.3,0.2,0.4c0,0.1,0.1,0.2,0.1,0.3c0.1,0.1,0.1,0.2,0.2,0.3c0,0,0,0.1,0.1,0.1
						c0.1,0.1,0.1,0.2,0.2,0.2c0.1,0.1,0.2,0.2,0.3,0.3c0.1,0.1,0.2,0.1,0.3,0.2c0.2,0.1,0.3,0.2,0.5,0.3c0.2,0.1,0.3,0.1,0.5,0.2
						c0.2,0,0.4,0.1,0.5,0.1C540.3,81.4,540.4,81.4,540.6,81.3z"/>
				</g>
			</g>
			<g>
				<g>
					<path class="st69" d="M530.9,72.8c-0.1,0-0.3,0-0.4,0c-0.9,0-1.8,0.5-2.4,1.4c-0.5,0.8-0.9,1.8-0.9,2.9c0,1.1,0.3,2.2,0.9,2.9
						c0.6,0.8,1.4,1.4,2.4,1.4c0.1,0,0.3,0,0.5,0c1.6-0.3,2.8-2.1,2.8-4.3C533.8,74.9,532.5,73.1,530.9,72.8z M530.9,80.8
						c-0.1,0-0.2,0-0.3,0c-0.7,0-1.4-0.4-1.9-1.1c-0.5-0.7-0.8-1.6-0.8-2.6c0-1,0.3-1.9,0.8-2.6c0.5-0.7,1.2-1.1,1.9-1.1
						c0.1,0,0.2,0,0.3,0c1.3,0.2,2.4,1.8,2.4,3.7C533.2,78.9,532.2,80.5,530.9,80.8z"/>
				</g>
				<g>
					<path class="st70" d="M533.2,77.1c0,1.9-1,3.4-2.3,3.7c-0.1,0-0.2,0-0.3,0c-0.7,0-1.4-0.4-1.9-1.1c-0.5-0.7-0.8-1.6-0.8-2.6
						c0-1,0.3-1.9,0.8-2.6c0.5-0.7,1.2-1.1,1.9-1.1c0.1,0,0.2,0,0.3,0C532.2,73.6,533.2,75.2,533.2,77.1z"/>
				</g>
				<g>
					<path class="st49" d="M533.2,77.1c0,1.9-1,3.4-2.3,3.7c-0.1,0-0.2,0-0.3,0c-0.3,0-0.7-0.1-1-0.2c-0.4-0.2-0.7-0.5-0.9-0.9
						c-0.5-0.7-0.8-1.6-0.8-2.6c0-1,0.3-1.9,0.8-2.6c0.3-0.4,0.6-0.7,0.9-0.9c0.3-0.2,0.6-0.3,1-0.3c0.1,0,0.2,0,0.3,0
						C532.2,73.6,533.2,75.2,533.2,77.1z"/>
				</g>
				<g>
					<path class="st48" d="M532.3,77.1c0,1.7-0.9,3.2-2.2,3.4c-0.1,0-0.2,0-0.3,0c-0.1,0-0.1,0-0.2,0c-0.4-0.2-0.7-0.5-0.9-0.9
						c-0.5-0.7-0.8-1.6-0.8-2.6c0-1,0.3-1.9,0.8-2.6c0.3-0.4,0.6-0.7,0.9-0.9c0.1,0,0.1,0,0.2,0c0.1,0,0.2,0,0.3,0
						C531.3,73.8,532.3,75.3,532.3,77.1z"/>
				</g>
				<g>
					<path class="st49" d="M529.6,78.3c-0.2,0-0.4-0.1-0.6-0.4c-0.2-0.2-0.2-0.5-0.2-0.8c0-0.3,0.1-0.6,0.2-0.8
						c0.2-0.2,0.4-0.4,0.6-0.4c0,0,0.1,0,0.1,0c0.4,0.1,0.8,0.6,0.8,1.2c0,0.6-0.3,1.1-0.7,1.2C529.6,78.3,529.6,78.3,529.6,78.3z"
						/>
				</g>
				<g>
					<path class="st49" d="M531,81.3c-1.6,0.3-4.3,0.3-5.6,0c0,0-0.1,0-0.1,0c-0.2,0-0.3-0.1-0.5-0.2c-0.2-0.1-0.4-0.2-0.5-0.3
						c-0.1-0.1-0.2-0.1-0.2-0.2c-0.1-0.1-0.2-0.2-0.3-0.3c-0.1-0.1-0.1-0.2-0.2-0.2c-0.1-0.1-0.2-0.2-0.2-0.4
						c-0.1-0.1-0.1-0.2-0.2-0.3c-0.1-0.1-0.1-0.3-0.2-0.4c0-0.1-0.1-0.2-0.1-0.3c0-0.2-0.1-0.3-0.1-0.5c0-0.1,0-0.2-0.1-0.4
						c0-0.2,0-0.4-0.1-0.6c0-0.1,0-0.1,0-0.2c0-0.1,0-0.1,0-0.2c0-0.2,0-0.4,0.1-0.6c0-0.1,0-0.2,0.1-0.4c0-0.2,0.1-0.3,0.1-0.5
						c0-0.1,0.1-0.2,0.1-0.3c0.1-0.1,0.1-0.3,0.2-0.4c0-0.1,0.1-0.2,0.2-0.3c0.1-0.1,0.2-0.2,0.2-0.4c0.1-0.1,0.1-0.2,0.2-0.2
						c0.1-0.1,0.2-0.2,0.3-0.3c0.1-0.1,0.2-0.1,0.2-0.2c0.2-0.1,0.4-0.2,0.6-0.3c0.2-0.1,0.3-0.1,0.5-0.2c0.1,0,0.1,0,0.2,0
						c0,0,0,0,0,0c1.3-0.3,3.9-0.3,5.5,0c-0.1,0-0.3,0-0.4,0c-0.2,0-0.3,0-0.5,0.1c-0.2,0-0.3,0.1-0.5,0.2c-0.2,0.1-0.4,0.2-0.5,0.3
						c-0.1,0.1-0.2,0.1-0.2,0.2c-0.1,0.1-0.2,0.2-0.3,0.3c-0.1,0.1-0.1,0.2-0.2,0.2c0,0-0.1,0.1-0.1,0.1c-0.1,0.1-0.1,0.2-0.2,0.3
						c-0.1,0.1-0.1,0.2-0.2,0.3c-0.1,0.1-0.1,0.3-0.2,0.4c0,0.1-0.1,0.2-0.1,0.3c-0.1,0.2-0.1,0.3-0.1,0.5c0,0.1,0,0.2-0.1,0.4
						c0,0.2,0,0.4,0,0.6c0,0.1,0,0.1,0,0.2c0,0.1,0,0.1,0,0.2c0,0.2,0,0.4,0,0.6c0,0.1,0,0.2,0.1,0.4c0,0.2,0.1,0.3,0.1,0.5
						c0,0.1,0.1,0.2,0.1,0.3c0.1,0.1,0.1,0.3,0.2,0.4c0,0.1,0.1,0.2,0.1,0.3c0.1,0.1,0.1,0.2,0.2,0.3c0,0,0,0.1,0.1,0.1
						c0.1,0.1,0.1,0.2,0.2,0.2c0.1,0.1,0.2,0.2,0.3,0.3c0.1,0.1,0.2,0.1,0.3,0.2c0.2,0.1,0.3,0.2,0.5,0.3c0.2,0.1,0.3,0.1,0.5,0.2
						c0.2,0,0.4,0.1,0.5,0.1C530.7,81.4,530.8,81.4,531,81.3z"/>
				</g>
			</g>
			<g>
				<path class="st5" d="M520.3,59.5c0-0.5-0.2-1-0.5-1.3c-0.8-0.7-2.1-0.4-3,0.6c-0.2,0.2-0.3,0.4-0.4,0.6c0,0,0,0,0,0H516
					c-0.2,0-0.4,0.2-0.4,0.4c-0.1-0.2-0.2-0.4-0.4-0.4h-0.4c-0.2,0-0.4,0.2-0.4,0.4c-0.1-0.2-0.2-0.4-0.4-0.4h-0.4
					c-0.3,0-0.5,0.3-0.5,0.6c0,0.3,0.2,0.5,0.4,0.6v0.3h0.5v-0.3c0.2,0,0.3-0.2,0.4-0.4c0.1,0.2,0.2,0.4,0.4,0.4v0.3h0.5v-0.3
					c0.2,0,0.3-0.2,0.4-0.4c0.1,0.2,0.2,0.4,0.4,0.4v0.3h0.2h0.3h0.7h0.5h2.2c0.1-0.2,0.2-0.4,0.3-0.6l0.2,0v0.5h1.3v-0.5l1.8-0.5
					v-0.3H520.3z"/>
				<path class="st5" d="M510.5,59.4h-0.4c-0.2,0-0.4,0.2-0.4,0.4c-0.1-0.2-0.2-0.4-0.4-0.4h-0.4c-0.2,0-0.4,0.2-0.4,0.4
					c-0.1-0.2-0.2-0.4-0.4-0.4h-0.4c-0.2,0-0.4,0.2-0.4,0.4c-0.1-0.2-0.2-0.4-0.4-0.4h-0.4c-0.3,0-0.5,0.3-0.5,0.6
					c0,0.3,0.2,0.5,0.4,0.6v0.3h0.5v-0.3c0.2,0,0.3-0.2,0.3-0.4c0.1,0.2,0.2,0.3,0.4,0.4v0.3h0.5v-0.3c0.2,0,0.3-0.2,0.4-0.4
					c0.1,0.2,0.2,0.4,0.4,0.4v0.3h0.6v-0.3c0.2,0,0.3-0.2,0.3-0.4c0.1,0.2,0.2,0.4,0.4,0.4v0.3h0.6v-0.3c0.2-0.1,0.4-0.3,0.4-0.5
					C511,59.6,510.8,59.4,510.5,59.4z"/>
			</g>
		</g>
		<linearGradient id="SVGID_52_" gradientUnits="userSpaceOnUse" x1="526.2264" y1="81.5827" x2="526.2264" y2="61.9705">
			<stop  offset="1.212120e-02" style="stop-color:#809BC3"/>
			<stop  offset="0.2059" style="stop-color:#8AA4C9"/>
			<stop  offset="0.5601" style="stop-color:#A7BFD9"/>
			<stop  offset="1" style="stop-color:#D7EFF4"/>
		</linearGradient>
		<path class="st71" d="M551.1,73.2l0.2-0.3v-3.2l-2.9-4.7h-2.7l-1.4-1.4h-15.9l-0.7-1.5l-0.1-0.2h-22.9l-5.4,7.8v2.1l4.7,4.6h1
			c0,0.1,0,0.3,0,0.4v0.4c0,0.2,0,0.4,0.1,0.6c0,0.1,0,0.2,0.1,0.3c0,0.2,0.1,0.3,0.1,0.5c0,0.1,0.1,0.2,0.1,0.3
			c0.1,0.1,0.1,0.3,0.2,0.4c0.1,0.1,0.1,0.2,0.2,0.3c0.1,0.1,0.2,0.2,0.2,0.4c0.1,0.1,0.1,0.2,0.2,0.2c0.1,0.1,0.2,0.2,0.3,0.3
			c0.1,0.1,0.2,0.1,0.3,0.2c0.2,0.1,0.4,0.2,0.5,0.3c0.2,0.1,0.3,0.1,0.5,0.2c0.1,0,0.1,0,0.1,0c1.3,0.3,4,0.3,5.6,0
			c1.4-0.3,2.5-1.6,2.7-3.4h1.5c0,0.1,0,0.2,0.1,0.3c0,0.2,0.1,0.3,0.1,0.5c0,0.1,0.1,0.2,0.1,0.3c0.1,0.1,0.1,0.3,0.2,0.4
			c0.1,0.1,0.1,0.2,0.2,0.3c0.1,0.1,0.2,0.2,0.2,0.4c0.1,0.1,0.1,0.2,0.2,0.2c0.1,0.1,0.2,0.2,0.3,0.3c0.1,0.1,0.1,0.1,0.2,0.2
			c0.2,0.1,0.3,0.2,0.5,0.3c0.2,0.1,0.3,0.1,0.5,0.2c0.1,0,0.1,0,0.2,0c1.1,0.2,3.5,0.3,5.1,0.1c1.4,0.2,3.7,0.2,5.2-0.1
			c0.6-0.1,1.1-0.4,1.6-0.9c0.1,0.1,0.2,0.2,0.3,0.3c0.1,0.1,0.2,0.1,0.2,0.2c0.2,0.1,0.4,0.2,0.5,0.3c0.2,0.1,0.3,0.1,0.5,0.2
			c0,0,0.1,0,0.1,0c0.8,0.2,2,0.2,3.2,0.2c1.1,0,2.3-0.1,3.1-0.2c0.8-0.1,1.4-0.7,1.9-1.4c0,0,0.1,0.1,0.1,0.1
			c0.1,0.1,0.1,0.2,0.2,0.2c0.1,0.1,0.2,0.2,0.3,0.3c0.1,0.1,0.2,0.1,0.2,0.2c0.2,0.1,0.4,0.2,0.6,0.3c0.2,0.1,0.3,0.1,0.5,0.2
			c0,0,0.1,0,0.1,0c1.3,0.3,4,0.3,5.6,0c1.6-0.3,2.8-2.1,2.8-4.3C553,75.4,552.2,73.9,551.1,73.2z M528.4,80.3
			c-0.1-0.1-0.1-0.1-0.2-0.2c0.1,0.1,0.2,0.3,0.3,0.4C528.5,80.4,528.4,80.4,528.4,80.3z M528.7,80.7
			C528.7,80.7,528.7,80.6,528.7,80.7c0.1,0,0.2,0.1,0.3,0.2C528.9,80.8,528.8,80.7,528.7,80.7z M530,81.3
			C530,81.3,529.9,81.3,530,81.3C529.9,81.3,530,81.3,530,81.3C530,81.3,530,81.3,530,81.3z M546.8,79c0-0.1-0.1-0.2-0.1-0.3
			c0.1,0.2,0.1,0.3,0.2,0.5C546.9,79.2,546.8,79.1,546.8,79z M547.9,80.7C547.9,80.7,547.9,80.6,547.9,80.7c0,0,0.2,0.1,0.3,0.2
			C548.1,80.8,548,80.7,547.9,80.7z M549.2,81.3C549.1,81.3,549.1,81.3,549.2,81.3c0,0,0.1,0,0.2,0
			C549.3,81.3,549.2,81.3,549.2,81.3z"/>
	</g>
	<linearGradient id="SVGID_53_" gradientUnits="userSpaceOnUse" x1="-3.7874" y1="58.3683" x2="127.9536" y2="98.6455">
		<stop  offset="0" style="stop-color:#B4C4E5"/>
		<stop  offset="0.3525" style="stop-color:#B7C9E4"/>
		<stop  offset="0.8687" style="stop-color:#C0D9E7"/>
		<stop  offset="1" style="stop-color:#C3DEE8"/>
	</linearGradient>
	<polygon class="st72" points="0.1,93 78.5,80.8 73.1,70.3 135.8,73.1 104.4,58 51.1,49 63.8,55.7 9.1,43.7 12.7,51.2 0.1,45.6 	"/>
</g>
</svg>
