<svg id="Layer_1" data-name="Layer 1" xmlns="http://www.w3.org/2000/svg" viewBox="0 0 153.64 153.1"><defs><style>.cls-1{fill:#99b5bb;}.cls-2{fill:#48516c;}.cls-3{fill:#b44b34;}.cls-4{fill:#a8c0bc;}.cls-5{fill:#94aba8;}.cls-6{fill:#ef5227;}.cls-7{fill:#f48422;}.cls-8{fill:#ffcf13;}.cls-9{fill:#a5b4bc;}.cls-10{fill:#b7c1c8;}.cls-11{fill:#665d73;}.cls-12{fill:#658793;}.cls-13{fill:#6087b0;}.cls-14{fill:#647b87;}.cls-15{fill:#516470;}.cls-16{fill:#aec8c4;}.cls-17{fill:#97afac;}.cls-18{fill:#abb9b8;}.cls-19{fill:#6893ad;}.cls-20{fill:#4e7185;}.cls-21{fill:#94a2a0;}.cls-22{fill:#6e8183;}.cls-23{fill:#636e8f;}</style></defs><title>Artboard 1</title><path class="cls-1" d="M89.86,92.89s8.67,3,10.65,3.56,4.54.21,5.33-4.93,1.74-19.88.51-28.79-4.52-16.68-6.95-16.18-9.07,2.15-9.07,2.15L95.22,75Z"/><path class="cls-2" d="M75.7,121.6a2.7,2.7,0,0,1,1.88.09c.94.44,3.54,2.82,2.75,4.8s-7.55,7.54-9.61,8.7-3.29.85-4.36-.69-1.22-3,.66-5.67A23.67,23.67,0,0,1,71.85,124C71.94,124,75.7,121.6,75.7,121.6Z"/><path class="cls-3" d="M49.39,80.35c.18-.07,3.69-3.26,3.13-4.08s-11.47,0-11.47,0Z"/><path class="cls-3" d="M40.12,100s-2.7,6.26-3.51,6.07S30.34,96,30.34,96Z"/><path class="cls-2" d="M61.92,116.74a18.91,18.91,0,0,1,2.19,3.14c.63,1.31.44,1.94-1.13,2.94s-8.83,5.7-10,4.07-1.32-2.88.5-5.13,5.7-4.08,5.7-4.08Z"/><path class="cls-4" d="M79,86.17c-.19.07-12.84,2.45-19.61,6.83a15.94,15.94,0,0,0-6.33,18.29,29.86,29.86,0,0,0,4.7,8.77A7.21,7.21,0,0,0,61.16,119c1.72-1,.94-2.07.32-3.26s-6.39-7.77-1.82-14.28,14-7.83,17.54-8.65,4.26-1.38,4.26-1.38Z"/><path class="cls-5" d="M75.71,88a7.84,7.84,0,0,0,.64,2.46c.15.38.29.77.45,1.16.09.2.3.51.15.72a.08.08,0,0,1-.11,0,1.92,1.92,0,0,1-.36-.73c-.16-.39-.29-.8-.43-1.2A7.2,7.2,0,0,1,75.56,88C75.56,87.93,75.71,87.94,75.71,88Z"/><path class="cls-5" d="M73.25,88.45a.09.09,0,0,1,.17,0A7.78,7.78,0,0,0,74,91c.15.39.32.78.47,1.17a1.93,1.93,0,0,1,.2,1c0,.07-.12.07-.15,0a6.28,6.28,0,0,1-.43-1c-.15-.4-.31-.78-.45-1.17A7.16,7.16,0,0,1,73.25,88.45Z"/><path class="cls-5" d="M71,89c0-.06.12,0,.11,0a2.81,2.81,0,0,0,.08,1.15,6.46,6.46,0,0,0,.34,1.16c.16.38.32.76.49,1.13a2.68,2.68,0,0,1,.33,1.05c0,.09-.1.12-.16.07a1,1,0,0,1-.25-.45c-.09-.24-.2-.48-.3-.72-.17-.4-.35-.8-.49-1.21A5.06,5.06,0,0,1,70.87,90,2,2,0,0,1,71,89Z"/><path class="cls-5" d="M68.63,89.89a.08.08,0,0,1,.15,0,19.7,19.7,0,0,0,.54,2.27c.11.37.22.72.35,1.08a3.12,3.12,0,0,1,.3.8.1.1,0,0,1-.13.1c-.24-.06-.34-.38-.43-.61s-.27-.77-.38-1.17A6.19,6.19,0,0,1,68.63,89.89Z"/><path class="cls-5" d="M66.4,90.49a.09.09,0,0,1,.18,0,10.53,10.53,0,0,0,.4,2.1c.1.33.22.66.35,1a5.64,5.64,0,0,1,.4,1.06c0,.1-.11.21-.19.11a3.1,3.1,0,0,1-.44-.87,11,11,0,0,1-.38-1.1A6.35,6.35,0,0,1,66.4,90.49Z"/><path class="cls-5" d="M64.19,92c.21.5.36,1,.53,1.54s.45,1.13.63,1.71c0,.06-.08.13-.12.07a4.87,4.87,0,0,1-.73-1.48A13.61,13.61,0,0,1,64,92.06C64,92,64.14,91.89,64.19,92Z"/><path class="cls-5" d="M52.84,109.38a2.74,2.74,0,0,1,1.1-.31l1.31-.24a13.69,13.69,0,0,0,2.36-.63c.08,0,.16.1.09.15a5.1,5.1,0,0,1-2.15.77c-.46.1-.93.2-1.4.28a3,3,0,0,1-1.26.15A.1.1,0,0,1,52.84,109.38Z"/><path class="cls-5" d="M52.93,106.52a5.55,5.55,0,0,1,1.07-.17c.41,0,.81-.11,1.21-.18.78-.13,1.56-.28,2.34-.39.1,0,.11.14,0,.16a21.89,21.89,0,0,1-2.39.58c-.38.07-.75.12-1.13.17a3.25,3.25,0,0,1-1.12,0A.1.1,0,0,1,52.93,106.52Z"/><path class="cls-5" d="M54,112.22a4.57,4.57,0,0,1,1-.35c.4-.11.8-.24,1.19-.37a5.53,5.53,0,0,0,1.94-.93c.07-.07.17,0,.1.11a4,4,0,0,1-1.73,1.07c-.39.15-.78.28-1.19.4a3.61,3.61,0,0,1-1.26.24C54,112.38,54,112.26,54,112.22Z"/><path class="cls-5" d="M55.51,114.77a7.86,7.86,0,0,1,.84-.36,9.18,9.18,0,0,0,1.06-.49,15.48,15.48,0,0,0,1.85-1.16c.09-.07.17.07.11.14a5.89,5.89,0,0,1-1.79,1.33,4.26,4.26,0,0,1-2,.7C55.47,114.92,55.43,114.81,55.51,114.77Z"/><path class="cls-5" d="M56.63,117.27a4.23,4.23,0,0,1,.92-.34,7,7,0,0,0,1.07-.5c.32-.17.63-.35.94-.53l.49-.3a1.5,1.5,0,0,1,.44-.26c.08,0,.15.07.11.13a5,5,0,0,1-1.86,1.36,3.15,3.15,0,0,1-2.09.61A.09.09,0,0,1,56.63,117.27Z"/><path class="cls-3" d="M102.13,129.34s-.81,11-.62,11.65,8.83,7.58,8.58,8.14-14.66-7.52-15.54-8.08-1.19-2.51-1.56-6.89-.82-9-.82-9Z"/><path class="cls-3" d="M111.66,110.29s5.26-3.88,6.26-4.07,14.1,2.88,14.35,2.69-12.78-8.5-14.54-9.35a6.54,6.54,0,0,0-5.7.46c-1.5.87-9.71,5.32-9.71,5.32Z"/><path class="cls-6" d="M119.49,118.44c.19-.07,7.33-2.26,13,.62s4.95,6.39,8.52,12.41a22.15,22.15,0,0,0,8.77,8.39s-14.66,1.75-23.87-2.32-9.9-10.46-9.9-10.46Z"/><path class="cls-7" d="M119.61,119.75s6.39-2.44,10.21,1.44,3.64,8.27,5.7,11.47a8.79,8.79,0,0,0,5.27,3.63c-.25,0-11.8,1.09-17.71-3s-5.28-6.84-5.28-6.84Z"/><path class="cls-8" d="M119.55,122.69s3.82-.87,5.89,1.57,2.32,4.64,3.44,5.83a10.93,10.93,0,0,0,2.07,1.75s-4.95.94-8.39-1.94-3.7-4.7-3.7-4.7Z"/><path class="cls-9" d="M113,119.44l6.81,2.13a7.13,7.13,0,0,0,1.54-4c.21-2.53-1-3.2-2.88-3.61s-5.13-1-5.13-1Z"/><path class="cls-9" d="M109.84,123.74l6.51,4.57a4.1,4.1,0,0,1-2.92,2.78c-2.55.83-3.38-.08-4.51-1.21s-2.8-3.09-2.8-3.09Z"/><path class="cls-10" d="M109.46,125c.09.13,6.54,5,7.49,4.8a5.7,5.7,0,0,0,4.12-4.17c.79-3-.33-4.74-1.29-5.12S112.6,118,112.6,118l-2.68,6.22Z"/><path class="cls-11" d="M5.85,70.14c1.56-2.51,24.49-.51,26.37.12a11.46,11.46,0,0,1,1.08.48,7.55,7.55,0,0,1,.3,3.47A30.42,30.42,0,0,1,29,87.3,11.26,11.26,0,0,1,22,92.69c-.37.08-.73.15-1.1.2-.35-.21-.63-.38-.84-.52C13.55,88.11,4.28,72.64,5.85,70.14Z"/><path class="cls-12" d="M29,87.3A30.42,30.42,0,0,0,33.6,74.21a7.55,7.55,0,0,0-.3-3.47c4.36,2.08,19.06,10,26.78,13.68,8.62,4.07,53.25,24.66,54.21,25.56s2.82,6.07-1.32,12.78-9.15,8.57-10,8.65c-2.06.19-71.62-32.54-82-38.52.37,0,.73-.12,1.1-.2A11.26,11.26,0,0,0,29,87.3Z"/><path class="cls-13" d="M79,103.44a2.23,2.23,0,0,0,.4-.35l.22-.19.06,0a.13.13,0,0,1,0-.06,9.23,9.23,0,0,1,1-.86c.28-.25.51-.57.78-.84a5.94,5.94,0,0,1,1-.74,16.79,16.79,0,0,1,2.46-1.07,10.76,10.76,0,0,1,2.3-.78c.43-.06.66.17,1,.37a6.16,6.16,0,0,0,1.16.55l1.13.42a14,14,0,0,1,1.37.62c1.77.87,3.56,1.7,5.28,2.66,1.41.78,2.79,1.61,4.21,2.36s3,1.54,4.57,2.29l2.29,1.13c.77.38,1.56.73,2.3,1.16a20,20,0,0,0,2.21,1.14c.3.14.69.27,1,.45a.42.42,0,0,1,.8.15c0,.69,0,1.38,0,2.06a8.58,8.58,0,0,1,0,1.68,1.85,1.85,0,0,1-.71,1.4c-.63.44-1.55.14-2.22,0-.87-.21-1.76-.41-2.62-.65a23.05,23.05,0,0,1-2.71-1c-.92-.39-1.82-.76-2.75-1.09s-1.88-.7-2.81-1.08a112.38,112.38,0,0,0-11.23-4.22,34.51,34.51,0,0,1-5.36-2.07c-.84-.41-1.63-.86-2.43-1.33a25.73,25.73,0,0,0-2.38-1.11,4.77,4.77,0,0,1-.44-.24A.43.43,0,0,1,79,103.44Z"/><path class="cls-13" d="M35,78.51c0-.69,0-1.4,0-2.09a10.15,10.15,0,0,1,0-1.91c0-.29.38-.34.6-.25.41.18.8.39,1.2.59s.87.37,1.32.55c.92.37,1.83.75,2.75,1.14,1.86.79,3.71,1.64,5.52,2.55s3.66,1.72,5.45,2.66c.92.47,1.78,1,2.67,1.58s1.76,1,2.65,1.53C60,86.39,63,87.68,65.81,89.15c.71.37,1.4.76,2.11,1.12s1.43.67,2.14,1l1.07.5c.34.17.68.39,1,.54a8.89,8.89,0,0,1,1.45.88v0a.52.52,0,0,1,.19-.11c.42-.23.94.32.53.65l-.06.05c0,.09-.09.18-.14.27l-.28.54a11.16,11.16,0,0,1-.73,1.11,5.05,5.05,0,0,1-1.94,1.67,2,2,0,0,1-1.1.2,4.9,4.9,0,0,1-1.24-.36C68,96.77,67,96.39,66.1,96s-1.85-.74-2.79-1-1.86-.58-2.78-.89a42.38,42.38,0,0,1-5.33-2.26c-1.74-.86-3.44-1.8-5.14-2.73s-3.67-1.86-5.49-2.81c-.85-.44-1.69-.88-2.52-1.36a17.21,17.21,0,0,0-2.64-1.25c-.45-.16-.89-.33-1.32-.52s-.58-.29-.88-.41a6.91,6.91,0,0,1-1.73-.89A1.61,1.61,0,0,1,35,80.5C35,79.84,35,79.18,35,78.51Z"/><path class="cls-14" d="M123,45s1.42-.33,1.25-1.33a1.55,1.55,0,0,0-.92-1.26s4.3-2.75,4-7.22-3.21-6.31-6.39-6.35-3.34,2-2.29,4.43,1,4.17.25,5.09a3.54,3.54,0,0,1-1.88,1.13s.71-2.8-.71-3.63-3.76,1.12-2.93,3.55a10.67,10.67,0,0,0,3.3,4.26,1.22,1.22,0,0,0-.21,1.88c.92,1.12,2.26.58,3.43.2S123,45,123,45Z"/><path class="cls-15" d="M117.13,43.58a.54.54,0,0,1,.31-.2c.18-.06.35-.16.53-.23a13.43,13.43,0,0,1,1.55-.52,11.3,11.3,0,0,1,3.22-.36c.1,0,.1.14,0,.14a20.68,20.68,0,0,0-3,.55,9.62,9.62,0,0,0-2.38.89.16.16,0,0,1-.21-.05v0A.19.19,0,0,1,117.13,43.58Z"/><path class="cls-16" d="M122.81,43.87a4.78,4.78,0,0,0-2.44.27,5.84,5.84,0,0,0-1.76,1.17A14.85,14.85,0,0,1,121,52.62a7.13,7.13,0,0,1-8.77,7.1,28,28,0,0,1-13.15-7.15c-2.59-2.79-5.77-5.26-9-4.8S77.78,49.4,74.18,51.7s-2.72,4.67-3.43,9-1,10-5.9,15.24-9.54,6.16-9.54,6.16L59.22,84l2.66,1.25s6.28-2.45,9-6a41.07,41.07,0,0,0,5.82-12.79,43.27,43.27,0,0,0,.56-4.85,115.66,115.66,0,0,1,2.48,13.87A17.41,17.41,0,0,1,78,85.26c-.84,1.91.54,4.92.54,4.92s-9,2.71-14.11,6.69-6.87,8.24-4.42,13.38,7.13,10.28,9.22,12.76,3.17,4,5.36,2.94,3.35-2.94,2.29-4.16S69.46,115,68,111.7s-1.91-5.64,1.29-8.21S76.64,99.14,82.62,98s11.84-2.25,14.91-7.52,2.66-8.83,3.1-13.72a39.58,39.58,0,0,0-1.28-12.87,33.21,33.21,0,0,0-1.6-4.1s5.67,5.17,13.28,5.48,14.69-2.88,15.38-9.18S123.2,43.91,122.81,43.87Z"/><path class="cls-17" d="M66.56,75a14.77,14.77,0,0,1,2.36,1.55c.37.33.76.64,1.12,1,.19.17.38.33.56.51a5.45,5.45,0,0,1,.37.47.13.13,0,0,1-.16.21c-.16-.07-.18-.21-.29-.33l-.51-.5-1.12-1a18.81,18.81,0,0,0-2.41-1.76A.08.08,0,0,1,66.56,75Z"/><path class="cls-17" d="M63.55,77.75a11.37,11.37,0,0,1,2.51,1.6c.41.35.78.73,1.15,1.11.19.18.39.36.56.55s.32.27.37.46-.09.2-.18.14a8.79,8.79,0,0,1-.88-.85c-.38-.38-.75-.76-1.15-1.12s-.78-.63-1.19-.93c-.21-.15-.43-.3-.65-.43s-.39-.3-.61-.41S63.47,77.71,63.55,77.75Z"/><path class="cls-17" d="M60.55,80.21A12.53,12.53,0,0,1,62.26,82c.25.3.49.61.72.92s.43.73.67,1.09c.1.15-.12.29-.24.18a3.58,3.58,0,0,1-.59-.93c-.24-.36-.51-.71-.78-1s-.56-.62-.81-.95a6.78,6.78,0,0,0-.79-.91C60.37,80.28,60.47,80.15,60.55,80.21Z"/><path class="cls-17" d="M57.5,81.85a5.63,5.63,0,0,1,.65.81,2.85,2.85,0,0,1,.52.82c0,.08-.08.18-.16.12a3,3,0,0,1-.54-.72c-.22-.3-.39-.62-.61-.92C57.3,81.88,57.43,81.78,57.5,81.85Z"/><path class="cls-17" d="M68.35,71.45v0s0-.07.07-.07a.92.92,0,0,1,.43.08,6.72,6.72,0,0,1,.85.32c.56.22,1.11.46,1.66.7a12.71,12.71,0,0,1,1.58.87c.22.13.41.29.63.44a.51.51,0,0,1,.22.3c0,.08-.1.15-.14.06s-.3-.2-.4-.28a6,6,0,0,0-.64-.38,11.71,11.71,0,0,0-1.41-.72l-1.59-.66c-.25-.1-.5-.2-.76-.28a1.6,1.6,0,0,1-.47-.19A.16.16,0,0,1,68.35,71.45Z"/><path class="cls-17" d="M69.9,67.57a7.14,7.14,0,0,1,1.5.43c.52.17,1,.31,1.54.52a11.3,11.3,0,0,1,1.36.65l.66.38a3,3,0,0,1,.58.34.09.09,0,0,1-.06.15,2.79,2.79,0,0,1-1.15-.49,15.48,15.48,0,0,0-1.48-.71c-.47-.19-.95-.31-1.43-.47a9.26,9.26,0,0,0-1.56-.44C69.66,67.9,69.7,67.55,69.9,67.57Z"/><path class="cls-17" d="M70.72,63.92a30.34,30.34,0,0,1,3,.63c.51.1,1,.19,1.53.3a3.8,3.8,0,0,1,1.39.54c.06,0,0,.18-.05.17-.45-.06-.87-.27-1.31-.36s-1.1-.21-1.65-.31-1-.22-1.56-.35a6.09,6.09,0,0,0-.85-.17,1.15,1.15,0,0,1-.57-.14C70.51,64.15,70.54,63.91,70.72,63.92Z"/><path class="cls-17" d="M71.44,60.93c.06,0,.28,0,.36.07l.49.08c.51.09,1,.14,1.53.19a25.62,25.62,0,0,1,2.88.42c.16,0,.09.25-.06.23-.55-.08-1.11-.06-1.65-.14s-1.1-.12-1.65-.17-.91-.12-1.37-.2c-.23,0-.61-.06-.78-.23A.18.18,0,0,1,71.44,60.93Z"/><path class="cls-17" d="M71.76,57.78a3.71,3.71,0,0,1,1.44.09c.59.09,1.18.24,1.78.29.13,0,.14.21,0,.21a9.47,9.47,0,0,1-1.5-.19c-.3-.06-.6-.09-.9-.13a2.8,2.8,0,0,1-.82-.11C71.69,57.91,71.67,57.8,71.76,57.78Z"/><path class="cls-17" d="M104.74,63c0-.28,0-.56.06-.84a8.27,8.27,0,0,1,.45-1.76c.1-.25.22-.5.32-.76a1.79,1.79,0,0,1,.32-.61,4.45,4.45,0,0,1,1-.93.08.08,0,1,1,.09.14,2.27,2.27,0,0,0-.29.4c-.16.2-.34.39-.49.6a2.37,2.37,0,0,0-.3.69c-.07.23-.18.45-.27.68a8.28,8.28,0,0,0-.39,1.54,13.84,13.84,0,0,1-.14,1.58.18.18,0,0,1-.34,0A2.56,2.56,0,0,1,104.74,63Z"/><path class="cls-17" d="M101.09,62a3.71,3.71,0,0,0,.18-.73c.06-.27.14-.53.22-.79.15-.53.35-1.06.55-1.57a4,4,0,0,1,2.22-2.08c.08,0,.16.09.07.13a5.06,5.06,0,0,0-1.2,1,3.34,3.34,0,0,0-.85,1.36c-.17.49-.33,1-.48,1.49l-.18.69a2.47,2.47,0,0,1-.19.72A.19.19,0,0,1,101.09,62Z"/><path class="cls-17" d="M97.4,58.46a5.22,5.22,0,0,1,.28-.75,5.41,5.41,0,0,1,.73-1.36,4.59,4.59,0,0,1,1.08-1,6.77,6.77,0,0,1,1.49-.64c.09,0,.15.1.07.15-.4.22-.82.42-1.21.67a4.42,4.42,0,0,0-1.12,1.08,4.2,4.2,0,0,0-.65,1.24c-.08.22-.18.42-.25.65s-.12.46-.2.69a.19.19,0,0,1-.37,0A2.45,2.45,0,0,1,97.4,58.46Z"/><path class="cls-17" d="M94.67,55.19a6,6,0,0,1,.41-1.32A4.58,4.58,0,0,1,96.84,52c.07,0,.13.06.06.1A5.59,5.59,0,0,0,95.44,54a4.31,4.31,0,0,0-.37,1.22c-.08.4-.07.82-.16,1.22a.17.17,0,0,1-.33,0A2.93,2.93,0,0,1,94.67,55.19Z"/><path class="cls-17" d="M109.06,60.29a1.42,1.42,0,0,1,.74-1c.09,0,.16.07.08.12-.35.2-.43.78-.52,1.14a6.48,6.48,0,0,0-.17,1.58,7.12,7.12,0,0,0,.17,1.67c0,.19,0,.38.07.57a4.81,4.81,0,0,0,.25.51.16.16,0,0,1-.15.2c-.43,0-.53-.61-.56-.94s-.12-.62-.14-.93,0-.72,0-1.08A6.64,6.64,0,0,1,109.06,60.29Z"/><path class="cls-17" d="M112.67,60.25s.15,0,.12.07a1.09,1.09,0,0,0,0,.44c0,.26.06.52.1.77.09.45.1.91.19,1.36a4.52,4.52,0,0,0,.42,1.13,3.61,3.61,0,0,0,.51.78c.07.09,0,.27-.11.26-.33,0-.5-.39-.63-.65a5.2,5.2,0,0,1-.52-1.3c-.1-.55-.15-1.1-.2-1.65C112.52,61.12,112.39,60.51,112.67,60.25Z"/><path class="cls-17" d="M116.22,59.82c0-.06.16,0,.16,0a3.16,3.16,0,0,0,.25,1.21,11.31,11.31,0,0,0,.46,1.27,7.25,7.25,0,0,0,.61,1.09c.08.11.14.23.21.34s.19.15.24.26a.12.12,0,0,1,0,.14c-.38.41-1.21-1.35-1.31-1.55a9.47,9.47,0,0,1-.54-1.46C116.16,60.73,115.92,60.23,116.22,59.82Z"/><path class="cls-17" d="M118.85,58.39a.13.13,0,0,1,.26,0,7,7,0,0,0,1.15,2.53,3.57,3.57,0,0,0,1.13.74,6.35,6.35,0,0,0,1.35.47.1.1,0,0,1,0,.18,2.78,2.78,0,0,1-1.38-.32,4.4,4.4,0,0,1-1.26-.77,3.56,3.56,0,0,1-.82-1.27c-.11-.26-.18-.53-.27-.79A1.84,1.84,0,0,1,118.85,58.39Z"/><path class="cls-17" d="M120.37,55.84a.14.14,0,0,1,.24,0,2.17,2.17,0,0,0,.26.53,5.4,5.4,0,0,0,.42.41,7.41,7.41,0,0,0,1.28,1,5,5,0,0,0,1.39.55,6.1,6.1,0,0,0,1.7.21c.09,0,.09.14,0,.14-.3,0-.6,0-.9,0a3.74,3.74,0,0,1-.87-.13,4.89,4.89,0,0,1-1.57-.59,9.57,9.57,0,0,1-1.41-1.13C120.65,56.65,120.17,56.25,120.37,55.84Z"/><path class="cls-17" d="M121.4,53.89c.4,0,.79-.09,1.19-.09s1,0,1.49.08a6.28,6.28,0,0,1,2.43.53c.08.05,0,.16-.07.13a4,4,0,0,0-1.25-.21c-.41,0-.81-.09-1.22-.12s-.84,0-1.26-.05-.84.08-1.25.06a.17.17,0,0,1-.16-.12V54A.11.11,0,0,1,121.4,53.89Z"/><path class="cls-17" d="M121.37,51c.14,0,.29-.13.41-.2a1.57,1.57,0,0,1,.42-.13,7.48,7.48,0,0,1,1-.2,16.56,16.56,0,0,1,2.44-.14c.08,0,.07.11,0,.12-.78,0-1.55.24-2.33.35a9.3,9.3,0,0,0-1.17.23c-.28.08-.53.33-.82.32A.18.18,0,0,1,121.37,51Z"/><path class="cls-17" d="M120.54,47.67a13,13,0,0,1,1.22-.5,5.64,5.64,0,0,1,1.35-.19,9.66,9.66,0,0,1,1.42,0,.08.08,0,1,1,0,.15c-.38,0-.76.11-1.14.17s-.87.07-1.3.17a5,5,0,0,0-1.13.45l-.38.17c-.12.06-.2.19-.34.21a.12.12,0,0,1-.14-.08C120,47.91,120.34,47.75,120.54,47.67Z"/><path class="cls-17" d="M82.15,89.87c1.68-.16,3.15,1.37,3.73,2.81a6.07,6.07,0,0,1,.48,2.62,5.08,5.08,0,0,1-.18,1.29,1.44,1.44,0,0,1-.73.85.15.15,0,0,1-.19-.19c.1-.32.41-.54.53-.87a4.31,4.31,0,0,0,.14-1.19A4.71,4.71,0,0,0,85.8,94a6.71,6.71,0,0,0-.27-1.07A4.26,4.26,0,0,0,82.13,90C82.06,90,82.08,89.87,82.15,89.87Z"/><path class="cls-17" d="M79.52,90.68A10.72,10.72,0,0,1,81.12,92a5.07,5.07,0,0,1,1,1.89,6.75,6.75,0,0,1,.38,2.18,4.42,4.42,0,0,1,0,1,1.63,1.63,0,0,1-.29.84c-.1.09-.29,0-.24-.14A6,6,0,0,0,81.76,94a5.6,5.6,0,0,0-.86-1.77,8.91,8.91,0,0,0-1.45-1.43C79.38,90.75,79.45,90.63,79.52,90.68Z"/><path class="cls-17" d="M75.47,92c1.35.22,2.12,1.5,2.64,2.64a11,11,0,0,1,.76,2.08c.11.42.14.85.21,1.27a1.27,1.27,0,0,1-.08.84.19.19,0,0,1-.34-.19,1.52,1.52,0,0,0,0-.87,2.49,2.49,0,0,1,0-.47,3.36,3.36,0,0,0-.15-.7,12.44,12.44,0,0,0-.66-1.76,4.67,4.67,0,0,0-2.35-2.66A.09.09,0,0,1,75.47,92Z"/><path class="cls-17" d="M71.75,93.53a5.81,5.81,0,0,1,3.07,2.36,6.24,6.24,0,0,1,.83,1.77,2.64,2.64,0,0,1,.14,1.77c0,.07-.16,0-.13-.06a.9.9,0,0,0,0-.36,3.12,3.12,0,0,0-.08-.52c-.07-.29-.16-.57-.25-.85A6.21,6.21,0,0,0,74.45,96a6.75,6.75,0,0,0-1.25-1.31c-.48-.39-1.1-.55-1.55-1A.1.1,0,0,1,71.75,93.53Z"/><path class="cls-17" d="M68.12,95.24a1.56,1.56,0,0,1,.85.09,4.74,4.74,0,0,1,1,.42,5.56,5.56,0,0,1,1.64,1.37,8.61,8.61,0,0,1,.72,1,6.39,6.39,0,0,1,.42,1,3.37,3.37,0,0,1,.29,1.12,1.13,1.13,0,0,1-.13.75c-.06.08-.18,0-.16-.06a3.13,3.13,0,0,0-.38-1.82,5.72,5.72,0,0,0-.42-1,7.54,7.54,0,0,0-.69-.89,5.46,5.46,0,0,0-1.4-1.18,5,5,0,0,0-.84-.41,4.28,4.28,0,0,1-.88-.27A.11.11,0,0,1,68.12,95.24Z"/><path class="cls-17" d="M65,97a4,4,0,0,1,1.79.59,4.3,4.3,0,0,1,1.57,1.3,10.51,10.51,0,0,1,1.16,1.93c.13.31.26.62.37.93s.18.51,0,.69-.19,0-.16-.06-.08-.28-.1-.35-.13-.29-.19-.44-.24-.53-.37-.79a12.28,12.28,0,0,0-1-1.62A4.21,4.21,0,0,0,66.61,98a7.71,7.71,0,0,0-.82-.39,8.51,8.51,0,0,1-.83-.34A.11.11,0,0,1,65,97Z"/><path class="cls-17" d="M61.7,100.28a2.92,2.92,0,0,1,1.69.49c.59.35,1.21.63,1.78,1a12.35,12.35,0,0,1,1.52,1.29,4.54,4.54,0,0,1,.59.71,1.49,1.49,0,0,1,.36.77c0,.09-.12.11-.16,0a9.82,9.82,0,0,0-2.59-2.55c-.51-.34-1.06-.6-1.6-.9a5.8,5.8,0,0,0-.82-.43,3.93,3.93,0,0,1-.83-.23A.11.11,0,0,1,61.7,100.28Z"/><path class="cls-17" d="M59.42,106c.27.06.53.11.79.19a6.07,6.07,0,0,0,.94.13,15.83,15.83,0,0,0,2,.12c.59,0,1.17,0,1.76-.08s1.21-.25,1.82-.31c.11,0,.12.13,0,.19a4.23,4.23,0,0,1-1.71.5,13.65,13.65,0,0,1-1.92.11,14.3,14.3,0,0,1-2.07-.14,4.77,4.77,0,0,1-.92-.15,3.24,3.24,0,0,1-.81-.28A.15.15,0,0,1,59.42,106Z"/><path class="cls-17" d="M60.66,110.68a13.27,13.27,0,0,1,1.54-.1,8,8,0,0,0,1.73-.38,14.13,14.13,0,0,0,1.53-.58,3.28,3.28,0,0,0,.75-.53,1.71,1.71,0,0,1,.48-.33.06.06,0,0,1,.06.1,3.78,3.78,0,0,0-.22.33,1.8,1.8,0,0,1-.26.29,2.92,2.92,0,0,1-.63.46,10.15,10.15,0,0,1-1.61.63,6.57,6.57,0,0,1-3.37.33C60.56,110.88,60.56,110.71,60.66,110.68Z"/><path class="cls-17" d="M63,114.73a4.64,4.64,0,0,1,.65,0,3.26,3.26,0,0,0,.76-.12,5.7,5.7,0,0,0,1.44-.66,3.2,3.2,0,0,0,1.13-1,9.25,9.25,0,0,0,.72-1.4.08.08,0,0,1,.15,0,2.63,2.63,0,0,1-.49,1.49,3,3,0,0,1-1.12,1.15,4.58,4.58,0,0,1-3.24.92A.18.18,0,0,1,63,114.73Z"/><path class="cls-17" d="M65.19,118.06a1.13,1.13,0,0,1,.44-.1,3.85,3.85,0,0,0,.75-.16,4,4,0,0,0,1.34-.89,6.81,6.81,0,0,0,1.74-2.47.07.07,0,0,1,.13,0,5.44,5.44,0,0,1-.16.64,4.31,4.31,0,0,1-.33.64A6.09,6.09,0,0,1,68,117.07a5.06,5.06,0,0,1-1.34,1,4.35,4.35,0,0,1-1.43.3C65.12,118.35,65.08,118.13,65.19,118.06Z"/><path class="cls-17" d="M68.14,121.17a1.28,1.28,0,0,1,.49-.29,3.41,3.41,0,0,0,.57-.36,2.59,2.59,0,0,0,.61-.58c.12-.17.23-.35.36-.52.3-.39.77-.65.88-1.16s.24-1,.4-1.54a.08.08,0,0,1,.16,0,4,4,0,0,1-.21,1.74c-.11.57-.71.91-1,1.35a4.83,4.83,0,0,1-.51.68,5,5,0,0,1-.72.56c-.22.16-.52.22-.73.4a.19.19,0,0,1-.3,0A.18.18,0,0,1,68.14,121.17Z"/><path class="cls-17" d="M70.15,123.43a4.44,4.44,0,0,0,1.38-.43,7.25,7.25,0,0,0,1.35-.84,3.6,3.6,0,0,0,1-1,6.2,6.2,0,0,0,.49-1.51.07.07,0,0,1,.13,0,2.49,2.49,0,0,1-.22,1.49,1.85,1.85,0,0,1-.41.64,5.83,5.83,0,0,1-.56.55,12.7,12.7,0,0,1-1.59,1,4.62,4.62,0,0,1-1.58.49C69.89,123.86,69.89,123.45,70.15,123.43Z"/><path class="cls-17" d="M74,91.94A2.16,2.16,0,0,1,75,91.3l1.42-.61a13.5,13.5,0,0,1,1.79-.62c0-.14-.1-.28-.14-.42a8.92,8.92,0,0,1-.25-1,9.76,9.76,0,0,1-.13-2c0-.08.12-.08.13,0a12.2,12.2,0,0,0,.42,2.15c.08.32.2.62.31.93,0,.08.09.17.12.26l.81-.17c1-.2,2.08-.39,3.12-.56a14,14,0,0,1,1.58-.09c.27,0,.54,0,.81,0s.54.08.81.11a.09.09,0,0,1,0,.17l-1.51.09c-.52,0-1.06,0-1.58.11s-1,.19-1.41.3l-1.57.34a24.71,24.71,0,0,0-2.91.83c-.46.16-.9.37-1.36.53s-.82.39-1.24.53C74.06,92.15,74,92,74,91.94Z"/><path class="cls-17" d="M94.71,56.8a5.41,5.41,0,0,1,1,.93l1.14,1c.37.34.74.67,1.1,1s.79.65,1.11,1c0,0,0,.12-.06.09a14.33,14.33,0,0,1-2.26-1.86c-.42-.36-.82-.74-1.23-1.11a3.18,3.18,0,0,1-.93-1.07C94.59,56.81,94.67,56.77,94.71,56.8Z"/><path class="cls-17" d="M75.51,56.42a16.67,16.67,0,0,1,.81,1.95c.24.66.49,1.34.69,2,.11.35.26.69.37,1.05s.21.77.29,1.16c.18.76.36,1.55.48,2.32,0,.12-.15.21-.21.09a3.42,3.42,0,0,1-.29-.94c-.09-.38-.18-.76-.25-1.14a13.23,13.23,0,0,0-.62-2.26c-.11-.3-.18-.6-.29-.9a8.64,8.64,0,0,1-.32-1c-.09-.37-.24-.73-.37-1.1s-.25-.79-.41-1.17A.07.07,0,0,1,75.51,56.42Z"/><path class="cls-2" d="M100.74,85.06c.12-.37,1-.59-1.63-1s-20.68-4.17-20.76-3.85-.88,2.62-.33,2.87,21.75,4,22,3.89S100.74,85.06,100.74,85.06Z"/><path class="cls-18" d="M66.15,99.77c.86-.59.13-1.92-1.46-2.55s-2.54-.33-3.84.9A12.94,12.94,0,0,0,58,102.94c-.29,1.13-.2,1.88,1.22,2.42s2.17.57,3-.76A30.13,30.13,0,0,1,66.15,99.77Z"/><path class="cls-19" d="M90.58,63.92c-.35-1.3-.35-2.29-3.42-2a25.77,25.77,0,0,0-6.58,1.32c-.81.38-.62,1-.18,2.76s1.53,8.46,1.84,9.49S83,76.52,86,76.69s5.84.12,6.06-.92S90.58,63.92,90.58,63.92Z"/><path class="cls-20" d="M88.41,63.92,89,68.6a9.45,9.45,0,0,1-1.66-.22c0-.09-.44-4.46-.44-4.46Z"/><polygon class="cls-20" points="85.63 66.03 85.63 64.56 81.05 65.08 81.65 66.47 85.63 66.03"/><polygon class="cls-20" points="86.35 70.48 86.19 69.04 82.31 69.31 82.56 70.74 86.35 70.48"/><polygon class="cls-20" points="86.54 74.33 86.35 73.11 82.93 73.11 83.34 74.46 86.54 74.33"/><polygon class="cls-20" points="88.1 74.77 89.86 74.46 89.01 70.54 87.6 70.54 88.1 74.77"/><path class="cls-14" d="M90.5,47.1s.71,1.8.4,2.3-2.57,2.21-7.37,2.8-7.77.25-8.15-1.42a30,30,0,0,1-.5-3.93Z"/><path class="cls-18" d="M88.91,48.65c2,0,6.27-1.63,6.56-5.14S96,31.23,96.93,24.13s2.55-11.9,0-15a9.79,9.79,0,0,0-6-3.51s-11.82.5-11.73.42a22,22,0,0,0-9.07,1.88c-3.92,1.92-2.84,8.1-2.54,12.82s-.31,14.41-.36,17.08S67.12,47.14,70.62,48,85.48,48.69,88.91,48.65Z"/><path class="cls-21" d="M94.35,31.27c1,.44,1.42-1,1.5-2.63s-.75-3.34-1.5-2.59S93.05,30.69,94.35,31.27Z"/><path class="cls-16" d="M91,5.59s-3.63,0-4.68.83-1.16,2.89-2.42,3.1-9.31,1-9.31,0,.88-3.93,2.8-4.22,12.36-.71,12.94-.63S91,5.59,91,5.59Z"/><path class="cls-22" d="M69.37,16.91c2.22-.26,14.41-1,17.46-.8s5,.09,5.93,3.14-.13,9.23-.34,13.19-2,5.22-4.63,5.93-13,.05-16.25,0-5.05-.12-5-1,1.09-1.46,1.09-1.46l.54-16.29s-1.59.42-1.59-.88S68.33,17,69.37,16.91Z"/><path class="cls-2" d="M67.24,19.2s-.12,5.56-.25,9.9a74.69,74.69,0,0,0,.13,7.52s5.51.29,11.52.29,10,.29,11.07-1.46,1.71-10.27,1.54-13.16-1.16-4.3-3.71-4.38-13.66.29-15.75.5A41.77,41.77,0,0,0,67.24,19.2Z"/><path class="cls-23" d="M68.87,22a3.72,3.72,0,0,1,1.93-1.42,22.83,22.83,0,0,1,2.86-.66c1-.19,1.91-.34,2.87-.45a27.36,27.36,0,0,1,3-.24c1,0,2,.09,2.94.15a20.51,20.51,0,0,1,2.6.32c1.08.21,2.55.47,3,1.62a3.86,3.86,0,0,1,0,2.28,4.88,4.88,0,0,1-1.13,2.1c-1.25,1.3-3.29,1.53-5,1.59a43.81,43.81,0,0,1-5-.19l-.58.13a7.56,7.56,0,0,1-2.88.15,9.83,9.83,0,0,0-1.32-.13,6.45,6.45,0,0,1-1.46-.13A3,3,0,0,1,69,26a3.61,3.61,0,0,1-.6-1.94A3.37,3.37,0,0,1,68.87,22Z"/><path class="cls-23" d="M10.61,70.52a.17.17,0,0,1,.16-.21h.07a.36.36,0,0,1,.18,0h.16a13.49,13.49,0,0,1,2.53.2l1.44.22c.52.07,1,.1,1.55.12,2,.09,4,.1,5.95.09a42.81,42.81,0,0,1,5.66.25c.83.1,1.64.27,2.47.36a2,2,0,0,1,1,.29,1.09,1.09,0,0,1,.43,1,5.92,5.92,0,0,1-.19,1,8.83,8.83,0,0,1-.46,1.43c-.34.85-.86,1.64-1.16,2.5a1.94,1.94,0,0,1-.64.95,1.66,1.66,0,0,1-1.16.12,5.47,5.47,0,0,1-1.05-.3c-.35-.13-.71-.22-1.06-.36-1.74-.68-3.38-1.59-5.1-2.34-.9-.4-1.84-.73-2.75-1.1s-1.83-.73-2.77-1.05c-1.1-.37-2.16-.82-3.25-1.22a9.67,9.67,0,0,1-1.28-.55,3,3,0,0,1-.51-.36.82.82,0,0,1-.26-.71A.5.5,0,0,1,10.61,70.52Z"/><path class="cls-9" d="M81.57,117.05a2,2,0,1,0-3.63-1.57,1.94,1.94,0,0,0-.14.51h0a1.36,1.36,0,0,0,0,.2.08.08,0,0,0,0,.07l.49.22a.09.09,0,0,0,.12-.08.66.66,0,0,1,0-.14h0a1.22,1.22,0,0,1,.11-.52A1.32,1.32,0,1,1,81,116.79a1.37,1.37,0,0,1-.3.44h0l-.11.09s0,.1,0,.13l.5.22a.1.1,0,0,0,.09,0l.13-.15h0A2.07,2.07,0,0,0,81.57,117.05Z"/><path class="cls-9" d="M82.87,114.74a2.51,2.51,0,0,0-3.3,1.31,3.08,3.08,0,0,0-.18.62h0l0,.2a.09.09,0,0,0,0,.08l.49.21a.08.08,0,0,0,.11-.07v-.15h0a1.81,1.81,0,0,1,.15-.63,1.86,1.86,0,1,1,3.06,2h0l-.11.11a.07.07,0,0,0,0,.12l.5.22a.08.08,0,0,0,.08,0,1,1,0,0,0,.13-.16h0a2.5,2.5,0,0,0-1-3.85Z"/><path class="cls-9" d="M83.88,115.9a2.22,2.22,0,1,0-4.08-1.76,1.07,1.07,0,0,0-.07.19l.6.26a1.07,1.07,0,0,1,.07-.19,1.57,1.57,0,1,1,2.89,1.24.3.3,0,0,0,0,.08h0a1.55,1.55,0,0,1-.63.66.08.08,0,0,0,0,.15l.52.23a.1.1,0,0,0,.09,0,2.32,2.32,0,0,0,.61-.77h0Z"/><path class="cls-9" d="M86,117l.71-1.65.67.28a.54.54,0,1,1-.43,1l-.46-.2-.28.66Zm1.47-.74a.33.33,0,0,0-.2-.45l-.43-.19-.27.63.43.18A.33.33,0,0,0,87.46,116.26Z"/><path class="cls-9" d="M88,116.1a.15.15,0,0,1,.18-.08.14.14,0,0,1,.07.18.14.14,0,0,1-.18.07A.12.12,0,0,1,88,116.1Zm-.61,1.5.51-1.19.19.08-.52,1.19Z"/><path class="cls-9" d="M88.25,118l0-1.41.2.09,0,1.15.82-.81.2.09-1,1Z"/><path class="cls-9" d="M89.26,117.7a.63.63,0,0,1,.86-.37.64.64,0,0,1,.33.88.65.65,0,1,1-1.19-.51Zm1,.42a.43.43,0,1,0-.79-.34.43.43,0,1,0,.79.34Z"/><path class="cls-9" d="M90.59,118.68l.33-.78-.19-.09.07-.16.19.09.15-.33.18.08-.14.33.24.1-.07.16-.24-.1-.32.74c0,.09,0,.17.06.21a.17.17,0,0,0,.14,0v.16a.31.31,0,0,1-.26,0A.26.26,0,0,1,90.59,118.68Z"/><path class="cls-9" d="M91.89,119.54l.06-.14a.55.55,0,0,1-.47,0,.44.44,0,0,1-.24-.58.42.42,0,0,1,.58-.21.54.54,0,0,1,.33.33l.09-.21a.28.28,0,0,0-.19-.38.52.52,0,0,0-.44,0l0-.16a.65.65,0,0,1,.56,0,.43.43,0,0,1,.29.6l-.35.82Zm.11-.25.1-.23a.46.46,0,0,0-.27-.29.28.28,0,1,0-.22.52A.44.44,0,0,0,92,119.29Z"/><path class="cls-9" d="M92.41,119.76l.71-1.65.18.08-.71,1.65Z"/><path class="cls-9" d="M85.23,118.48a.91.91,0,0,1,1.24-.48.83.83,0,0,1,.52.7l-.37,0a.5.5,0,0,0-.28-.41.56.56,0,0,0-.75.32.55.55,0,0,0,.28.76.45.45,0,0,0,.49-.07l.24.28a.84.84,0,0,1-.86.11A.91.91,0,0,1,85.23,118.48Z"/><path class="cls-9" d="M86.59,120l.71-1.65.32.14-.71,1.64Z"/><path class="cls-9" d="M87.36,119.66a.69.69,0,1,1,.36.9A.65.65,0,0,1,87.36,119.66Zm.94.4a.34.34,0,1,0-.62-.26.34.34,0,0,0,.16.48A.36.36,0,0,0,88.3,120.06Z"/><path class="cls-9" d="M89.36,121.23l.07-.15a.62.62,0,0,1-.5,0,.37.37,0,0,1-.22-.54l.36-.85.31.14-.31.72a.21.21,0,0,0,.13.32.41.41,0,0,0,.33,0l.35-.81.31.13-.51,1.2Z"/><path class="cls-9" d="M90.77,121.84l.07-.15a.51.51,0,0,1-.45,0,.59.59,0,0,1-.26-.85.6.6,0,0,1,.8-.4.5.5,0,0,1,.29.34l.26-.61.32.14L91.09,122Zm.17-.38.18-.43a.35.35,0,0,0-.21-.25.33.33,0,0,0-.45.22.33.33,0,0,0,.15.47A.38.38,0,0,0,90.94,121.46Z"/><path class="cls-9" d="M92,122.38l.71-1.65,1.16.5-.13.31-.81-.35-.15.35.79.34-.13.31-.8-.34-.29.68Z"/><path class="cls-9" d="M93.56,122.33a.69.69,0,1,1,.36.9A.67.67,0,0,1,93.56,122.33Zm.94.41a.34.34,0,0,0-.16-.48.34.34,0,0,0-.45.21.34.34,0,1,0,.61.27Z"/><path class="cls-9" d="M95.57,123.9l.06-.15a.58.58,0,0,1-.5,0,.37.37,0,0,1-.22-.54l.36-.85.32.14-.31.72a.21.21,0,0,0,.12.32.41.41,0,0,0,.33,0l.35-.81.31.14L95.88,124Z"/><path class="cls-9" d="M97,124.5l.31-.72a.21.21,0,0,0-.12-.32.37.37,0,0,0-.33,0l-.35.8-.31-.14.51-1.19.31.14-.06.15a.57.57,0,0,1,.5,0,.37.37,0,0,1,.22.54l-.36.85Z"/><path class="cls-9" d="M98.36,125.11l.07-.15a.55.55,0,0,1-.45,0,.6.6,0,0,1-.26-.85.6.6,0,0,1,.8-.4.5.5,0,0,1,.29.34l.26-.61.32.14-.71,1.65Zm.17-.39.18-.42a.37.37,0,0,0-.21-.25.34.34,0,0,0-.46.22.34.34,0,0,0,.16.47A.35.35,0,0,0,98.53,124.72Z"/><path class="cls-9" d="M99,125.36l.51-1.19.31.13-.07.17a.55.55,0,0,1,.47,0l-.14.3a.29.29,0,0,0-.08,0,.39.39,0,0,0-.35,0l-.34.79Z"/><path class="cls-9" d="M99.8,126l.09.06c.08,0,.14,0,.2,0l.09-.08,0-1.42.33.15,0,1,.66-.69.34.14-1.16,1.15a.45.45,0,0,1-.57.09.44.44,0,0,1-.15-.08Z"/><path class="cls-9" d="M101.61,125.55a.22.22,0,0,1-.11-.28.21.21,0,1,1,.39.17A.23.23,0,0,1,101.61,125.55Zm.16-.36a.18.18,0,0,0-.24.09.18.18,0,0,0,.09.24.18.18,0,0,0,.24-.1A.17.17,0,0,0,101.77,125.19Zm-.07.3,0-.11,0,0,0,.09,0,0,.1-.22.09,0a.07.07,0,0,1,0,.1.06.06,0,0,1-.08,0l0,.11Zm0-.21-.06,0,0,.08.06,0s.05,0,.06,0A0,0,0,0,0,101.75,125.28Z"/></svg>