<?xml version="1.0" encoding="utf-8"?>
<!-- Generator: Adobe Illustrator 22.0.1, SVG Export Plug-In . SVG Version: 6.00 Build 0)  -->
<svg version="1.1" id="Layer_1" xmlns="http://www.w3.org/2000/svg" xmlns:xlink="http://www.w3.org/1999/xlink" x="0px" y="0px"
	 viewBox="0 0 542.3 186" style="enable-background:new 0 0 542.3 186;" xml:space="preserve">
<style type="text/css">
	.st0{fill:#A8C0BC;}
	.st1{fill:#94ABA8;}
	.st2{fill:#99B5BB;}
	.st3{fill:#647B87;}
	.st4{fill:#586066;}
	.st5{fill:#48516C;}
	.st6{fill:#535A60;}
	.st7{fill:#9E9654;}
	.st8{fill:#DA8B29;}
	.st9{fill:#A0AEAC;}
	.st10{fill:#AEC8C4;}
	.st11{fill:#ABB9B8;}
	.st12{fill:#94A2A0;}
	.st13{fill:#6E8183;}
	.st14{fill:#6893AD;}
	.st15{fill:#4E7185;}
	.st16{fill:#97AFAC;}
	.st17{fill:#516470;}
	.st18{fill:#636E8F;}
	.st19{fill:#FAD04A;}
</style>
<g>
	<path class="st0" d="M64.1,70.4c0,0,6.5,7.7,19.4,8.8c12.9,1.1,20.1-5.3,20.4-12c0.3-6.7,0-11.1,0-11.1s8.1,1.1,8.1,1.3
		c0.1,0.3,3,9.6-3.8,20.6c-6.8,11-23.5,11.8-32.7,8.9c-9.2-2.9-10.6-5.8-10.6-5.8L64.1,70.4z"/>
	<g>
		<path class="st1" d="M69.8,76c-0.2,1.1-0.6,2.4-1.1,3.4c-0.5,1.1-1,2.2-1.7,3.2c-0.2,0.2,0.2,0.5,0.4,0.2c0.8-1,1.2-2.2,1.8-3.4
			c0.3-0.5,0.4-1.1,0.6-1.7c0.2-0.6,0.3-1.2,0.4-1.8C70.2,75.9,69.9,75.8,69.8,76z"/>
		<path class="st1" d="M74.1,77.7c0-0.1-0.2-0.1-0.2,0c0,0.3-0.2,0.6-0.4,0.9c-0.1,0.3-0.3,0.6-0.4,0.9c-0.3,0.7-0.5,1.3-0.8,2
			c-0.2,0.6-0.5,1.1-0.7,1.7c-0.2,0.5-0.4,1.1-0.7,1.4c-0.2,0.2,0.1,0.6,0.4,0.4c0.3-0.4,0.5-0.9,0.7-1.3c0.3-0.7,0.6-1.3,0.8-2
			c0.3-0.7,0.5-1.5,0.8-2.2c0.1-0.4,0.3-0.8,0.4-1.1C74.1,78.1,74.1,77.9,74.1,77.7z"/>
		<path class="st1" d="M78.6,79.1c-0.2,0.6-0.5,1.1-0.6,1.7c-0.2,0.6-0.3,1.3-0.5,1.9c-0.2,0.7-0.4,1.3-0.7,2
			c-0.2,0.6-0.6,1.3-0.7,1.9c0,0.3,0.3,0.4,0.4,0.1c0.5-1.2,1-2.5,1.3-3.7c0.2-0.6,0.3-1.3,0.5-2c0.2-0.6,0.4-1.3,0.5-1.9
			C78.9,79,78.6,79,78.6,79.1z"/>
		<path class="st1" d="M83.7,81.4c-0.1-0.4-0.3-0.7-0.3-1.1c0-0.3-0.1-0.5-0.2-0.7c-0.1-0.1-0.3,0-0.2,0.1c0.1,0.2,0.1,0.5,0,0.7
			c0,0.3,0.1,0.7,0.2,1c0.1,0.7,0.1,1.6,0.1,2.3c0,0.8-0.1,1.6-0.2,2.4c0,0.3-0.1,0.7-0.2,1c-0.1,0.2-0.2,0.5-0.1,0.7
			c0.1,0.2,0.3,0.2,0.4,0.1c0.2-0.2,0.2-0.5,0.2-0.8c0.1-0.3,0.1-0.7,0.2-1c0.1-0.8,0.2-1.6,0.2-2.3C83.8,83,83.9,82.1,83.7,81.4z"
			/>
		<path class="st1" d="M88.9,86.3c0-1-0.1-1.9-0.1-2.9c-0.1-0.7-0.2-1.5-0.4-2.2c-0.1-0.3-0.3-1.1-0.7-1c-0.1,0-0.2,0.1-0.1,0.2
			c0.2,0.3,0.3,0.7,0.3,1.1c0,0.3,0.1,0.6,0.2,0.9c0.1,0.5,0.1,0.9,0.2,1.4c0,0.8,0.1,1.6,0.1,2.4c0,0.6,0,1.3-0.2,1.9
			c-0.1,0.3,0.3,0.4,0.5,0.2C89,87.7,88.9,86.8,88.9,86.3z"/>
		<path class="st1" d="M94.6,86.7c0-0.7-0.1-1.3-0.2-2c-0.1-0.8-0.1-1.5-0.4-2.3c-0.1-0.3-0.3-0.6-0.5-0.9c-0.2-0.4-0.3-0.7-0.5-1.1
			c-0.2-0.5-0.4-0.9-1-1.1c-0.2,0-0.2,0.2-0.1,0.3c0.2,0.1,0.3,0.4,0.4,0.6c0.1,0.3,0.2,0.6,0.3,0.8c0.2,0.6,0.5,1.1,0.8,1.6
			c0.3,0.6,0.3,1.4,0.4,2.1c0.1,0.4,0.1,0.8,0.2,1.2c0,0.3,0,0.6,0.1,1c0,0.1,0.2,0.2,0.3,0.2c0.1,0,0.2-0.1,0.3-0.2
			C94.8,86.9,94.7,86.7,94.6,86.7z"/>
		<path class="st1" d="M99.6,85C99.7,85,99.7,85,99.6,85c0-0.2,0-0.4-0.1-0.6c-0.1-0.4-0.1-0.7-0.2-1.1c-0.1-0.7-0.3-1.4-0.7-2
			c-0.3-0.6-0.8-1.2-1.2-1.7c-0.5-0.6-1-1-1.5-1.5c-0.1-0.1-0.3,0-0.2,0.2c0.2,0.5,0.7,0.9,1,1.4c0.4,0.6,0.9,1.1,1.3,1.7
			c0.4,0.6,0.6,1.3,0.8,2c0.2,0.6,0.2,1.3,0.4,2c0.1,0.2,0.3,0.3,0.5,0.1c0,0,0,0,0,0C99.8,85.3,99.8,85.1,99.6,85z"/>
		<path class="st1" d="M104.9,81.7c0-0.1-0.1-0.2-0.2-0.2c0,0,0,0-0.1-0.1c0-0.1-0.1-0.2-0.1-0.3c-0.2-0.3-0.4-0.6-0.6-1
			c-0.2-0.3-0.3-0.6-0.5-0.9c-0.2-0.2-0.5-0.4-0.7-0.7c-0.9-0.9-1.9-1.9-3.2-2.3c-0.1,0-0.2,0.2-0.1,0.2c0.6,0.3,1.2,0.8,1.7,1.3
			c0.6,0.5,1.1,1,1.6,1.5c0.5,0.5,0.8,1.3,1.2,1.9c0.1,0.2,0.3,0.9,0.7,0.7C104.8,81.9,104.9,81.8,104.9,81.7
			C104.9,81.7,104.9,81.7,104.9,81.7z"/>
		<path class="st1" d="M107.4,76c-0.2-0.2-0.5-0.3-0.7-0.5c-0.4-0.2-0.7-0.5-1-0.7c-0.5-0.4-1.1-0.8-1.8-1c-0.6-0.2-1.3-0.6-1.9-0.4
			c-0.2,0-0.1,0.3,0,0.3c0.6,0.1,1.2,0.4,1.8,0.7c0.6,0.3,1.1,0.6,1.7,1.1c0.2,0.2,0.4,0.3,0.7,0.5c0.3,0.2,0.6,0.3,0.8,0.5
			c0.2,0.2,0.4,0.3,0.6,0.5c0.2,0.1,0.3,0.3,0.6,0.4c0.1,0.1,0.3-0.1,0.3-0.2C108.5,76.6,107.7,76.3,107.4,76z"/>
		<path class="st1" d="M110.9,71c-0.2-0.3-0.6-0.3-0.9-0.4c-0.6-0.3-1.3-0.4-1.9-0.5c-0.7-0.2-1.4-0.3-2.1-0.5
			c-0.3-0.1-0.6-0.2-0.9-0.2c-0.3-0.1-0.6,0-0.9-0.1c-0.1,0-0.2,0.2-0.1,0.2c0.5,0.1,1,0.3,1.4,0.5c0.6,0.2,1.3,0.3,2,0.5
			c0.6,0.1,1.3,0.4,1.9,0.5c0.2,0.1,0.4,0.2,0.6,0.2c0.1,0.1,0.4,0.1,0.5,0.2C110.7,71.6,111.1,71.3,110.9,71z"/>
		<path class="st1" d="M112,66.1c-0.4-0.3-1-0.3-1.4-0.3c-0.7-0.1-1.4-0.4-2.1-0.5c-0.7-0.2-1.4-0.3-2.1-0.5
			c-0.3-0.1-0.6-0.2-0.9-0.2c-0.3-0.1-0.7,0-1-0.1c-0.1,0-0.2,0.1-0.1,0.2c0.2,0.1,0.4,0.2,0.7,0.2c0.3,0.1,0.6,0.2,1,0.3
			c0.7,0.2,1.4,0.3,2.1,0.5c0.7,0.2,1.4,0.4,2.1,0.5c0.5,0.1,1,0.2,1.5,0.3C112.1,66.6,112.2,66.2,112,66.1z"/>
		<path class="st1" d="M111.9,60.2c-0.5,0-1-0.1-1.4,0c-0.7,0.1-1.5,0.2-2.3,0.1c-0.7,0-1.4-0.1-2.1-0.2c-0.5,0-1.1-0.2-1.6,0
			c-0.1,0,0,0.1,0,0.1c0.5,0.1,1,0.3,1.6,0.3c0.7,0.1,1.4,0.1,2.1,0.2c0.7,0.1,1.4,0,2.1-0.1c0.5,0,1.1,0,1.6,0
			C112.2,60.7,112.2,60.2,111.9,60.2z"/>
	</g>
	<path class="st2" d="M36.2,67c0,0-3.1,0.2-5.8,1.3c-2.7,1.2-3.4,1.3-3,5.6c0.4,4.4,2.1,14.6,8,26.9c5.8,12.3,14.2,20.4,16.3,21.6
		c2.1,1.3,4.6-0.1,7.9-2.1c3.3-2.1,4.7-3,4.7-3l-17.7-25L39,67H36.2z"/>
	<path class="st3" d="M104.1,50c0,0-2.8,0-3.7,2.6c-0.9,2.6,2.6,5.2,6.5,6c3.9,0.8,7,1,8.2-1.6c1.2-2.6-0.4-4-0.4-4l-6.3-2.6
		L104.1,50z"/>
	<path class="st4" d="M149.4,27.6c0,0,8.2,0,14.2-1c6-1.1,7-3.3,7.7-3.5c0.8-0.2,1.3,0.6,1.1,3.7c-0.2,3-1.1,5.2-2.1,5.2
		c-1.1,0-2.8-1.8-7.9-2.2c-5.1-0.4-13-0.4-13-0.4V27.6z"/>
	<path class="st5" d="M112.5,142.1c-1-1.1-2.6-2.4-4.5-1.7c-1.9,0.7-4.6,3.3-3.8,5.2c0.8,2,7.8,13.5,9.2,15.3c1.4,1.8,3.3,1,5.8-0.8
		c2.4-1.8,3.5-3.6,2.1-6.7c-1.3-3.2-7.4-10-7.4-10L112.5,142.1z"/>
	<path class="st6" d="M150.4,26.6c0,0,0.2,4.7,0,4.7c-0.2,0-15.1,1.2-15.3,1.2c-0.2,0,0,1.2-3.3,1.2c-3.4,0-5.1-0.4-5.1-0.4
		s-0.1,1.5-3,2c-2.9,0.5-15.1-1-17.4-1.2c-2.2-0.2-3.7-0.9-3.8-2.6c-0.1-1.7,0-3.1,0.5-3.1c0.5,0,1-0.2,1-0.2s-0.6-2.1,1.4-2.2
		c2-0.2,11.5-0.5,14.3-0.3C122.6,25.9,132,26,132,26S150.4,26,150.4,26.6z"/>
	<path class="st7" d="M112.7,26.4c-0.1-1.4-0.7-3.2,1.4-3.4c2.1-0.2,5.9-0.2,7.5-0.1c1.6,0.1,2.2,0.3,2.1,1.4
		c-0.1,1.1,0,3.2-1.6,3.5c-1.6,0.3-6.1,0-7.5,0C113.3,27.8,112.8,27.2,112.7,26.4z"/>
	<path class="st7" d="M110.1,33.9L106.9,51c0,0-1.5,0.6-1.1,2c0.4,1.4,2.1,1.4,6.3,1.3c4.1,0,5.9,0.8,6.5-1.7
		c0.6-2.5,3.5-17.2,3.5-17.2s-2.2-0.1-2.3-1.9c-0.1-1.7,0.5-3.2-1.8-3.4c-2.4-0.2-6.8-0.7-7.2,0.6C110.3,32,110.1,33.9,110.1,33.9z"
		/>
	<ellipse transform="matrix(0.2576 -0.9663 0.9663 0.2576 75.5044 155.3694)" class="st8" cx="138.9" cy="28.6" rx="9.8" ry="9.8"/>
	<path class="st3" d="M106.9,50.7l1.8-9.8c0,0,4.9-3,3.8-4.9c-1.1-1.9-3.3-1.5-6.7,0.3c-3.4,1.8-5,3-4.5,7.1
		c0.5,4.1,2.4,7.4,2.4,7.4H106.9z"/>
	<path class="st3" d="M120.7,37.4c-1.7,0-3.1-0.3-3.6,2.8c-0.5,3-1.1,7.1-1.4,8.8c-0.3,1.7,0.6,2.5,2.8,2.6c2.2,0.2,3.8,0.4,4.4-2.1
		c0.5-2.5,1.5-7.6,1.7-9.5c0.3-1.9-0.4-2.4-2-2.5C121.1,37.5,120.7,37.4,120.7,37.4z"/>
	<path class="st0" d="M85.8,106.5c0.8,0,17-6.2,30.7-5.9c13.7,0.3,19.6,9.4,18.9,18.9c-0.7,9.5-8.1,16.9-12.7,21.7
		c-4.7,4.8-7.2,6-7.2,6s-3.5,0.5-5.1-1.9c-1.6-2.4-1-3.9,1.4-5.5c2.4-1.6,9.9-7.8,12.3-13.1c2.4-5.4,2.8-11.5-2.8-15.2
		c-5.6-3.7-13.8-2.7-21.9-0.2c-8.1,2.5-11.5,5.3-11.5,5.3L85.8,106.5z"/>
	<g>
		<path class="st1" d="M94.5,112.5c-0.1-0.1-0.1-0.5-0.1-0.6c0-0.2,0-0.4,0-0.6c-0.2-0.9-0.3-1.7-0.5-2.5c-0.2-0.8-0.5-1.6-0.7-2.3
			c-0.1-0.4-0.3-1.1-0.8-1.2c-0.1,0-0.2,0.1-0.1,0.2c0.3,0.5,0.4,1,0.5,1.6c0.3,0.9,0.5,1.8,0.8,2.7c0.2,0.7,0.3,1.4,0.3,2.1
			c0,0.4-0.1,1,0.3,1.3C94.4,113.2,94.7,112.8,94.5,112.5z"/>
		<path class="st1" d="M100.7,108.7c0-0.6-0.1-1.3-0.2-1.9c-0.1-0.7-0.3-1.3-0.5-1.9c-0.2-0.5-0.4-1.2-0.8-1.5
			c-0.1-0.1-0.2,0-0.2,0.1c0.1,0.6,0.3,1.2,0.5,1.7c0.2,0.6,0.3,1.2,0.4,1.8c0.1,0.6,0.2,1.3,0.2,1.9c0,0.6-0.1,1.2,0,1.8
			c0.1,0.3,0.5,0.3,0.5,0C100.8,110.1,100.7,109.3,100.7,108.7z"/>
		<path class="st1" d="M106.9,105.2c-0.1-1,0-2.3-0.7-3.2c-0.1-0.1-0.2,0-0.1,0.1c0.2,0.4,0.2,0.9,0.3,1.3c0.1,0.7,0.1,1.4,0.1,2.1
			c0,0.6,0.2,1.2,0.2,1.8c0,0.7-0.1,1.3-0.1,2c0,0.4,0.6,0.4,0.6,0c0-0.7,0.1-1.3,0.1-2C107.1,106.6,106.9,105.9,106.9,105.2z"/>
		<path class="st1" d="M112.6,101.4c-0.2,0.5-0.6,1-0.8,1.6c-0.2,0.6-0.3,1.2-0.4,1.8c-0.1,0.6-0.2,1.3-0.2,1.9c0,0.3,0,0.6,0,0.9
			c0,0.3,0.1,0.6,0.2,1c0,0.2,0.2,0.3,0.4,0.3c0,0,0,0,0.1,0c0.2,0,0.2-0.3,0.2-0.4c0-0.5-0.2-0.9-0.2-1.4c0-0.6,0.1-1.3,0.2-1.9
			c0.1-0.6,0.1-1.2,0.2-1.8c0.1-0.6,0.4-1.2,0.5-1.8C112.8,101.4,112.6,101.3,112.6,101.4z"/>
		<path class="st1" d="M120.5,101.6c-0.9,0.3-1.6,0.6-2.2,1.3c-0.7,0.7-1,1.7-1.4,2.5c-0.2,0.5-0.4,1-0.5,1.5
			c-0.1,0.5-0.1,0.9-0.2,1.4c0,0.3-0.1,1.4,0.5,1.2c0.1-0.1,0.2-0.2,0.1-0.3c0.1,0.1,0-0.1,0-0.1c0-0.1,0-0.2,0-0.3
			c0-0.2,0-0.4,0-0.6c0-0.9,0.4-1.8,0.7-2.6c0.6-1.6,1.5-3,3.1-3.7C120.7,101.7,120.6,101.5,120.5,101.6z"/>
		<path class="st1" d="M126.3,103.5c-0.6-0.2-1.3,0.2-1.7,0.5c-0.7,0.5-1.3,1.1-1.9,1.8c-0.5,0.6-1,1.3-1.3,2
			c-0.4,0.7-0.7,1.6-0.8,2.4c0,0.3,0.5,0.4,0.6,0.1c0.2-0.7,0.4-1.5,0.7-2.2c0.3-0.7,0.8-1.3,1.2-1.9c0.4-0.6,1-1.1,1.5-1.6
			c0.3-0.3,0.6-0.5,0.9-0.7c0.3-0.1,0.6-0.2,0.9-0.3C126.4,103.6,126.4,103.6,126.3,103.5z"/>
		<path class="st1" d="M130.7,107.6c-0.7,0.3-1.4,0.4-2.1,0.7c-0.7,0.4-1.3,0.9-2,1.4c-0.6,0.5-1.3,1-1.8,1.5
			c-0.3,0.3-0.5,0.6-0.8,0.8c-0.2,0.2-0.4,0.5-0.5,0.8c0,0.1,0.1,0.2,0.2,0.1c0.2-0.3,0.4-0.5,0.7-0.7c0.3-0.3,0.6-0.6,0.9-0.8
			c0.6-0.5,1.2-0.9,1.8-1.4c0.6-0.5,1.3-1,2-1.4c0.6-0.3,1.4-0.3,1.9-0.8C131.1,107.8,130.9,107.5,130.7,107.6z"/>
		<path class="st1" d="M134.1,113.4c-0.1,0.1-0.5,0.1-0.6,0.2c-0.4,0.1-0.7,0.3-1.1,0.4c-0.8,0.3-1.6,0.5-2.3,0.7
			c-1.4,0.4-2.8,1-4.2,1.3c-0.1,0-0.1,0.2,0,0.2c0.7,0.1,1.4-0.1,2-0.3c0.8-0.2,1.6-0.5,2.3-0.8c0.8-0.2,1.7-0.5,2.5-0.8
			c0.4-0.2,0.8-0.3,1.2-0.4c0.2-0.1,0.4-0.1,0.5-0.3C134.6,113.4,134.2,113.2,134.1,113.4z"/>
		<path class="st1" d="M134.6,120.6c-0.6-0.2-1.4-0.1-2.1-0.1c-0.8,0-1.6-0.1-2.4-0.2c-0.8-0.1-1.5-0.3-2.2-0.5
			c-0.4-0.1-0.7-0.3-1-0.5c-0.2-0.1-0.4-0.2-0.7-0.2c-0.1,0-0.2,0.2-0.1,0.2c0.1,0.1,0.2,0.2,0.3,0.3c0.1,0.1,0.3,0.2,0.4,0.2
			c0.3,0.2,0.6,0.3,0.9,0.4c0.7,0.3,1.5,0.4,2.2,0.5c0.7,0.1,1.5,0.2,2.2,0.2c0.4,0,0.8,0,1.2,0c0.4,0,0.8,0,1.2-0.1
			C134.8,120.9,134.8,120.6,134.6,120.6z"/>
		<path class="st1" d="M132.6,127.7c-0.3-0.1-0.6-0.1-0.9-0.2c-0.3-0.1-0.7-0.2-1-0.3c-0.7-0.2-1.3-0.4-2-0.6
			c-0.6-0.2-1.2-0.6-1.8-0.9c-0.5-0.3-0.9-0.8-1.2-1.3c-0.1-0.1-0.2-0.1-0.2,0c-0.1,0.3,0.1,0.4,0.2,0.6c0.1,0.3,0.3,0.5,0.5,0.7
			c0.5,0.5,1.3,0.9,1.9,1.2c0.7,0.3,1.5,0.5,2.3,0.7c0.4,0.1,0.8,0.3,1.2,0.4c0.3,0.1,0.7,0.2,1,0.1
			C132.8,128,132.8,127.8,132.6,127.7z"/>
		<path class="st1" d="M129.1,133.4c-0.3-0.2-0.6-0.3-0.9-0.4c-0.3-0.2-0.6-0.3-0.9-0.5c-0.7-0.4-1.3-1-1.9-1.5
			c-0.5-0.5-1.1-1-1.5-1.6c-0.1-0.2-0.4-0.6-0.7-0.4c0,0,0,0.1,0,0.1c0.1,0.4,0.3,0.7,0.6,1c0.6,0.6,1.1,1.2,1.7,1.8
			c0.5,0.5,1.1,0.9,1.8,1.3c0.5,0.3,1.2,0.8,1.8,0.7C129.3,133.8,129.3,133.5,129.1,133.4z"/>
		<path class="st1" d="M124.6,138.4c-0.5-0.4-0.9-0.8-1.4-1.2c-0.5-0.5-0.9-1.1-1.4-1.7c-0.4-0.5-0.9-1-1-1.7
			c-0.1-0.3-0.2-0.8-0.6-0.8c-0.1,0-0.1,0-0.1,0.1c0.1,1.2,0.7,2,1.3,2.9c0.4,0.6,0.8,1.1,1.3,1.6c0.3,0.3,0.6,0.5,0.8,0.7
			c0.2,0.2,0.4,0.5,0.8,0.5C124.5,138.9,124.8,138.6,124.6,138.4z"/>
		<path class="st1" d="M121.8,141.9c-0.4-0.1-0.7-0.2-1-0.3c-0.3-0.1-0.6-0.3-0.8-0.5c-0.3-0.2-0.5-0.5-0.8-0.7
			c-0.3-0.3-0.6-0.5-0.8-0.8c-0.5-0.5-0.9-1.1-1.2-1.8c-0.2-0.4-0.2-1.2-0.7-1.4c-0.1,0-0.2,0-0.2,0.1c0.1,0.6,0.2,1.3,0.4,1.9
			c0.3,0.7,0.8,1.3,1.4,1.9c0.3,0.3,0.6,0.5,0.9,0.8c0.3,0.3,0.5,0.5,0.8,0.7c0.6,0.3,1.4,0.8,2.1,0.6
			C122,142.3,122,142,121.8,141.9z"/>
		<path class="st1" d="M116.8,145.9c-0.2-0.1-0.5-0.2-0.8-0.2c-0.4-0.1-0.7-0.2-1.1-0.4c-0.7-0.3-1.2-0.7-1.7-1.3
			c-0.6-0.6-0.8-1.4-0.9-2.2c0-0.4,0-0.7,0-1.1c0-0.2,0-0.4,0-0.5c0-0.2-0.1-0.3,0-0.5c0-0.1-0.1-0.2-0.2-0.1
			c-0.2,0.2-0.2,0.5-0.2,0.7c-0.1,0.4-0.1,0.9-0.1,1.3c0,0.9,0.2,1.8,0.7,2.5c0.5,0.6,1.1,1.1,1.8,1.5c0.3,0.2,0.8,0.4,1.1,0.5
			c0.2,0,0.4,0.1,0.5,0.1c0.2,0,0.4-0.1,0.6-0.1C116.8,146.2,116.9,146,116.8,145.9z"/>
	</g>
	<path class="st9" d="M126.4,108.1c-0.9-1.1-1.2-3,1.1-3.8c2.2-0.8,4.8-2,6.3,0.1c1.5,2,3.5,7.3,4,8.7c0.5,1.4-0.3,2.3-2.2,2.9
		c-1.9,0.6-4,1.6-5.1-0.4C129.3,113.6,126.4,108.1,126.4,108.1z"/>
	<path class="st10" d="M38.2,69.7c0,0-0.9,9,3.1,21.7c4,12.6,17.4,26.9,25,31.1c7.6,4.2,12.3,4.9,17.3,1.5c5-3.4,8.1-9.8,6.5-15.8
		c-1.6-6-9.1-7.4-12.5-13.5c-3.4-6.1-9.8-16.3-11.1-21c-1.3-4.7-1-7.2-1.3-7.1C64.9,66.6,38.2,69.7,38.2,69.7z"/>
	<path class="st3" d="M34.7,66.5c0,0-0.1,3.8,3.2,4.5c3.3,0.7,14.4,1.3,19.9,0c5.5-1.3,8.3-2.6,8.5-4.8c0.2-2.2,0-3.2,0-3.2
		l-30.6,2.5L34.7,66.5z"/>
	<path class="st11" d="M37.6,68.3c-4.3-0.4-10.9-0.9-12.6-7.1c-1.8-6.2-2.4-15.4-3.3-24.6c-0.9-9.2,0.1-18,0-21.9
		c-0.1-3.9,3.2-4.5,4.2-4.9c1.1-0.4,5.3-1.8,5.5-1.8c0.2,0,13.7-2.7,18.1-3.2C53.8,4.4,60.2,4.3,63.8,6c3.6,1.7,4.9,5.7,5,10.7
		c0.1,5.1,2.7,35.3,2.7,35.3s0.3,3-0.2,6.2c-0.5,3.2-1.4,5.5-7.7,7.6C57.3,67.9,45.2,69.1,37.6,68.3z"/>
	<path class="st10" d="M28.4,8.9L31,8c0,0,3.5-0.7,9.1,0.5c5.6,1.2,7.3,3.9,8.2,3.8c1-0.2,9.7-1.6,9.7-2.2c0-0.6-5.3-5.7-9.3-6.4
		c-4-0.7-12,1.1-16,2S28.5,7.7,28.4,8.9z"/>
	<path class="st12" d="M28.5,48.4c-1.6,0.4-2.7-2.1-2.7-5.6c0-3.5,1.2-4.5,2.7-4.5c1.5-0.1,2,2.7,2.1,5.7
		C30.7,46.9,29.9,48.1,28.5,48.4z"/>
	<path class="st13" d="M34.7,35.4c-0.1-6.1,2.6-14.2,11.1-17.1c8.5-2.9,21.3-3.7,22.9-3.2c1.6,0.5,2.4,0.9,2.2,3.1
		c-0.2,2.1-3,3.8-3,3.8l2.6,29.9c0,0,3.5,0.1,3.6,2c0.1,1.9-2.4,3.6-7.4,4.7c-5,1.1-19.6,2.6-25.2-1.1c-5.6-3.8-6.2-10.9-6.5-15
		C34.7,38.4,34.7,35.4,34.7,35.4z"/>
	<path class="st5" d="M69.5,18c-0.1,0-6.2,0.1-14.6,1.2c-8.3,1.1-14.6,3.9-16.6,11.7c-2,7.8,0.2,17.7,2.9,21.2
		c2.6,3.6,8.2,5.1,16.7,4.1c8.5-1,14.6-2.6,14.6-2.6s0.3-11.3-0.6-18.7C71.1,27.4,69.5,18,69.5,18z"/>
	<path class="st5" d="M57.5,117.5c-0.2,0-2.1-2.2-2-2.4c0.1-0.2,25.9-17.5,26.1-17.3c0.2,0.2,1.7,1.7,1.9,2
		C83.8,100,58.2,117.5,57.5,117.5z"/>
	<path class="st14" d="M53.6,85.5c-1-2.2-1.3-4.5,2.1-5.1c3.4-0.6,9-1.8,10.1-0.9c1.1,0.9,4.2,6.9,5.7,9.4c1.5,2.5,3,4.4,0.7,5.8
		c-2.3,1.4-6.2,3-8.1,3.6c-1.8,0.6-3,1-4.7-1.7C57.7,94,53.6,85.5,53.6,85.5z"/>
	<g>
		<path class="st15" d="M59.5,87.4c0-0.2-0.2-0.4-0.3-0.6c-0.1-0.3-0.3-0.7-0.4-1c-0.2-0.6-0.5-1.1-0.9-1.7c-0.2-0.3-0.3-0.6-0.4-1
			c-0.1-0.3-0.3-0.6-0.4-1c-0.1-0.2-0.2-0.3-0.4-0.3c-0.5,0-1,0.1-1.5,0.3c-0.2,0.1-0.2,0.3-0.2,0.5c0.1,0.5,0.3,1,0.5,1.5
			c0.2,0.6,0.5,1.2,0.8,1.7c0.2,0.5,0.5,0.8,0.8,1.3c0.1,0.1,0.1,0.2,0.2,0.3c0,0.1,0.1,0.2,0.1,0.3c0.2,0.3,0.4,0.5,0.7,0.5
			c0,0,0,0,0.1,0c0.1,0,0.2,0,0.3,0c0.1,0,0.2,0,0.3,0C59.1,88.2,59.7,87.9,59.5,87.4z"/>
		<path class="st15" d="M63.7,95.4c-0.2-0.3-0.4-0.7-0.6-1c-0.3-0.7-0.5-1.4-0.8-2.2c-0.2-0.6-0.3-1.2-0.8-1.5c-0.1-0.1-0.2,0-0.3,0
			c-0.1,0.1-0.2,0.1-0.4,0.1c-0.3,0-0.6,0.1-0.8,0.2c-0.1,0-0.2,0.1-0.2,0.3c0,0.1,0,0.2,0,0.3c0,0,0,0.1,0,0.1
			c0.1,0.3,0.2,0.5,0.3,0.7c0.2,0.3,0.4,0.6,0.5,1c0.1,0.3,0.2,0.6,0.3,0.8c0.2,0.5,0.4,0.9,0.6,1.4c0.1,0.2,0.2,0.5,0.3,0.7
			c0.1,0.1,0.2,0.3,0.3,0.4c0,0.3,0.3,0.5,0.6,0.3c0.4-0.2,1.1-0.3,1.1-0.9C64,95.8,63.8,95.6,63.7,95.4z"/>
		<path class="st15" d="M66.2,83.1c-0.1-0.4-0.1-0.9-0.4-1.1c-0.1-0.1-0.4-0.1-0.6,0c-0.3,0-0.7,0.1-1,0.2c-0.7,0.2-1.5,0.4-2.2,0.5
			c-0.6,0.1-1.2,0.3-1.8,0.5c-0.2,0-0.3,0.3-0.2,0.5c0.1,0.2,0.2,0.4,0.3,0.6c0,0.2,0.1,0.3,0.2,0.4c0.1,0.1,0.2,0.2,0.4,0.2
			c0,0,0.1,0,0.1,0c0.9-0.2,1.7-0.4,2.6-0.6c0.4-0.1,0.9-0.3,1.3-0.4c0.4-0.1,0.8-0.2,1.2-0.4C66.2,83.4,66.2,83.2,66.2,83.1z"/>
		<path class="st15" d="M68.4,87c-0.2-0.2-0.4-0.5-0.5-0.8c-0.1-0.2-0.3-0.3-0.4-0.2c-0.1,0.1-0.3,0.1-0.5,0.2
			c-0.2,0.1-0.4,0.2-0.6,0.2c-0.5,0.1-0.9,0.2-1.4,0.3c-0.9,0.2-1.9,0.5-2.8,0.9C62,87.8,62,88,62.1,88.2c0.3,0.6,0.3,1.2,1.1,1.4
			c0.2,0.1,0.3-0.1,0.3-0.2c0,0,0,0,0,0c0.2-0.1,0.5-0.2,0.7-0.3c0.3-0.1,0.6-0.3,0.9-0.4c0.6-0.2,1.2-0.3,1.8-0.5
			c0.5-0.2,1-0.3,1.4-0.6C68.5,87.4,68.6,87.2,68.4,87z"/>
		<path class="st15" d="M70.9,91.3c-0.1-0.1-0.3-0.2-0.3-0.3c-0.1-0.1-0.1-0.2-0.3-0.3c-0.3-0.2-0.6,0-0.9,0.1
			c-0.5,0.2-1,0.3-1.5,0.5c-1,0.3-2,0.7-3,0.9c-0.2,0-0.3,0.3-0.2,0.5c0.1,0.2,0.2,0.4,0.4,0.5c0,0.3,0.1,0.5,0.4,0.6
			c0.1,0.2,0.3,0.2,0.4,0c0.3,0,0.7-0.2,1-0.3c0.5-0.2,1-0.4,1.5-0.5c0.9-0.3,1.7-0.6,2.4-1.1C71.1,91.8,71,91.6,70.9,91.3z"/>
	</g>
	<path class="st10" d="M42.2,81.6c0,0-13.3-4.5-19.9-3.6c-6.7,0.8-12.7,3.6-11.2,13.8c1.6,10.2,6.6,13.2,6.6,13.2s0.8,5.1,0.8,5.3
		c0,0.2-5.2-0.1-5.4,0c-0.2,0.1-3.7-1.1-7.3-11.3c-3.6-10.2-1.7-20.7,5-25.1c6.6-4.4,18.2-3,23.3-2c5.1,1,8.9,2.5,9.2,2.6
		c0.2,0.1,1.6,1.5,1.1,4.1C43.9,81.2,42.2,81.6,42.2,81.6z"/>
	<g>
		<path class="st16" d="M12.7,81.6c-0.3-0.5-0.5-1.1-0.9-1.6c-0.4-0.5-0.8-0.9-1.2-1.3c-0.9-0.8-2.3-1.4-3.5-0.9
			C7,77.8,6.9,77.9,7,78c0,0,0,0,0,0c0,0.1,0.1,0.1,0.2,0c-0.1,0.1,0.4,0.1,0.5,0.1c0.4,0,0.8,0.1,1.2,0.2c0.6,0.3,1.1,0.6,1.5,1
			c0.4,0.4,0.9,0.9,1.2,1.4c0.2,0.4,0.4,1.2,1,1.2C12.7,82,12.8,81.8,12.7,81.6z"/>
		<path class="st16" d="M17.1,78.8c-0.2-0.7-0.2-1.5-0.5-2.2c-0.2-0.7-0.7-1.4-1.2-2c-1-1.1-2.6-1.8-4-1.1c-0.1,0.1,0,0.2,0.1,0.2
			c0.8-0.1,1.5-0.1,2.2,0.3c0.6,0.3,1.2,0.8,1.6,1.3c0.4,0.6,0.8,1.2,0.9,1.9c0.1,0.5,0.1,1.3,0.4,1.7
			C16.8,79.4,17.2,79.1,17.1,78.8z"/>
		<path class="st16" d="M21.8,76c-0.1-0.8-0.3-1.5-0.6-2.2c-0.2-0.6-0.5-1.2-1-1.7c-0.5-0.4-1.1-0.7-1.7-0.6c-0.2,0-0.2,0.2,0,0.2
			c0.6,0,1.2,0.5,1.6,1c0.4,0.5,0.5,1.1,0.7,1.6c0.2,0.6,0.3,1.2,0.4,1.8c0,0.3,0,0.6,0,0.9c0,0.3-0.1,0.7,0,1
			c0.1,0.2,0.4,0.3,0.4,0.1c0.1-0.3,0.1-0.6,0.1-0.9C21.8,76.8,21.9,76.4,21.8,76z"/>
		<path class="st16" d="M26.9,73.8c-0.2-0.6-0.5-1.2-0.8-1.7c-0.1-0.2-0.3-0.4-0.5-0.6c-0.2-0.1-0.5-0.2-0.7-0.4
			c-0.1-0.1-0.2,0-0.2,0.1c0,0.1,0.1,0.2,0.2,0.3c0.2,0.2,0.4,0.3,0.6,0.5c0.4,0.5,0.6,1.1,0.8,1.6c0.2,0.6,0.2,1.3,0.2,2
			c0,0.5-0.2,1.4,0.2,1.8c0.1,0.1,0.2,0.1,0.2,0C27,77.4,27,77.2,27,77c0-0.4,0-0.8,0-1.2C27,75.2,27,74.5,26.9,73.8z"/>
		<path class="st16" d="M32.4,74.8c0-0.7-0.2-1.4-0.4-2c-0.1-0.4-0.5-0.6-0.9-0.8C31,71.9,30.9,72,31,72.1c0.1,0.2,0.3,0.3,0.4,0.5
			c0.2,0.2,0.2,0.6,0.2,0.9c0.2,0.7,0.2,1.4,0.2,2.1c0,0.7-0.1,1.3-0.2,1.9c-0.1,0.3-0.4,0.8,0,1c0.2,0.2,0.5-0.1,0.4-0.4
			c0,0.1,0.2-0.5,0.2-0.5c0.1-0.3,0.1-0.6,0.1-0.8C32.4,76.2,32.4,75.5,32.4,74.8z"/>
		<path class="st16" d="M37.8,73.2c-0.1-0.1-0.2,0.1-0.1,0.2c0.8,0.9,0.9,2.2,0.9,3.4c0,0.7-0.2,1.3-0.4,1.9
			c-0.1,0.2-0.2,0.4-0.3,0.6c-0.1,0.1-0.2,0.2-0.2,0.4c0,0,0,0,0,0c0,0.1,0,0.2,0.1,0.3c0.4,0.2,0.7-0.5,0.9-0.8
			c0.3-0.7,0.5-1.5,0.6-2.3C39.2,75.6,38.9,74,37.8,73.2z"/>
		<path class="st16" d="M11.1,85.3c-0.3-0.6-0.8-1-1.3-1.4C9.4,83.6,9,83.2,8.4,83c-0.6-0.2-1.3-0.2-1.9-0.2c-0.3,0-0.5,0-0.8,0.1
			c-0.3,0.1-0.5,0.3-0.8,0.4c-0.1,0.1,0,0.3,0.1,0.2c0.2-0.1,0.4-0.2,0.7-0.2c0.3-0.1,0.7-0.1,1,0c0.6,0,1.2,0.1,1.8,0.3
			c0.5,0.2,0.9,0.6,1.2,1c0.4,0.3,0.7,0.8,1.1,1C11,85.7,11.2,85.5,11.1,85.3z"/>
		<path class="st16" d="M10.5,88.8c-0.4-0.4-1.1-0.7-1.6-0.9c-0.6-0.3-1.3-0.3-2-0.2c-0.6,0.1-1.2,0.2-1.7,0.6
			c-0.3,0.2-0.8,0.6-0.8,1c0,0.1,0.1,0.2,0.2,0.1C4.7,89.2,4.9,89.1,5,89c0.2-0.2,0.4-0.3,0.6-0.4c0.5-0.3,1.1-0.4,1.6-0.4
			c0.5,0,1,0.1,1.5,0.3c0.5,0.2,1,0.6,1.5,0.8C10.5,89.3,10.7,89,10.5,88.8z"/>
		<path class="st16" d="M10.9,93c-0.1-0.5-0.8-0.7-1.2-0.8C9,92,8.3,92.1,7.6,92.2c-0.7,0.2-1.3,0.5-1.8,0.9C5.5,93.4,5,93.8,5,94.3
			c0,0.1,0.2,0.2,0.3,0.1c0.5-0.7,1.4-1.2,2.2-1.5c0.9-0.3,2.3-0.4,3,0.4C10.7,93.4,10.9,93.2,10.9,93z"/>
		<path class="st16" d="M12.1,97.7c-0.2-0.4-1-0.5-1.4-0.6c-0.7-0.2-1.4,0-2,0.2c-0.6,0.1-1.2,0.4-1.7,0.8c-0.4,0.3-1,0.9-1,1.4
			c0,0.2,0.2,0.3,0.3,0.1c0.5-1,1.5-1.5,2.5-1.8c0.6-0.1,1.2-0.3,1.8-0.2c0.4,0.1,0.8,0.3,1.3,0.4C12.1,98.1,12.2,97.9,12.1,97.7z"
			/>
		<path class="st16" d="M14.3,101.9c-0.5-0.1-1.1-0.1-1.5,0c-0.6,0.1-1.2,0.3-1.8,0.5c-0.5,0.2-1,0.4-1.5,0.7
			c-0.5,0.4-0.7,0.9-0.8,1.5c0,0.1,0.1,0.2,0.2,0.1c0.2-0.5,0.4-0.9,0.9-1.2c0.4-0.3,0.9-0.5,1.4-0.7c0.6-0.2,1.1-0.4,1.7-0.4
			c0.4-0.1,0.9,0,1.3,0C14.5,102.3,14.6,101.9,14.3,101.9z"/>
	</g>
	<path class="st3" d="M15.8,107.5c0,0-3.9-4.6-1.4-6.1c2.6-1.5,5.1,0.8,6.7,4.1c1.5,3.2,1.5,3.6,1.2,5.3c-0.3,1.7-1.8,2.5-4.7,2.6
		c-3,0.2-4.7,1.3-4.7,1.3s3.7,1,3.6,3.2c-0.1,2.2-0.6,5.2-5.8,3.7c-5.2-1.5-5.6-5.3-4.5-9.1C7.3,108.7,11.5,107.2,15.8,107.5z"/>
	<path class="st17" d="M13.3,114.8c-0.2-0.1-0.2-0.1-0.4-0.2c-0.3-0.1-0.6-0.3-0.8-0.5c-0.4-0.4-0.7-0.8-1-1.4
		c-0.3-0.5-0.4-1-0.4-1.6c0-0.5,0.3-1,0.5-1.5c0.1-0.1-0.1-0.2-0.2-0.2c-1.2,0.5-1.2,2.4-0.5,3.3c0.2,0.3,0.4,0.6,0.5,0.9
		c0.1,0.3,0.4,0.5,0.6,0.7c0.2,0.2,0.5,0.3,0.8,0.4c0.3,0.1,0.5,0,0.8,0.1C13.4,115,13.4,114.9,13.3,114.8z"/>
	<path class="st5" d="M65.8,160.6c-1.3-0.9-2.5-3.4-6.3-1c-3.8,2.4-8.3,6.5-8.8,12.3c-0.4,5.8,0.4,8.4,2.8,9.2
		c2.4,0.8,6.4,2.9,7.1-0.7c0.7-3.6,1.5-6.9,3.1-9.9c1.6-3,3.5-5.8,3.5-5.8L65.8,160.6z"/>
	<path class="st10" d="M72.3,121.4c0,0,11.2,12.3,13.5,20.9c2.3,8.6,1.4,15.1-3.6,19.2c-5,4.1-9.1,2.7-13.3,0.4
		c-4.2-2.3-5.5-2.4-7.4-0.8c-1.9,1.6-2.5,6,2.9,8.8c5.4,2.8,17,5,22.6,1c5.6-4,10-9.6,9.6-23.6c-0.4-14-7.5-23.3-10.3-26.3
		c-2.9-3-5-4.6-5-4.6S73.9,114.3,72.3,121.4z"/>
	<g>
		<path class="st16" d="M75.9,125.7c-0.5-0.4-0.8-1.1-1.2-1.6c-0.9-1.1-1.8-2.3-3-3.1c-0.2-0.1-0.4,0.1-0.2,0.3
			c0.5,0.5,0.9,1,1.4,1.5c0.5,0.5,0.9,1.1,1.3,1.6c0.4,0.5,0.7,1.1,1.2,1.5c0.2,0.2,0.5,0.4,0.7,0.6c0.2,0.1,0.3,0.4,0.6,0.4
			c0.1,0,0.1,0,0.1-0.1C76.8,126.3,76.2,125.9,75.9,125.7z"/>
		<path class="st16" d="M86.7,121.3c-0.1-0.3-0.2-0.5-0.5-0.7c-0.3-0.3-0.6-0.5-0.9-0.8c-0.6-0.5-1.2-0.9-1.8-1.5
			c-0.6-0.5-1.1-1.1-1.7-1.7c-0.3-0.2-0.7-0.8-1.1-0.6c-0.1,0-0.1,0.1-0.1,0.2c1,0.9,1.8,1.8,2.8,2.7c0.5,0.5,1.2,0.9,1.7,1.4
			c0.3,0.2,0.5,0.5,0.8,0.7c0.2,0.2,0.4,0.4,0.7,0.5C86.7,121.6,86.8,121.4,86.7,121.3z"/>
	</g>
	<g>
		<path class="st16" d="M44.6,74.9c-0.2-0.5-0.9-0.6-1.3-0.8c-0.7-0.3-1.3-0.6-2-0.8c-0.7-0.2-1.4-0.3-2.1-0.5
			c-0.4-0.1-1-0.4-1.5-0.3c-0.1,0-0.1,0.2,0,0.2c0.5,0,1,0.4,1.5,0.6c0.6,0.3,1.3,0.4,1.9,0.6c0.6,0.2,1.1,0.5,1.7,0.7
			c0.3,0.1,0.6,0.2,0.8,0.3c0.3,0,0.5,0.2,0.8,0.2C44.5,75.1,44.6,75,44.6,74.9z"/>
		<path class="st16" d="M43.2,81.9c-0.3-0.2-0.8-0.3-1.1-0.5c-0.4-0.2-0.8-0.3-1.1-0.4c-0.9-0.2-1.7-0.5-2.6-0.7
			c-0.1,0-0.2,0.1-0.1,0.2c0.4,0.2,0.7,0.4,1.1,0.6c0.5,0.2,1,0.3,1.4,0.5c0.4,0.1,0.9,0.3,1.3,0.5c0.3,0.2,0.7,0.3,1.1,0.2
			C43.3,82.2,43.4,82,43.2,81.9z"/>
	</g>
	<g>
		<path class="st16" d="M86.5,121.7c-0.3-0.2-0.8-0.1-1.2,0c-0.5,0-1,0.1-1.6,0.2c-1,0.2-2,0.5-3,0.9c-0.9,0.4-1.6,0.9-2.3,1.6
			c-0.6,0.6-1.3,1.4-1.2,2.3c0,0.2,0.3,0.2,0.3,0c0.2-0.8,0.8-1.4,1.4-2c0.6-0.6,1.4-1.1,2.2-1.4c0.8-0.3,1.7-0.6,2.5-0.7
			c0.5-0.1,0.9-0.1,1.4-0.2c0.4,0,0.7,0,1.1,0c0.2,0,0.3,0,0.4-0.2c0,0,0,0,0,0C86.7,121.9,86.7,121.7,86.5,121.7z"/>
		<path class="st16" d="M90,126.9c-0.3-0.2-0.6-0.2-0.9-0.2c-0.5,0-1,0-1.5,0c-1.1,0.1-2,0.4-3,0.8c-1,0.3-1.9,0.7-2.8,1.3
			c-0.4,0.3-0.8,0.6-1.1,0.9c-0.2,0.3-0.5,0.6-0.5,0.9c0,0.2,0.2,0.2,0.3,0c0.1-0.3,0.6-0.7,0.9-0.9c0.3-0.3,0.7-0.5,1.1-0.7
			c0.8-0.5,1.7-0.8,2.6-1.1c0.8-0.3,1.7-0.6,2.5-0.6c0.4,0,0.8,0,1.3,0c0.3,0,0.5,0,0.8,0c0,0,0,0,0.1,0c0.1,0,0.1,0,0.2,0
			C90.1,127.5,90.2,127.1,90,126.9z"/>
		<path class="st16" d="M93.6,133.4c-2-0.4-4.2-0.3-6.2,0.3c-0.8,0.3-1.6,0.7-2.4,1.1c-0.5,0.3-1.1,0.9-1.1,1.5c0,0.1,0.2,0.1,0.2,0
			c0.3-0.6,0.9-1,1.5-1.3c0.8-0.4,1.5-0.7,2.4-1c1.8-0.5,3.7-0.4,5.5-0.1C93.9,134,94,133.4,93.6,133.4z"/>
		<path class="st16" d="M94.9,139.9c-0.4,0-0.8-0.1-1.2-0.1c-0.9-0.1-1.8,0-2.7,0c-0.9,0-1.8,0.1-2.6,0.4c-0.5,0.1-0.9,0.3-1.4,0.4
			c-0.4,0.1-0.7,0.4-1.1,0.5c-0.1,0.1-0.1,0.3,0,0.3c0.3,0,0.5-0.2,0.7-0.3c0.4-0.2,0.8-0.2,1.2-0.3c0.9-0.2,1.7-0.5,2.7-0.5
			c0.8,0,1.6,0,2.4,0c0.7,0,1.4,0.1,2.1,0.1c0.1,0,0.2-0.1,0.2-0.2C95.2,140.1,95.1,140,94.9,139.9z"/>
		<path class="st16" d="M95.9,146.6c-0.1-0.4-0.9-0.3-1.2-0.3c-0.8,0-1.5-0.3-2.3-0.3c-0.9,0-1.7,0-2.6-0.1c-0.8,0-1.7-0.1-2.5,0.1
			c-0.1,0-0.1,0.3,0,0.3c0.7,0.2,1.4,0.2,2.1,0.2c0.8,0,1.6,0.1,2.4,0.1c0.7,0,1.5,0,2.2,0.1c0.3,0.1,0.7,0.1,1,0.1
			c0.2,0,0.4-0.1,0.6,0C95.8,146.9,95.9,146.8,95.9,146.6z"/>
		<path class="st16" d="M95.8,153.2c-0.7,0.3-1.6-0.1-2.3-0.2c-0.8-0.1-1.6-0.3-2.5-0.5c-0.4-0.1-0.8-0.2-1.2-0.3
			c-0.4-0.1-0.7-0.2-1.1-0.4c-0.5-0.2-1-0.3-1.3-0.6c-0.1-0.1-0.2,0-0.2,0.1c-0.2,0.5,0.7,0.8,1,1c0.8,0.3,1.5,0.6,2.3,0.7
			c0.5,0.1,0.9,0.3,1.3,0.3c0.5,0.1,1.1,0.2,1.6,0.3c0.5,0.1,0.9,0.1,1.4,0.2c0.4,0,0.8,0,1.1-0.2C96.2,153.5,96.1,153.1,95.8,153.2
			z"/>
		<path class="st16" d="M94,160.2c-0.1,0.1-0.4,0-0.6,0c-0.2,0-0.5,0-0.7-0.1c-0.8,0-1.6-0.2-2.4-0.5c-0.7-0.3-1.3-0.7-1.9-1.2
			c-0.7-0.5-1.4-1-1.7-1.8c0-0.1-0.2-0.1-0.2,0c-0.1,0.8,0.5,1.4,1.1,1.9c0.7,0.6,1.5,1.2,2.4,1.6c0.9,0.4,1.8,0.5,2.7,0.5
			c0.4,0,1.2,0.2,1.5-0.2C94.3,160.3,94.1,160.1,94,160.2z"/>
		<path class="st16" d="M91.8,165.7c-0.4-0.1-0.8-0.1-1.2-0.2c-0.4-0.1-0.8-0.2-1.2-0.3c-0.9-0.2-1.6-0.4-2.3-1
			c-0.6-0.5-1.2-1-1.7-1.7c-0.5-0.6-0.6-1.4-0.9-2.1c-0.1-0.2-0.3-0.1-0.3,0.1c-0.1,1.8,1.4,3.2,2.7,4.2c0.7,0.6,1.5,0.8,2.3,1
			c0.5,0.1,0.9,0.2,1.4,0.3c0.4,0.1,1,0.2,1.4,0.1C92,166.1,92,165.8,91.8,165.7z"/>
		<path class="st16" d="M86.3,170.4c-0.3-0.1-0.7-0.2-1-0.3c-0.4-0.1-0.8-0.3-1.2-0.5c-0.8-0.5-1.6-1.1-2.3-1.8
			c-0.3-0.3-0.5-0.8-0.6-1.2c-0.2-0.4-0.3-0.9-0.4-1.3c-0.1-0.5,0-1,0-1.5c0-0.4,0.1-0.9,0.2-1.2c0-0.1,0-0.2-0.1-0.1
			c-0.3,0.1-0.3,0.5-0.4,0.7c-0.2,0.5-0.2,1-0.3,1.5c0,0.6,0.1,1.1,0.3,1.6c0.2,0.5,0.3,1,0.6,1.5c0.3,0.4,0.7,0.8,1,1.1
			c0.4,0.4,0.9,0.7,1.4,1c0.4,0.3,0.9,0.5,1.3,0.6c0.4,0.1,0.9,0.3,1.4,0.3C86.6,170.9,86.7,170.5,86.3,170.4z"/>
		<path class="st16" d="M77.9,172.4c-0.1,0-0.1-0.2-0.2-0.2c-0.1-0.1-0.3-0.3-0.4-0.4c-0.2-0.3-0.5-0.5-0.7-0.8
			c-0.4-0.7-0.8-1.4-0.9-2.1c-0.1-0.7,0-1.5,0.2-2.2c0.2-0.7,0.6-1.4,1-2c0.1-0.1-0.1-0.3-0.2-0.1c-0.1,0.2-0.3,0.3-0.5,0.5
			c-0.1,0.2-0.3,0.4-0.4,0.5c-0.2,0.3-0.4,0.7-0.6,1.1c-0.3,0.8-0.3,1.7-0.2,2.5c0.1,0.9,0.6,1.6,1.1,2.4c0.2,0.4,0.6,0.6,0.8,0.9
			c0.2,0.2,0.5,0.6,0.8,0.7C78.1,173,78.3,172.5,77.9,172.4z"/>
		<path class="st16" d="M71.9,164c-0.4,0.2-0.9,0.4-1.2,0.7c-0.4,0.3-0.6,0.6-0.8,1c-0.5,0.9-0.8,1.8-1,2.8
			c-0.1,0.4-0.2,0.8-0.1,1.2c0.1,0.3,0.2,0.6,0.3,0.9c0.1,0.4,0.5,1.3,1,0.8c0.1-0.1,0.1-0.3,0-0.3c-0.3-0.3-0.4-0.7-0.5-1
			c-0.1-0.3-0.2-0.5-0.2-0.8c0-0.4,0.1-0.8,0.2-1.1c0.1-0.8,0.5-1.6,0.9-2.4c0.4-0.7,1-1.1,1.6-1.6C72.1,164.1,72,164,71.9,164z"/>
		<path class="st16" d="M68,162.1c-0.4,0-0.9,0-1.3,0.2c-0.4,0.2-0.8,0.5-1.2,0.9c-0.7,0.6-1.2,1.5-1.5,2.5
			c-0.3,0.9-0.4,1.9-0.2,2.8c0.2,0.7,0.8,1.6,1.5,1.7c0.2,0,0.2-0.3,0.1-0.4c-0.5-0.4-1-1.1-1.1-1.8c-0.2-0.8,0-1.6,0.2-2.4
			c0.2-0.8,0.6-1.5,1.2-2c0.5-0.6,1.4-1.3,2.2-1.3C68.1,162.3,68.1,162.1,68,162.1z"/>
	</g>
	<path class="st11" d="M90.3,158.1c0.7-1.9,2-2.7,4.8-1.5c2.8,1.1,4.5,2,3.3,4.9c-1.1,3-3.1,6.8-3.9,8.2c-0.8,1.4-2.6,1.1-4.4,0.5
		c-1.8-0.6-4-2.5-3.4-4.1C87.4,164.6,89.5,160.3,90.3,158.1z"/>
	<path class="st18" d="M68.8,26.8c0-0.6-0.1-1.2-0.4-1.8c-0.4-1.2-1-2.3-1.7-3.3c-0.7-1-1.8-1.5-3-1.7c-1.2-0.2-2.4-0.1-3.6-0.1
		c-1.4,0.1-2.7,0.3-4.1,0.6c-2.6,0.6-5.1,1.6-7.6,2.5c-2.1,0.8-4.4,2.2-5.6,4.1C42.4,28,42.2,29,42.3,30c0.2,1.1,1.1,1.7,2.1,2.1
		c1.2,0.5,2.5,0.7,3.8,1c1.3,0.3,2.6,0.5,3.9,0.5c2,0,4.1,0,6.1-0.3c1-0.1,2-0.4,2.9-0.7c0.8-0.1,1.6-0.3,2.4-0.4
		c0.7-0.1,1.3-0.1,2-0.4c0.3-0.1,0.5-0.3,0.7-0.4c0.3-0.2,0.6-0.3,0.8-0.5c0.5-0.3,0.9-0.6,1.3-1c0.4-0.5,0.6-1,0.6-1.6
		C68.9,27.8,68.9,27.3,68.8,26.8z"/>
</g>
<rect x="169.8" y="26.6" class="st19" width="368.2" height="4.1"/>
</svg>
