<?xml version="1.0" encoding="utf-8"?>
<!-- Generator: Adobe Illustrator 22.0.1, SVG Export Plug-In . SVG Version: 6.00 Build 0)  -->
<svg version="1.1" id="Layer_1" xmlns="http://www.w3.org/2000/svg" xmlns:xlink="http://www.w3.org/1999/xlink" x="0px" y="0px"
	 viewBox="0 0 200.9 229.8" style="enable-background:new 0 0 200.9 229.8;" xml:space="preserve">
<style type="text/css">
	.st0{fill:#99B5BB;}
	.st1{fill:#AEC8C4;}
	.st2{fill:#97AFAC;}
	.st3{fill:#647B87;}
	.st4{fill:#48516C;}
	.st5{fill:#A1986F;}
	.st6{fill:#94A2A0;}
	.st7{fill:#516470;}
	.st8{fill:#ABB9B8;}
	.st9{fill:#6893AD;}
	.st10{fill:#4E7185;}
	.st11{fill:#6E8183;}
	.st12{fill:#636E8F;}
	.st13{fill:#6E7D7B;}
</style>
<g>
	<path class="st0" d="M82.9,57.1c0,0,9.1,1.9,13,3c3.8,1.1,6.1,1.8,4.6,9.8c-1.4,8-9.3,51.3-10.6,56.8c-1.3,5.4-1.9,7.7-10.1,6.6
		c-8.2-1.1-12-2.4-12-2.4L69,74.1L82.9,57.1z"/>
	<path class="st1" d="M37.2,83.5c0,0-0.7,9.4-2,19.2c-1.3,9.8-1.3,19.5-0.3,24.6c1,5.1,3.6,9.9,3.6,9.9s0.1,10.1,2.1,25.4
		c2,15.2,12.5,54.6,12.5,54.6l10.7,0.5c0,0-4.6-24-7-42.9c-2.5-18.9-3.9-35.1-3.9-35.1s3.4,0.3,5.2,0.2s4.3-0.5,4.3-0.5
		s6.7,28.3,10.8,45.4c4.1,17.2,7.8,32.8,7.8,32.8l11.8,1.2c0,0-6-27.3-8.9-45.3c-2.9-18-5.5-39.4-6.6-51.2
		C76.1,110.7,79,95.8,79,95.8s4,14.3,13.1,16c9.1,1.6,16.1-5,20.2-13c4.2-8,6-13.8,6-13.8l-7.7-4.5c0,0-3.2,14-8.8,18.8
		c-5.7,4.8-11.4,1.2-13.2-6.9c-1.8-8.1-0.9-21.2-4.9-23.4c-4-2.1-26.9-1.8-26.9-1.8s-9.1-0.2-12.3,0c-3.2,0.2-11.5,3.5-20.3,12.3
		C15.5,88.2,7.6,105.9,7,119.1c-0.6,13.2,1.7,20.8,1.7,20.8l8.4-2.3c0,0-2-5.3-0.2-19.2c1.8-13.9,8.5-24.2,12.3-28
		C32.9,86.5,37.2,83.5,37.2,83.5z"/>
	<g>
		<path class="st2" d="M68,137.6c-1.9,0.5-3.7,1.1-5.7,1.4c-2.1,0.3-4.2,0.6-6.4,0.5c-2.1,0-4.1-0.2-6.2-0.4
			c-1.1-0.1-2.2-0.4-3.3-0.6c-0.9-0.2-1.7-0.2-2.6-0.5c-0.1,0-0.2,0.1-0.1,0.2c0.5,0.6,1.4,0.7,2.1,0.9c1.1,0.3,2.3,0.5,3.4,0.7
			c2.2,0.4,4.4,0.6,6.7,0.6c2.2,0,4.3-0.1,6.4-0.5c0.5-0.1,1.1-0.2,1.6-0.3c0.6-0.1,1.1-0.3,1.7-0.5c0.9-0.3,1.8-0.5,2.5-1.1
			C68.4,137.8,68.2,137.6,68,137.6z"/>
		<path class="st2" d="M38.5,73c-0.3,0.9-0.3,2-0.4,2.9c-0.2,1.1-0.4,2.2-0.6,3.3c-0.2,1.1-0.3,2.2-0.5,3.4c-0.1,0.9-0.4,2-0.2,3
			c0,0.2,0.3,0.2,0.4,0c0.4-0.9,0.4-2,0.5-3c0.2-1.1,0.3-2.3,0.4-3.4c0.2-1,0.3-2,0.4-3c0.1-1,0.1-2.1,0.3-3.1
			C38.8,72.9,38.6,72.9,38.5,73z"/>
		<path class="st2" d="M80.6,100.1c-0.3-0.8-0.5-1.6-0.8-2.3c-0.4-0.8-0.5-1.8-0.7-2.6c-0.5-1.9-0.9-3.8-1.4-5.7
			c-0.2-0.9-0.3-1.8-0.6-2.7c-0.2-0.9-0.4-1.8-0.6-2.6c-0.3-1.9-0.7-3.8-0.8-5.8c0-0.1-0.2-0.1-0.2,0c-0.1,1.9,0.3,3.7,0.5,5.5
			c0.1,0.9,0.3,1.8,0.5,2.7c0.2,1,0.4,2,0.6,2.9c0.4,2,0.9,4,1.4,5.9c0.2,0.8,0.4,1.6,0.8,2.4C79.6,98.6,80.1,99.3,80.6,100.1
			C80.6,100.2,80.7,100.2,80.6,100.1z"/>
	</g>
	<path class="st3" d="M81.6,63.9c0,0,1.1,5-1.4,5.4c-2.5,0.4-12.7,1.2-21.9,1c-9.2-0.2-12.9-1-14.1-1.6c-1.2-0.6-1.6-1.6-1.6-3.2
		c-0.1-1.6,0-3.3,0-3.3L81.6,63.9z"/>
	<path class="st4" d="M32.9,119.5c0-1.1,1.1-1.2,3.3-1.2c2.3,0,37.2,1.2,39.2,1.2c2.1,0,2.6-0.2,2.8,0.6c0.2,0.8,0.1,2.7,0,3.4
		c-0.1,0.7,0,0.8-1.7,0.9c-1.7,0.1-13.5-0.1-23.9-0.4c-10.4-0.4-17.8-0.4-18.3-0.7c-0.6-0.3-1.4-0.5-1.4-1.1
		C32.8,121.6,32.9,119.5,32.9,119.5z"/>
	<polygon class="st5" points="115.2,225.7 118.3,225.7 117.6,7.2 114.2,7.2 	"/>
	<polygon class="st6" points="117.6,9.5 196.9,9.5 196.9,57.1 117.8,57.1 	"/>
	<path class="st3" d="M113.5,86.5c0,0-5.2-1.5-5.3-2.7c-0.1-1.2,0.7-1.4,0.7-1.4s-2-2.9-1.2-6.6c0.9-3.7,2.6-5,4.3-4.6
		c1.7,0.3,2.5,1.4,2.5,1.4s0.2-1.7,4.4-1.5c4.3,0.2,4.9,2.1,5,5.9c0.1,3.7,1,10.5-1.3,12c-2.3,1.5-7.6,0.7-8.3-0.2
		C113.6,87.7,113.5,86.5,113.5,86.5z"/>
	<path class="st7" d="M116.9,75.5c-0.4-0.7-0.8-1.4-1.4-2c-0.3-0.3-0.6-0.7-0.9-1c-0.2-0.2-0.4-0.4-0.6-0.5
		c-0.2-0.1-0.4-0.2-0.6-0.3c-0.1-0.1-0.2,0-0.1,0.1c0.4,0.5,1,0.9,1.5,1.5c0.5,0.5,0.8,1.2,1.2,1.8c0.7,1.2,1.3,2.6,1.2,4
		c0,0.7-0.4,1.4-0.9,1.8c-0.5,0.5-1.5,0.2-2.1,0.1c-0.7-0.2-1.3-0.7-1.8-1.1c-0.4-0.4-0.8-0.9-1.3-1.2c-0.1-0.1-0.2,0-0.2,0.2
		c0.2,0.7,0.8,1.3,1.3,1.7c0.3,0.3,0.6,0.5,0.9,0.7c-0.1,0.5-0.2,1-0.2,1.4c0,0.5,0,1,0,1.4c-0.5-0.2-1-0.3-1.6-0.5
		c-0.7-0.3-1.4-0.7-2-1.1c-0.1-0.1-0.2,0.1-0.1,0.2c0.6,0.6,1.2,1.1,1.9,1.5c0.3,0.2,0.7,0.3,1.1,0.4c0.3,0.1,0.5,0.2,0.7,0.2
		c0,0.5,0.2,1.1,0.3,1.6c0.1,0.4,0.1,1,0.6,1c0,0,0,0,0.1,0c0.2-0.3-0.1-0.8-0.1-1.1c-0.1-0.6-0.2-1.1-0.3-1.6c0-0.1,0-0.2,0-0.3
		c0,0,0-0.1,0-0.1c0-0.5,0-1.1,0-1.6c0-0.4,0.1-0.8,0.1-1.2c0.2,0.1,0.4,0.2,0.7,0.3c0.6,0.2,1.6,0.4,2.2,0c0.6-0.3,1-0.9,1.2-1.5
		C118.2,78.6,117.6,76.9,116.9,75.5z"/>
	<g>
		<path class="st2" d="M15.9,130.5c-0.6,0-1.2-0.1-1.8-0.1c-0.7,0-1.4,0-2.1,0.2c-1.5,0.3-2.9,0.6-4.2,1.2c-0.1,0-0.2,0.3,0,0.3
			c0.5,0.1,1.1-0.2,1.6-0.4c0.7-0.2,1.5-0.4,2.2-0.5c0.8-0.2,1.6-0.2,2.4-0.2c0.4,0,0.7,0,1.1,0c0.3,0,0.6,0.1,0.9,0.2
			C16.2,131.1,16.2,130.5,15.9,130.5z"/>
		<path class="st2" d="M15.9,125.1c-1.3-0.4-2.7-0.4-4.1-0.5c-0.8,0-1.5-0.1-2.3-0.1c-0.7,0-1.5,0.2-2.2,0.3c-0.1,0-0.1,0.2,0,0.2
			c0.7,0.1,1.5,0,2.2,0c0.7,0,1.4,0,2.1,0.1c1.4,0.1,2.8,0.1,4.1,0.5C16.1,125.8,16.2,125.2,15.9,125.1z"/>
		<path class="st2" d="M16.4,119.6c-0.7-0.2-1.3-0.4-2-0.6c-0.8-0.2-1.7-0.5-2.5-0.6c-1.5-0.3-3.1-0.3-4.6-0.3c-0.2,0-0.2,0.3,0,0.3
			c0.7,0.1,1.5,0.2,2.2,0.2c0.8,0,1.7,0.1,2.5,0.3c0.8,0.2,1.6,0.4,2.3,0.6c0.4,0.1,0.7,0.1,1.1,0.2c0.3,0.1,0.6,0.3,0.9,0.3
			C16.6,120,16.7,119.7,16.4,119.6z"/>
		<path class="st2" d="M17.4,113.7c-0.5-0.4-1.2-0.6-1.8-0.7c-0.8-0.2-1.6-0.4-2.4-0.6c-0.8-0.2-1.6-0.3-2.4-0.3
			c-0.5,0-0.9-0.1-1.4-0.1c-0.4,0-0.8-0.1-1.1,0c-0.2,0.1-0.1,0.3,0.1,0.3c0.3-0.1,0.7,0.1,1,0.1c0.4,0,0.8,0.1,1.2,0.1
			c0.8,0.1,1.6,0.2,2.4,0.4c0.7,0.2,1.5,0.4,2.2,0.6c0.7,0.2,1.3,0.6,2,0.7C17.4,114.2,17.5,113.8,17.4,113.7z"/>
		<path class="st2" d="M18.7,109.2c-0.2-0.5-0.9-0.7-1.3-0.9c-0.7-0.4-1.5-0.8-2.2-1.1c-0.8-0.4-1.6-0.7-2.4-0.9
			c-0.9-0.2-1.8-0.3-2.7-0.5c-0.1,0-0.2,0.2-0.1,0.2c0.6,0.3,1.3,0.5,1.9,0.6c0.9,0.2,1.7,0.4,2.5,0.8c0.7,0.3,1.4,0.7,2.1,1
			c0.3,0.1,0.6,0.3,1,0.5c0.1,0,0.7,0.3,0.8,0.4C18.3,109.7,18.9,109.5,18.7,109.2z"/>
		<path class="st2" d="M20.8,103c-0.6-0.4-1.2-0.9-1.8-1.2c-0.7-0.4-1.4-0.8-2.1-1.2c-0.7-0.3-1.4-0.6-2.1-0.8
			c-0.7-0.2-1.4-0.5-2.1-0.5c-0.2,0-0.2,0.3,0,0.3c0.3,0,0.6,0.2,0.9,0.3c0.4,0.1,0.8,0.2,1.1,0.4c0.8,0.3,1.6,0.6,2.3,1
			c1.3,0.6,2.4,1.4,3.6,2.2C20.8,103.8,21.1,103.3,20.8,103z"/>
		<path class="st2" d="M23.2,97.5c-0.4-0.2-0.6-0.6-1-0.9c-0.8-0.5-1.5-1.1-2.3-1.6c-0.8-0.4-1.7-0.7-2.5-1.1
			c-0.4-0.1-0.8-0.2-1.3-0.4c-0.3-0.1-0.7-0.2-1-0.2c-0.1,0-0.2,0.2,0,0.2c0.3,0.1,0.6,0.3,0.9,0.5c0.4,0.2,0.7,0.3,1.1,0.4
			c0.8,0.3,1.6,0.6,2.4,1c0.8,0.4,1.4,0.9,2.1,1.4c0.6,0.5,1.1,1,1.7,1.4c0.2,0.1,0.4,0,0.4-0.2C23.6,97.7,23.4,97.6,23.2,97.5z"/>
		<path class="st2" d="M27.3,91.6c-1.3-0.9-2.5-1.8-4-2.5c-0.8-0.4-1.6-0.7-2.4-1c-0.8-0.3-1.6-0.7-2.5-0.8c-0.1,0-0.2,0.2-0.1,0.2
			c1.4,0.9,3.1,1.3,4.6,2.1c1.4,0.7,2.6,1.7,3.9,2.6C27.3,92.5,27.6,91.8,27.3,91.6z"/>
		<path class="st2" d="M31.4,87.7c-0.5-0.6-1.1-1.2-1.7-1.7c-0.7-0.6-1.3-1.2-1.9-1.7c-0.7-0.5-1.4-1-2.1-1.4
			c-0.4-0.3-0.8-0.5-1.2-0.7c-0.4-0.2-0.9-0.3-1.2-0.6c-0.1-0.1-0.2,0.1-0.1,0.2c1.3,1.2,3,2,4.4,3.2c0.7,0.6,1.2,1.2,1.9,1.8
			c0.3,0.3,0.6,0.6,0.9,0.9c0.3,0.3,0.5,0.6,0.9,0.7C31.4,88.3,31.5,87.9,31.4,87.7z"/>
		<path class="st2" d="M36,83.8c-0.2-0.3-0.5-0.6-0.7-0.9c-0.3-0.3-0.5-0.7-0.8-1c-0.6-0.7-1.2-1.3-1.8-2c-1.1-1.2-2.5-2.5-4-3.2
			c-0.2-0.1-0.3,0.1-0.1,0.2c0.7,0.5,1.3,1.1,1.9,1.6c0.6,0.6,1.2,1.2,1.8,1.8c0.6,0.6,1.1,1.3,1.6,1.9c0.6,0.6,1,1.3,1.6,1.9
			C35.8,84.5,36.2,84.2,36,83.8z"/>
		<path class="st2" d="M38.2,76.7c-0.1-0.4-0.5-0.6-0.7-0.9c-0.3-0.5-0.8-0.9-1.2-1.3c-0.8-0.7-1.6-1.5-2.5-2
			c-0.1-0.1-0.2,0.1-0.1,0.2c0.4,0.3,0.6,0.7,1,1.1c0.3,0.4,0.7,0.7,1.1,1.1c0.4,0.3,0.7,0.7,1,1.1c0.3,0.3,0.7,0.7,0.9,1.1
			C37.8,77.3,38.3,77,38.2,76.7z"/>
	</g>
	<g>
		<path class="st2" d="M91.8,99.5c-0.3-0.4-1.1,0.1-1.4,0.2c-1,0.5-1.9,0.9-2.7,1.5c-0.8,0.6-1.5,1.3-2.2,2.2
			c-0.3,0.4-0.6,0.9-0.9,1.4c-0.2,0.4-0.4,0.8-0.3,1.2c0.1,0.2,0.4,0.3,0.5,0.1c0.2-0.3,0.3-0.7,0.5-1c0.2-0.4,0.4-0.7,0.7-1.1
			c0.5-0.7,1.1-1.4,1.7-2c0.7-0.6,1.5-1.1,2.3-1.5c0.5-0.2,1.1-0.7,1.7-0.7C91.8,99.7,91.9,99.6,91.8,99.5z"/>
		<path class="st2" d="M89.3,95.7c-1.8,0-3.7,0.2-5.3,1.2c-0.8,0.5-1.5,1.1-2.1,1.8c-0.4,0.5-1,1.1-0.8,1.8c0,0.2,0.3,0.2,0.3,0
			c0.2-0.6,0.7-1.1,1.1-1.6c0.6-0.6,1.3-1.1,2.1-1.5c1.4-0.7,3.1-0.9,4.7-0.9C89.7,96.3,89.7,95.7,89.3,95.7z"/>
		<path class="st2" d="M88,91.8c-0.9-0.2-1.7-0.3-2.6-0.2c-0.9,0.1-1.8,0.3-2.6,0.6c-0.7,0.2-1.6,0.6-2.1,1.1
			c-0.5,0.5-1.2,1-1.2,1.8c0,0.1,0.2,0.2,0.3,0c0.1-0.3,0.4-0.6,0.7-0.8c0.3-0.3,0.6-0.5,0.9-0.7c0.6-0.4,1.3-0.7,2-0.9
			c0.7-0.2,1.5-0.4,2.3-0.4c0.8-0.1,1.5,0.1,2.2,0.3C88.2,92.5,88.3,91.9,88,91.8z"/>
		<path class="st2" d="M87.3,87.5c-1-0.3-2-0.6-3.1-0.5c-1,0-2,0.3-3,0.5c-1,0.3-1.9,0.8-2.7,1.4c-0.4,0.3-1.2,1-0.9,1.5
			c0,0.1,0.2,0.1,0.2,0c0.1-0.3,0.5-0.6,0.7-0.8c0.3-0.3,0.7-0.5,1.1-0.8c0.7-0.4,1.5-0.7,2.3-0.9c0.8-0.2,1.6-0.3,2.5-0.3
			c1,0,1.8,0.3,2.7,0.6c0,0,0,0,0,0C87.5,88.3,87.8,87.7,87.3,87.5z"/>
		<path class="st2" d="M86.9,83.2c-0.8-0.6-1.8-1-2.8-1c-1.1-0.1-2.3-0.2-3.4,0c-0.9,0.2-1.8,0.5-2.5,1c-0.8,0.5-1.3,1.2-1.6,2.1
			c0,0.1,0.1,0.2,0.2,0.1c0.7-1.5,2.4-2.3,3.9-2.6c1-0.2,2-0.1,3,0c0.9,0.1,1.8,0.4,2.5,0.9c0.1,0.1,0.1,0.1,0.3,0.1c0,0,0,0,0.1,0
			C86.9,83.8,87.1,83.3,86.9,83.2z"/>
		<path class="st2" d="M83.3,77.4c-1.3-0.5-2.8-0.1-4.1,0.3c-1,0.3-1.9,0.8-2.3,1.7c-0.1,0.1,0.1,0.2,0.2,0.1
			c0.5-0.9,1.6-1.3,2.4-1.5c1.3-0.4,2.5-0.4,3.8-0.5C83.3,77.5,83.3,77.4,83.3,77.4z"/>
		<path class="st2" d="M94.4,101.6c-1,0.4-1.6,1.4-2.1,2.3c-0.6,1-1,2.2-1.3,3.3c-0.3,0.8-0.3,1.7-0.4,2.6c-0.1,0.4-0.2,1.3,0.4,1.4
			c0.3,0,0.4-0.4,0.2-0.6c0,0,0-0.1,0-0.1c0-0.1,0-0.3,0-0.4c0-0.3,0.1-0.5,0.1-0.8c0.1-0.3,0-0.6,0.1-1c0-0.5,0.2-1,0.4-1.5
			c0.5-1.8,1.4-3.7,2.8-5.1C94.7,101.7,94.5,101.6,94.4,101.6z"/>
		<path class="st2" d="M99.6,110.2c0,0-0.3-0.3-0.3-0.4c-0.2-0.2-0.3-0.4-0.4-0.6c-0.4-0.6-0.7-1.1-0.9-1.8
			c-0.3-0.9-0.4-1.7-0.4-2.6c0-0.4,0.1-0.9,0.1-1.3c0-0.4,0-0.9,0.3-1.2c0.1-0.1-0.1-0.2-0.2-0.1c-0.6,0.6-0.6,1.6-0.7,2.4
			c-0.2,1.1,0,2.2,0.3,3.3c0.2,0.8,0.6,1.4,1,2.1c0.3,0.4,0.7,1.2,1.3,1.1C100.1,110.9,100.1,110.1,99.6,110.2z"/>
		<path class="st2" d="M107.7,105.1c0-0.1-0.1-0.2-0.2-0.2c-0.3-0.1-0.5-0.1-0.8-0.2c-0.7-0.3-1.4-0.6-2-1c-0.7-0.5-1.3-1.1-1.9-1.7
			c-0.2-0.3-0.5-0.5-0.7-0.8c-0.2-0.3-0.6-0.5-0.7-0.9c-0.1-0.1-0.2-0.1-0.2,0c-0.1,0.6,0.5,1.1,0.8,1.6c0.5,0.7,1.2,1.3,1.9,1.9
			c0.6,0.5,1.3,0.9,2.1,1.2c0.5,0.2,1.1,0.6,1.6,0.3C107.6,105.4,107.7,105.2,107.7,105.1z"/>
		<path class="st2" d="M111.1,99.8c-1.2-0.3-2.3-0.6-3.4-1.2c-0.6-0.3-1.1-0.6-1.6-0.9c-0.5-0.3-0.9-0.7-1.4-1
			c-0.1,0-0.2,0.1-0.1,0.2c0.4,0.4,0.8,0.8,1.2,1.2c0.5,0.4,1.1,0.7,1.7,1c0.6,0.3,1.2,0.5,1.8,0.8c0.6,0.2,1.2,0.5,1.9,0.4
			C111.3,100.3,111.4,99.9,111.1,99.8z"/>
		<path class="st2" d="M113.4,95.4C113.4,95.4,113.4,95.4,113.4,95.4c-0.1-0.1-0.3-0.1-0.4,0c0.1-0.1-0.5-0.2-0.6-0.2
			c-0.3-0.1-0.6-0.2-0.9-0.3c-0.7-0.2-1.3-0.5-2-0.7c-0.5-0.2-1.1-0.5-1.6-0.8c-0.4-0.2-0.6-0.6-1.2-0.7c-0.1,0-0.2,0.2-0.1,0.2
			c0.4,0.4,0.7,0.7,1.1,1c0.6,0.4,1.1,0.6,1.8,0.9c0.6,0.2,1.2,0.5,1.7,0.7c0.6,0.2,1.2,0.4,1.9,0.4
			C113.5,95.9,113.6,95.6,113.4,95.4z"/>
		<path class="st2" d="M115.6,91.5c-0.2-0.4-0.8-0.3-1.2-0.5c-0.7-0.3-1.4-0.5-2.1-0.9c-0.6-0.3-1.2-0.5-1.8-0.9
			c-0.6-0.4-1.1-0.8-1.8-1.1c-0.2-0.1-0.3,0.1-0.2,0.3c0.9,0.9,1.9,1.6,3.1,2.1c1.2,0.5,2.4,1.1,3.6,1.4
			C115.5,91.9,115.7,91.7,115.6,91.5z"/>
	</g>
	<g>
		<path class="st2" d="M61.7,210.2c-0.5,0.4-1.3,0.5-1.9,0.5c-0.5,0.1-1,0.2-1.5,0.2c-0.4,0-0.9,0-1.3,0c-0.9,0-1.9,0-2.8-0.1
			c-0.5,0-0.9-0.1-1.4-0.1c-0.2,0-0.5,0-0.7-0.1c-0.2,0-0.3,0.1-0.5,0c-0.1-0.1-0.2,0.1-0.1,0.2c0.3,0.2,0.7,0.2,1,0.3
			c0.5,0.1,0.9,0.1,1.4,0.2c1.1,0.1,2.3,0.1,3.4,0.1c0.5,0,1,0,1.5,0c0.5,0,0.9-0.1,1.4-0.2c0.5-0.1,1.6-0.2,1.8-0.8
			C62.2,210.3,61.9,210,61.7,210.2z"/>
		<path class="st2" d="M60.6,203.9c-0.1,0.1-0.6,0.2-0.7,0.2c-0.4,0.2-0.8,0.2-1.2,0.3c-0.9,0.2-1.9,0.3-2.8,0.4
			c-0.9,0.1-1.7,0-2.6,0c-0.8,0-1.7,0.1-2.6,0c-0.2,0-0.2,0.2-0.1,0.2c0.8,0.3,1.6,0.3,2.4,0.3c1.1,0,2.1,0.1,3.2,0
			c1-0.1,2-0.2,3-0.4c0.4-0.1,0.8-0.3,1.3-0.4c0.2,0,0.5-0.1,0.6-0.4C61.2,204,60.8,203.7,60.6,203.9z"/>
		<path class="st2" d="M59.7,198.1c-0.4,0-0.8,0.1-1.2,0.2c-0.5,0.1-1,0.1-1.5,0.2c-0.9,0.1-1.8,0.2-2.8,0.2
			c-0.9,0.1-1.9,0.1-2.8,0.1c-0.5,0-0.9-0.1-1.4-0.1c-0.3,0-0.7,0-1,0c-0.1,0-0.2,0.1-0.1,0.2c0.1,0.5,1.4,0.4,1.8,0.5
			c1.1,0.1,2.2,0.1,3.2,0.1c1.1-0.1,2.1-0.1,3.2-0.3c0.9-0.1,2-0.1,2.8-0.6C60,198.5,59.9,198.1,59.7,198.1z"/>
		<path class="st2" d="M58.2,192.9c-0.2,0.1-0.6,0.1-0.9,0.1c-0.4,0-0.9,0.1-1.3,0.1c-0.9,0.1-1.9,0.1-2.8,0.1c-1,0-2,0-3,0
			c-0.9,0-1.9,0-2.8,0.1c-0.2,0-0.2,0.4,0,0.4c1,0.1,2,0.1,3,0.1c1.1,0,2.3,0,3.4,0c1,0,2-0.1,3-0.2c0.5-0.1,1.5,0,1.8-0.4
			C58.8,193.1,58.5,192.8,58.2,192.9z"/>
		<path class="st2" d="M57.3,186.6c-0.2,0.1-0.6,0.1-0.9,0.2c-0.4,0.1-0.9,0.2-1.3,0.3c-1,0.2-2,0.3-3.1,0.4
			c-1.9,0.1-3.8,0.5-5.7,0.5c-0.1,0-0.2,0.2-0.1,0.3c0.8,0.4,1.7,0.3,2.6,0.2c1.1-0.1,2.2-0.2,3.3-0.3c1.1-0.1,2.2-0.2,3.3-0.4
			c0.5-0.1,0.9-0.2,1.4-0.3c0.3-0.1,0.5,0,0.7-0.3C57.8,186.8,57.5,186.5,57.3,186.6z"/>
		<path class="st2" d="M57.3,180.6C57.3,180.6,57.3,180.6,57.3,180.6c-0.1-0.2-0.2-0.3-0.3-0.3c0,0,0,0,0,0c-0.1,0-0.2,0.1-0.2,0.1
			c-0.7,0.3-1.5,0.4-2.2,0.5c-1,0.2-2,0.2-3.1,0.3c-1,0.1-2,0.1-3.1,0.1c-0.5,0-1-0.1-1.5-0.1c-0.6,0-1.1,0.1-1.7-0.2
			c-0.1-0.1-0.2,0.2-0.1,0.2c0.9,0.4,1.9,0.4,2.8,0.5c1.2,0.1,2.3,0.2,3.5,0.1c1-0.1,2-0.1,3-0.3c0.9-0.2,1.9-0.2,2.7-0.7
			C57.3,180.9,57.4,180.7,57.3,180.6z"/>
		<path class="st2" d="M55.9,173.2c-0.4-0.1-0.7,0.1-1.1,0.2c-0.6,0.1-1.1,0.2-1.7,0.3c-1,0.1-2,0.3-3,0.4c-1,0.1-2,0.1-3,0.1
			c-1.1,0-2.1,0.2-3.2,0.2c-0.2,0-0.2,0.3,0,0.3c2.1,0,4.2,0.2,6.2,0.1c1.1-0.1,2.1-0.3,3.2-0.4c0.5-0.1,1-0.1,1.5-0.2
			c0.4-0.1,0.9-0.1,1.2-0.5C56.1,173.4,56.1,173.2,55.9,173.2z"/>
		<path class="st2" d="M55.1,167.4c-0.2,0.1-0.4,0.1-0.6,0.1c-0.2,0-0.5,0.1-0.7,0.2c-0.5,0.1-1,0.2-1.5,0.2
			c-1.2,0.2-2.3,0.3-3.5,0.3c-1.2,0-2.3,0-3.5,0c-0.5,0-1,0-1.6,0c-0.3,0-0.5,0-0.8,0c-0.3,0-0.6,0-0.8,0c-0.1,0-0.2,0.1-0.1,0.2
			c0.9,0.4,2.1,0.4,3.1,0.4c1.3,0,2.6,0.1,3.9,0.1c1.2,0,2.5-0.1,3.7-0.3c0.6-0.1,1.1-0.2,1.7-0.3c0.4-0.1,0.9-0.1,1.1-0.5
			C55.6,167.5,55.3,167.3,55.1,167.4z"/>
		<path class="st2" d="M54.3,161.1c-0.5,0-1,0.2-1.4,0.2c-0.6,0.1-1.2,0.2-1.7,0.2c-1.2,0.1-2.3,0.2-3.5,0.1c-1.2,0-2.3,0-3.5-0.1
			c-1-0.1-2.1,0-3.1-0.2c-0.2,0-0.3,0.2-0.2,0.3c0.2,0.2,0.6,0.3,0.9,0.3c0.6,0.1,1.2,0.2,1.8,0.2c1.2,0.1,2.5,0.1,3.7,0.1
			c1.2,0,2.5,0.1,3.7-0.1c0.6-0.1,1.3-0.2,1.9-0.2c0.5-0.1,1-0.3,1.5-0.3C54.7,161.6,54.6,161.1,54.3,161.1z"/>
		<path class="st2" d="M53.1,155.4c0,0-0.9,0.1-1,0.1c-0.6,0.1-1.2,0.1-1.7,0.2c-1.1,0.1-2.2,0-3.3,0c-1.2,0-2.3,0-3.5-0.1
			c-0.6,0-1.2-0.1-1.8-0.1c-0.5,0-0.9-0.2-1.4-0.1c-0.2,0-0.1,0.3,0,0.3c0.5,0,1,0.2,1.5,0.3c0.6,0.1,1.2,0.1,1.8,0.1
			c1.2,0.1,2.5,0.1,3.7,0.1c1.2,0,2.3,0.1,3.5-0.1c0.5,0,1.1-0.1,1.6-0.2c0.3-0.1,0.7,0,1-0.2C53.9,155.5,53.4,155.1,53.1,155.4z"/>
		<path class="st2" d="M52.8,149.4c-1.1,0-2.2,0.3-3.3,0.3c-1.1,0-2.2,0-3.4-0.1c-1.1-0.1-2.2,0-3.4-0.1c-0.6,0-1.2-0.1-1.8-0.1
			c-0.5-0.1-1-0.2-1.6,0c-0.1,0-0.1,0.2,0,0.3c2.1,0.6,4.3,0.5,6.5,0.6c1.1,0.1,2.2,0.1,3.3,0.1c0.6,0,1.1,0,1.7-0.1
			c0.6-0.1,1.2-0.2,1.8-0.2C53.3,150.1,53.3,149.4,52.8,149.4z"/>
		<path class="st2" d="M52.2,144c-0.5-0.1-1,0-1.5,0c-0.6,0-1.1,0-1.7,0c-1.1-0.1-2.2-0.2-3.4-0.2c-1.1,0-2.2-0.1-3.3-0.1
			c-0.5,0-1.1,0-1.6,0c-0.5,0-1-0.2-1.5,0c-0.2,0-0.1,0.2,0,0.3c0.9,0.3,1.9,0.3,2.9,0.4c1.1,0,2.2,0,3.3,0.1c1.1,0,2.2,0.1,3.4,0.2
			c1.1,0.1,2.3,0.1,3.4,0C52.4,144.5,52.5,144.1,52.2,144z"/>
	</g>
	<g>
		<path class="st2" d="M90.1,209.6c-0.2,0.1-0.6,0.2-0.8,0.2c-0.4,0.1-0.9,0.2-1.3,0.3c-1,0.2-1.9,0.3-2.9,0.4c-1,0.1-1.9,0-2.9,0
			c-0.4,0-0.9,0-1.3-0.1c-0.4,0-0.8-0.1-1.2-0.1c-0.1,0-0.2,0.2-0.1,0.3c0.6,0.4,1.7,0.4,2.4,0.4c1.1,0.1,2.2,0.1,3.3,0
			c1-0.1,2.1-0.2,3.1-0.4c0.5-0.1,1-0.2,1.5-0.4c0.2-0.1,0.5-0.1,0.7-0.3C90.7,209.7,90.3,209.4,90.1,209.6z"/>
		<path class="st2" d="M88.8,202.6c-0.8,0.4-1.6,0.7-2.4,0.8c-1,0.2-2,0.2-3,0.2c-0.9,0-1.9,0-2.8-0.1c-0.5-0.1-1-0.1-1.5-0.2
			c-0.5-0.1-1.1-0.1-1.5-0.3c-0.1-0.1-0.3,0.1-0.2,0.2c0.6,0.5,1.5,0.6,2.3,0.7c1.1,0.2,2.3,0.2,3.4,0.2c2,0,4.1-0.1,5.9-1.1
			C89.4,202.9,89.1,202.5,88.8,202.6z"/>
		<path class="st2" d="M87.2,195.8c0-0.1-0.6,0.2-0.7,0.2c-0.5,0.2-0.9,0.3-1.4,0.4c-1.1,0.2-2.2,0.4-3.3,0.5c-1,0.1-2,0.1-3,0.1
			c-0.9,0-1.9-0.1-2.8-0.2c-0.1,0-0.2,0.2,0,0.3c1,0.2,1.8,0.4,2.8,0.5c1.2,0,2.4,0,3.6-0.1c1.1-0.1,2.2-0.2,3.3-0.5
			c0.5-0.1,0.9-0.3,1.4-0.4c0.2-0.1,0.5-0.2,0.5-0.5C87.7,195.7,87.4,195.6,87.2,195.8z"/>
		<path class="st2" d="M85.8,189.1c-0.3,0.1-0.6,0.1-0.9,0.2c-0.4,0.1-0.8,0.3-1.3,0.4c-0.9,0.2-1.9,0.3-2.9,0.5
			c-0.9,0.1-1.9,0.2-2.8,0.3c-0.8,0.1-1.8,0.2-2.6,0.1c-0.1,0-0.2,0.2,0,0.2c0.9,0.2,1.7,0.2,2.6,0.2c1.1,0,2.3-0.1,3.4-0.3
			c1-0.1,2-0.3,3-0.6c0.4-0.1,0.8-0.3,1.3-0.4c0.3-0.1,0.5-0.2,0.5-0.5C86.1,189.1,85.9,189.1,85.8,189.1z"/>
		<path class="st2" d="M84.8,181.8c0-0.3-0.3-0.4-0.5-0.2c-0.8,0.3-1.6,0.5-2.4,0.7c-1,0.2-2,0.3-3,0.4c-1,0.1-1.9,0.2-2.9,0.3
			c-0.4,0-0.9,0.1-1.3,0.1c-0.3,0-0.6,0.1-0.9,0.1c-0.1,0-0.2,0.2-0.1,0.2c0.2,0.2,0.4,0.2,0.6,0.2c0.4,0,0.9,0,1.4,0
			c1.1,0,2.2-0.1,3.3-0.2c2-0.2,3.9-0.4,5.7-1.2C84.8,182,84.8,181.9,84.8,181.8C84.8,181.8,84.8,181.8,84.8,181.8z"/>
		<path class="st2" d="M83.3,172.8C83.3,172.8,83.3,172.7,83.3,172.8c-0.1-0.3-0.4-0.3-0.5-0.2c-0.8,0.2-1.6,0.5-2.5,0.7
			c-1,0.2-1.9,0.3-2.9,0.5c-1,0.1-1.9,0.2-2.9,0.3c-0.4,0-0.9,0.1-1.3,0.1c-0.5,0-1,0.1-1.5,0c-0.2,0-0.3,0.2-0.1,0.3
			c0.3,0.1,0.7,0.1,1,0.1c0.5,0,1,0,1.5,0c1,0,2-0.1,3-0.2c2-0.2,4-0.5,5.9-1.3C83.2,173.1,83.3,172.9,83.3,172.8z"/>
		<path class="st2" d="M81.7,165.1c-1.8,0.6-3.6,1.2-5.5,1.5c-1,0.2-1.9,0.2-2.9,0.4c-0.5,0.1-1.1,0.1-1.6,0.2c-0.4,0-1,0.1-1.4,0
			c-0.3-0.1-0.4,0.3-0.1,0.4c0.8,0.2,1.8,0,2.7,0c1.1-0.1,2.2-0.2,3.3-0.4c1.1-0.1,2.1-0.4,3.1-0.7c0.5-0.1,1-0.3,1.5-0.4
			c0.4-0.1,0.9-0.3,1.3-0.6C82.2,165.4,82,165,81.7,165.1z"/>
		<path class="st2" d="M81.2,159.1C81.1,159.1,81.1,159.1,81.2,159.1c-0.2,0-0.3,0.1-0.3,0.1c-0.3,0.1-0.6,0.2-0.9,0.2
			c-0.5,0.1-1,0.2-1.4,0.3c-1.1,0.2-2.3,0.4-3.5,0.6c-2.2,0.2-4.6,0.3-6.9,0.1c-0.2,0-0.2,0.2,0,0.3c2.3,0.6,4.8,0.5,7.1,0.2
			c1.1-0.1,2.3-0.3,3.4-0.5c0.5-0.1,1.1-0.2,1.6-0.3c0.4-0.1,0.8-0.1,1.1-0.4C81.6,159.4,81.4,159,81.2,159.1z"/>
		<path class="st2" d="M80,152.5c-0.8,0.4-1.8,0.6-2.7,0.8c-0.5,0.1-1.1,0.3-1.6,0.4c-0.7,0.2-1.4,0.2-2.1,0.3
			c-1.3,0.2-2.6,0.3-3.9,0.3c-0.6,0-1.3,0-1.9-0.1c-0.4-0.1-0.8-0.3-1.3-0.1c-0.1,0-0.1,0.2,0,0.3c0.5,0.2,1,0.4,1.5,0.4
			c0.6,0.1,1.2,0.1,1.8,0.1c1.4,0,2.8-0.1,4.2-0.3c1.3-0.2,2.5-0.5,3.7-0.7c0.6-0.1,1.1-0.3,1.6-0.5c0.3-0.1,0.8-0.3,1-0.6
			C80.4,152.6,80.2,152.4,80,152.5z"/>
		<path class="st2" d="M79.4,146.4c-0.4-0.1-0.8,0.1-1.2,0.2c-0.6,0.2-1.1,0.3-1.7,0.4c-1.2,0.3-2.5,0.5-3.7,0.7
			c-2.5,0.4-5.1,0.6-7.6,0.3c-0.1,0-0.1,0.1,0,0.2c0.9,0.6,2.2,0.5,3.2,0.5c1.2,0,2.5-0.1,3.7-0.3c1.2-0.2,2.5-0.4,3.7-0.6
			c0.6-0.1,1.3-0.3,1.9-0.4c0.5-0.1,1-0.4,1.5-0.6C79.6,146.7,79.6,146.4,79.4,146.4z"/>
		<path class="st2" d="M78.6,140.4c0-0.3-0.4-0.4-0.6-0.2c-2.3,0.9-4.6,1.6-7.1,1.8c-1.2,0.1-2.4,0.2-3.6,0.3c-0.6,0-1.2,0-1.8,0
			c-0.5,0-1.2,0-1.7-0.1c-0.2-0.1-0.2,0.2-0.1,0.3c0.3,0.2,0.7,0.3,1.1,0.3c0.6,0.1,1.3,0.1,1.9,0.1c1.3,0,2.6,0,4-0.2
			c2.6-0.3,5.1-0.9,7.6-1.9C78.5,140.7,78.6,140.6,78.6,140.4C78.6,140.4,78.6,140.4,78.6,140.4z"/>
	</g>
	<path class="st8" d="M46.6,189.7c-1.2-0.1-1.9-0.7-2.5-3.1c-0.6-2.4-1.4-7.4-1.6-8.7c-0.2-1.3,0.9-2.2,3.3-2.3
		c2.4-0.1,4.5-0.1,5,2.2c0.4,2.3,1.4,7.7,1.6,8.9c0.2,1.3,0.1,2.6-2,2.9C48.2,189.9,46.6,189.7,46.6,189.7z"/>
	<path class="st8" d="M70.5,179.2c-0.4-1.7-0.3-3.2,1.7-3.3c2.1-0.1,6.1-0.6,6.6,1.3c0.6,1.9,1.1,6.7,1.2,8.5
		c0.1,1.7,0.4,3.1-1.7,3.4c-2,0.4-5.3,0.9-6-1.1C71.7,186.1,70.5,179.2,70.5,179.2z"/>
	<path class="st3" d="M8,139.9c0,0-1.6-1.7,0-2.9c1.6-1.2,8-2.6,9.5-1.4c1.5,1.2,0.4,3,0.4,3s1.1,1.4,1.6,4c0.5,2.6,2.8,7.9,2.8,7.9
		s3.3-0.7,5.4,0.3c2.1,0.9,2.5,4.4-3.4,6.5c-5.9,2.1-10.4-1.3-12.3-4.6c-1.8-3.3-2.3-6.1-2.3-6.1s-2.6,4.6-5.1,3.9
		c-2.5-0.7-1.7-3.8-0.5-5.6C5.3,143.1,8,139.9,8,139.9z"/>
	<g>
		<path class="st7" d="M17.8,138.8c-0.2-0.7-1.3-0.8-1.9-0.9c-0.9-0.2-1.9-0.3-2.9-0.2c-0.9,0-1.9,0.2-2.8,0.5
			c-0.4,0.1-0.7,0.3-1.1,0.6c-0.4,0.3-0.7,0.6-1,0.9c-0.2,0.1,0,0.3,0.1,0.2c0.7-0.3,1.2-0.9,1.9-1.2c0.8-0.3,1.8-0.4,2.7-0.4
			c1.6-0.1,3.2,0.2,4.7,0.8C17.7,139.1,17.8,138.9,17.8,138.8z"/>
		<path class="st7" d="M25.3,150c-0.5-0.3-1.1-0.2-1.6-0.1c-0.9,0.1-1.7,0.1-2.6,0.4c-1.7,0.5-3.3,1.3-4.8,2.3
			c-0.4,0.3,0,0.9,0.4,0.7c1.3-0.9,2.7-1.7,4.2-2.3c0.8-0.3,1.6-0.5,2.4-0.6c0.6-0.1,1.4-0.3,1.9-0.1
			C25.3,150.2,25.4,150.1,25.3,150z"/>
	</g>
	<path class="st4" d="M64.5,218c-0.5-1.7-0.8-2.8-4.3-3.1c-3.5-0.3-19.8-2.3-22.7-2.1c-2.8,0.3-4.6,0.6-5.9,4.5
		c-1.3,3.8-2,8.4,1.6,8.6c3.6,0.3,26.8,0.1,29.3,0.2c2.6,0.1,3-1.1,2.9-3.1C65.4,220.8,64.5,218,64.5,218z"/>
	<path class="st4" d="M72.8,218.9c0.5-2.2,2-3.5,7.5-3.9c5.5-0.4,11.6,0.2,12.6,1.7c1,1.4,3,7.1,1.4,8.4c-1.6,1.3-15.4,0.8-18.2,0.6
		c-2.8-0.2-3.2-0.6-3.3-2.4C72.7,221.5,72.8,218.9,72.8,218.9z"/>
	<path class="st9" d="M41.1,86.5c0.2-2.9,1-4.4,6.2-4.4c5.3,0,10.9,0.4,12.8,0.5c1.9,0.2,3.5,0.7,3.3,4.7
		c-0.2,3.9-0.4,10.5-0.8,13.5c-0.4,3-2.2,3.7-6.3,3.6c-4.1-0.2-10-0.7-12.2-0.8c-2.2-0.1-3.8-1.1-3.7-4.1
		C40.6,96.5,41.1,86.5,41.1,86.5z"/>
	<g>
		<polygon class="st10" points="46.1,84.3 46.1,91 48.6,90.5 48.6,84.3 		"/>
		<polygon class="st10" points="46.1,94.2 48.6,94.2 48.2,100.5 46.1,100.5 		"/>
		<polygon class="st10" points="52.7,87.6 52.7,85.4 60.4,85.8 60.2,88.2 		"/>
		<polygon class="st10" points="52.7,94.5 52.4,91.6 59.7,91.9 59.7,95.1 		"/>
		<polygon class="st10" points="52.4,100.2 52.4,98.1 59.4,98.4 59.4,100.5 		"/>
	</g>
	<path class="st8" d="M36.7,51.6c0,0-0.2,4.5,0.3,7c0.6,2.5,2.8,5.3,9.2,6.3c6.4,1,26.7,1.4,32.5,1.1c5.8-0.3,8.9-2.6,9.5-9.6
		c0.6-7,2.6-33.6,2.4-39.9c-0.1-6.3-2.8-9-5.7-9.6C82,6.2,79,5.7,79,5.7l-6.5-0.8c0,0-13.6-1.2-19-0.7c-5.4,0.5-7.2,1.1-9.9,4.4
		c-2.7,3.3-3.6,5.7-3.7,8.9c-0.1,3.2,1.6,23.7,1.6,23.7L36.7,51.6z"/>
	<path class="st11" d="M39.4,47.8c0,0-4,0.2-4.3,2.8c-0.3,2.6,2.8,4.3,9.5,5.8c6.6,1.4,24,1.9,28.3,0c4.3-1.9,5-4.6,5.4-10.9
		c0.5-6.3,1.5-19,1.5-23.3C80,17.9,76.3,15,68.6,14c-7.7-1-21.9-1.1-25-0.4c-3.2,0.7-6.2,1.9-5.7,4.4c0.5,2.6,4.1,3.1,4.1,3.1
		L39.4,47.8z"/>
	<path class="st4" d="M39.1,18.9l-2.4,30.2c0,0,0.4,2.4,9,4.3c8.6,1.9,23,1.6,26.2-0.2c3.1-1.8,3.8-7.5,4.1-14.4
		c0.3-7,2.1-15.9,0-18.6c-2.1-2.6-9-3.8-15.7-4.2C53.5,15.6,39.9,15.3,39.1,18.9z"/>
	<path class="st1" d="M77.8,5.5c-0.1,0-3.4,0-5.4,2.1c-2,2.1-2.7,3.1-2.7,3.1S50.5,9,50.7,8.6c0.1-0.4,2.6-5.3,8.1-5.8
		C64.3,2.3,76,3.7,76.9,4.1C77.8,4.5,77.8,5.5,77.8,5.5z"/>
	<path class="st6" d="M86.1,35c-0.2-1.3-1.2-1.8-2.4-1.3c-1.2,0.6-1.4,2.1-1.7,3.3c-0.3,1.5-0.6,3.1-0.5,4.6c0,1,0.2,2.9,1.4,3.2
		c0.2,0.1,0.5,0,0.7,0c0.8,0.2,1.4-0.9,1.7-1.5c0.6-1.2,0.7-2.7,0.8-4c0-0.7,0-1.5,0-2.2C86.2,36.3,86.2,35.6,86.1,35z"/>
	<path class="st12" d="M71.3,20.7c-0.8-1.1-2.2-1.5-3.5-1.8c-1.6-0.4-3.3-0.7-4.9-0.9c-3.4-0.4-6.8-0.3-10.2-0.2
		c-1.7,0-3.4,0.1-5.1,0.3c-1.5,0.1-3.1,0.2-4.5,0.7c-0.6,0.2-1.1,0.5-1.5,0.9c-0.5,0.5-0.6,1.2-0.6,1.9c0,1.2,0,2.6,0.8,3.5
		c0.9,1,2.2,1.5,3.5,1.7c1.6,0.3,3.1,0.4,4.6,0.3c0.6,0,1.2-0.1,1.9-0.2c0.7,0.1,1.3,0.2,2,0.2c1.7,0.1,3.4,0.1,5.1,0.2
		c1.5,0.1,3.1,0.1,4.7,0c1.5,0,3.1-0.2,4.6-0.6c1.4-0.4,2.5-1.1,3.2-2.4C72,23.2,72.1,21.8,71.3,20.7z"/>
</g>
<g>
	<path class="st13" d="M127.6,23.3h2.4c0.1,0,0.2,0,0.2,0.1c0.1,0.1,0.1,0.2,0.1,0.3v1.2c0,0.1,0,0.2-0.1,0.3
		c-0.1,0.1-0.2,0.1-0.3,0.1h-1v0.6c0,0.3-0.1,0.5-0.3,0.5c-0.2,0-0.3-0.2-0.3-0.5v-0.6h-0.9c-0.3,0-0.5-0.1-0.5-0.3
		c0-0.2,0.2-0.3,0.5-0.3h2.2V24h-2.4c-0.1,0-0.2,0-0.2-0.1c-0.1-0.1-0.1-0.2-0.1-0.3v-1.2c0-0.1,0-0.2,0.1-0.3
		c0.1-0.1,0.2-0.1,0.3-0.1h1v-0.6c0-0.3,0.1-0.4,0.3-0.4c0.2,0,0.3,0.1,0.3,0.4V22h0.9c0.3,0,0.5,0.1,0.5,0.3c0,0.2-0.2,0.3-0.5,0.3
		h-2.2V23.3z"/>
	<path class="st13" d="M137.9,26.3h-1.1c-0.3,0-0.5-0.1-0.7-0.2l-0.6-0.5c-0.2-0.2-0.3-0.4-0.3-0.7v-0.8c0-0.3,0.1-0.5,0.3-0.7
		l0.6-0.5c0.2-0.1,0.4-0.2,0.7-0.2h1.1c0.2,0,0.3,0,0.3,0c0,0,0.1,0,0.2,0.1c0.1,0.1,0.1,0.1,0.1,0.2c0,0.1,0,0.2-0.1,0.3
		c-0.1,0-0.2,0.1-0.4,0.1h-1.1c-0.1,0-0.2,0-0.2,0s-0.1,0-0.1,0.1l-0.5,0.4c-0.1,0-0.1,0.1-0.1,0.1c0,0,0,0.1,0,0.2v0.6
		c0,0.1,0,0.2,0,0.2c0,0,0,0.1,0.1,0.1l0.5,0.4c0.1,0.1,0.1,0.1,0.1,0.1s0.1,0,0.2,0h1.1c0.2,0,0.3,0,0.3,0s0.1,0,0.1,0.1
		s0.1,0.1,0.1,0.2c0,0.1,0,0.2-0.1,0.2s-0.1,0.1-0.2,0.1C138.2,26.3,138.1,26.3,137.9,26.3z"/>
	<path class="st13" d="M141,22.6h0.5c0.2,0,0.3,0,0.3,0s0.1,0,0.2,0.1c0.1,0.1,0.1,0.1,0.1,0.2c0,0.1,0,0.2-0.1,0.2
		c-0.1,0-0.1,0.1-0.2,0.1c0,0-0.1,0-0.3,0H141v2.5v0.1c0,0.1,0,0.2,0,0.2s0,0.1-0.1,0.1s-0.1,0.1-0.2,0.1c-0.1,0-0.2,0-0.2-0.1
		s-0.1-0.1-0.1-0.2c0,0,0-0.1,0-0.3v-2.5h-0.1c-0.2,0-0.4,0-0.4-0.1s-0.1-0.1-0.1-0.3s0-0.2,0.1-0.3c0.1,0,0.2-0.1,0.4-0.1h0.1v-0.2
		c0-0.3,0.1-0.6,0.3-0.8c0.2-0.2,0.5-0.3,0.9-0.3h0.5c0.2,0,0.3,0,0.3,0c0,0,0.1,0,0.2,0.1c0.1,0.1,0.1,0.1,0.1,0.2
		c0,0.1,0,0.2-0.1,0.2s-0.1,0.1-0.2,0.1c0,0-0.1,0-0.3,0h-0.5c-0.4,0-0.5,0.2-0.5,0.5V22.6z"/>
	<path class="st13" d="M148.3,25.9v1.2v0.1c0,0.1,0,0.1,0,0.2c0,0,0,0.1-0.1,0.2c-0.1,0.1-0.2,0.1-0.3,0.1c-0.1,0-0.2,0-0.2-0.1
		c0-0.1-0.1-0.1-0.1-0.2c0,0,0-0.1,0-0.3v-4c0-0.2,0-0.3,0-0.3c0,0,0-0.1,0.1-0.2c0.1-0.1,0.1-0.1,0.2-0.1c0.2,0,0.3,0.1,0.3,0.4
		v0.1l0.3-0.2c0.1-0.1,0.2-0.2,0.3-0.2c0.1,0,0.2,0,0.3,0h0.2c0.1,0,0.2,0,0.3,0c0.1,0,0.2,0.1,0.3,0.2l0.5,0.4
		c0.1,0.1,0.2,0.2,0.3,0.3c0.1,0.1,0.1,0.3,0.1,0.5V25c0,0.2,0,0.4-0.1,0.5s-0.1,0.2-0.3,0.3l-0.5,0.4c-0.1,0.1-0.2,0.2-0.3,0.2
		c-0.1,0-0.2,0-0.3,0h-0.2c-0.1,0-0.2,0-0.3,0c-0.1,0-0.2-0.1-0.3-0.2L148.3,25.9z M150.1,23.8l-0.6-0.5c-0.1,0-0.1-0.1-0.2-0.1
		h-0.1c-0.1,0-0.2,0-0.3,0.1l-0.5,0.5c-0.1,0-0.1,0.1-0.1,0.1c0,0,0,0.1,0,0.2v0.6c0,0.1,0,0.1,0,0.2c0,0,0,0.1,0.1,0.1l0.5,0.5
		c0.1,0.1,0.2,0.1,0.3,0.1h0.1c0.1,0,0.1,0,0.2-0.1l0.6-0.5c0.1-0.1,0.1-0.2,0.1-0.3v-0.8C150.2,24,150.2,23.9,150.1,23.8z"/>
	<path class="st13" d="M154.3,25.7l-0.6,0.4c-0.1,0.1-0.2,0.1-0.3,0.1c-0.1,0-0.2,0-0.3,0h-0.4c-0.3,0-0.5-0.1-0.7-0.3
		s-0.3-0.4-0.3-0.8l0-2.1v-0.1v-0.1V23c0-0.3,0.1-0.4,0.3-0.4c0.1,0,0.2,0,0.3,0.1c0,0.1,0.1,0.2,0.1,0.4l0,2c0,0.2,0,0.3,0.1,0.4
		c0.1,0.1,0.2,0.1,0.3,0.1h0.2c0.1,0,0.2,0,0.2,0c0,0,0.1,0,0.2-0.1l0.9-0.6v-1.8c0-0.2,0-0.3,0-0.3c0,0,0-0.1,0.1-0.2
		c0.1-0.1,0.1-0.1,0.2-0.1c0.1,0,0.2,0,0.2,0.1s0.1,0.1,0.1,0.2c0,0,0,0.1,0,0.3v2.6v0.1c0,0.1,0,0.2,0,0.2c0,0,0,0.1-0.1,0.1
		c-0.1,0.1-0.1,0.1-0.2,0.1c-0.1,0-0.2,0-0.3-0.1S154.3,26,154.3,25.7L154.3,25.7z"/>
	<path class="st13" d="M157,22.6h1.2c0.2,0,0.3,0,0.4,0c0.1,0,0.2,0.1,0.2,0.1l0.2,0.2c0.1,0.1,0.2,0.2,0.2,0.3c0,0.1,0,0.2-0.1,0.2
		c-0.1,0.1-0.1,0.1-0.2,0.1c-0.1,0-0.1,0-0.2,0s-0.1-0.1-0.1-0.1c-0.1-0.1-0.2-0.1-0.3-0.1H157c-0.2,0-0.3,0.1-0.3,0.2
		c0,0.1,0,0.1,0,0.1c0,0,0.1,0.1,0.2,0.1l1.7,0.8c0.2,0.1,0.3,0.2,0.4,0.4c0.1,0.1,0.1,0.3,0.1,0.6c0,0.3-0.1,0.5-0.3,0.7
		c-0.2,0.2-0.4,0.3-0.7,0.3H157c-0.3,0-0.5-0.1-0.7-0.2l-0.2-0.1c-0.1-0.1-0.2-0.2-0.2-0.3c0-0.1,0-0.2,0.1-0.2
		c0.1-0.1,0.1-0.1,0.2-0.1c0.1,0,0.2,0,0.3,0.1c0.1,0.1,0.2,0.1,0.4,0.1h1.1c0.3,0,0.4-0.1,0.4-0.4c0-0.1-0.1-0.2-0.2-0.3l-1.7-0.8
		c-0.3-0.1-0.5-0.4-0.5-0.8c0-0.3,0.1-0.5,0.3-0.6C156.4,22.7,156.7,22.6,157,22.6z"/>
	<path class="st13" d="M160.7,23.2l0.6-0.4c0.2-0.1,0.4-0.2,0.6-0.2h0.4c0.3,0,0.5,0.1,0.7,0.3s0.3,0.4,0.3,0.8l0,2.1v0.1v0.1
		c0,0.3-0.1,0.4-0.3,0.4c-0.1,0-0.2,0-0.3-0.1s-0.1-0.1-0.1-0.2c0-0.1,0-0.1,0-0.2l0-2c0-0.2,0-0.3-0.1-0.4
		c-0.1-0.1-0.2-0.1-0.3-0.1H162c-0.1,0-0.2,0-0.2,0s-0.1,0-0.2,0.1l-0.9,0.6v1.8c0,0.2,0,0.4-0.1,0.4c0,0.1-0.1,0.1-0.3,0.1
		c-0.1,0-0.2,0-0.2-0.1c0-0.1-0.1-0.1-0.1-0.2c0,0,0-0.1,0-0.3v-3.9c0-0.2,0-0.3,0-0.3s0-0.1,0.1-0.2c0.1-0.1,0.1-0.1,0.2-0.1
		c0.1,0,0.2,0,0.2,0.1s0.1,0.1,0.1,0.2s0,0.1,0,0.3V23.2z"/>
	<path class="st13" d="M169,22.9l0.1-0.1c0.1-0.1,0.3-0.1,0.4-0.1c0.2,0,0.4,0.1,0.6,0.3l0.1-0.1c0.1-0.1,0.3-0.2,0.5-0.2
		c0.2,0,0.4,0.1,0.5,0.2c0.1,0.1,0.2,0.4,0.2,0.6l0.1,2.3v0.1v0.1v0.1c0,0.3-0.1,0.4-0.3,0.4c-0.1,0-0.2,0-0.3-0.1s-0.1-0.2-0.1-0.4
		l-0.1-2.2c0-0.1,0-0.2,0-0.2c0,0-0.1,0-0.1,0c0,0-0.1,0-0.1,0.1l-0.3,0.3v2v0.1c0,0.1,0,0.2,0,0.2s0,0.1-0.1,0.1s-0.1,0.1-0.2,0.1
		c-0.1,0-0.2,0-0.2-0.1s-0.1-0.1-0.1-0.2c0,0,0-0.1,0-0.3v-2.2c0-0.2-0.1-0.2-0.2-0.2c0,0-0.1,0-0.1,0l-0.4,0.3v2v0.1
		c0,0.1,0,0.2,0,0.2s0,0.1-0.1,0.1c-0.1,0.1-0.1,0.1-0.2,0.1c-0.1,0-0.2,0-0.2-0.1c0-0.1-0.1-0.1-0.1-0.2c0,0,0-0.1,0-0.3V23
		c0-0.1,0-0.2,0.1-0.3s0.1-0.1,0.2-0.1C168.8,22.6,168.9,22.7,169,22.9z"/>
	<path class="st13" d="M174.2,25.4l0.9-1.9l0-0.3c0-0.2,0-0.3,0-0.3c0,0,0-0.1,0.1-0.2c0.1-0.1,0.1-0.1,0.2-0.1c0.1,0,0.2,0,0.3,0.1
		c0.1,0.1,0.1,0.2,0.1,0.4v0.2v0.2c0,0.1,0,0.1,0,0.2c0,0.1-0.1,0.1-0.1,0.2l-1.7,3.6c-0.1,0.1-0.1,0.2-0.2,0.2
		c-0.1,0-0.1,0.1-0.2,0.1H173c-0.2,0-0.3,0-0.3,0s-0.1,0-0.1-0.1s-0.1-0.1-0.1-0.2c0-0.2,0.1-0.3,0.4-0.3h0.1l0.4,0l0.5-1h-0.1
		c-0.1,0-0.1,0-0.2,0s-0.1-0.1-0.1-0.2l-0.9-1.9c-0.1-0.1-0.1-0.2-0.1-0.2s0-0.1,0-0.1v-0.2v-0.2c0-0.3,0.1-0.5,0.3-0.5
		c0.1,0,0.2,0,0.2,0.1s0.1,0.1,0.1,0.2c0,0,0,0.1,0,0.3v0.3l0.9,1.9L174.2,25.4z"/>
	<path class="st13" d="M179.1,24l0-0.3c0-0.1,0-0.2-0.1-0.3s-0.2-0.1-0.4-0.1h-0.8c-0.2,0-0.4,0-0.4-0.1c-0.1,0-0.1-0.1-0.1-0.3
		c0-0.2,0.1-0.3,0.4-0.3h0.1h0.9c0.3,0,0.6,0.1,0.8,0.3s0.3,0.4,0.3,0.7l0.1,2.1v0.2c0,0.3-0.1,0.4-0.3,0.4c-0.2,0-0.3-0.1-0.3-0.3
		l-0.5,0.3c-0.1,0-0.2,0.1-0.2,0.1h-0.8c-0.3,0-0.5-0.1-0.7-0.3c-0.2-0.2-0.3-0.4-0.3-0.7v-0.5c0-0.2,0.1-0.5,0.3-0.6
		s0.4-0.3,0.7-0.3h1.2L179.1,24z M179.2,25.3V25c0-0.3-0.1-0.4-0.4-0.4h-1.1c-0.1,0-0.2,0-0.3,0.1s-0.1,0.1-0.1,0.2v0.4
		c0,0.1,0,0.2,0.1,0.2s0.1,0.1,0.2,0.1h0.8L179.2,25.3z"/>
	<path class="st13" d="M181.4,25.9v1.2v0.1c0,0.1,0,0.1,0,0.2c0,0,0,0.1-0.1,0.2c-0.1,0.1-0.2,0.1-0.3,0.1c-0.1,0-0.2,0-0.2-0.1
		c0-0.1-0.1-0.1-0.1-0.2c0,0,0-0.1,0-0.3v-4c0-0.2,0-0.3,0-0.3c0,0,0-0.1,0.1-0.2c0.1-0.1,0.1-0.1,0.2-0.1c0.2,0,0.3,0.1,0.3,0.4
		v0.1l0.3-0.2c0.1-0.1,0.2-0.2,0.3-0.2c0.1,0,0.2,0,0.3,0h0.2c0.1,0,0.2,0,0.3,0c0.1,0,0.2,0.1,0.3,0.2l0.5,0.4
		c0.1,0.1,0.2,0.2,0.3,0.3c0.1,0.1,0.1,0.3,0.1,0.5V25c0,0.2,0,0.4-0.1,0.5s-0.1,0.2-0.3,0.3l-0.5,0.4c-0.1,0.1-0.2,0.2-0.3,0.2
		c-0.1,0-0.2,0-0.3,0h-0.2c-0.1,0-0.2,0-0.3,0c-0.1,0-0.2-0.1-0.3-0.2L181.4,25.9z M183.2,23.8l-0.6-0.5c-0.1,0-0.1-0.1-0.2-0.1
		h-0.1c-0.1,0-0.2,0-0.3,0.1l-0.5,0.5c-0.1,0-0.1,0.1-0.1,0.1c0,0,0,0.1,0,0.2v0.6c0,0.1,0,0.1,0,0.2c0,0,0,0.1,0.1,0.1l0.5,0.5
		c0.1,0.1,0.2,0.1,0.3,0.1h0.1c0.1,0,0.1,0,0.2-0.1l0.6-0.5c0.1-0.1,0.1-0.2,0.1-0.3v-0.8C183.3,24,183.3,23.9,183.2,23.8z"/>
	<path class="st13" d="M185.6,25.9v1.2v0.1c0,0.1,0,0.1,0,0.2c0,0,0,0.1-0.1,0.2c-0.1,0.1-0.2,0.1-0.3,0.1c-0.1,0-0.2,0-0.2-0.1
		c0-0.1-0.1-0.1-0.1-0.2c0,0,0-0.1,0-0.3v-4c0-0.2,0-0.3,0-0.3c0,0,0-0.1,0.1-0.2c0.1-0.1,0.1-0.1,0.2-0.1c0.2,0,0.3,0.1,0.3,0.4
		v0.1l0.3-0.2c0.1-0.1,0.2-0.2,0.3-0.2c0.1,0,0.2,0,0.3,0h0.2c0.1,0,0.2,0,0.3,0c0.1,0,0.2,0.1,0.3,0.2l0.5,0.4
		c0.1,0.1,0.2,0.2,0.3,0.3c0.1,0.1,0.1,0.3,0.1,0.5V25c0,0.2,0,0.4-0.1,0.5s-0.1,0.2-0.3,0.3l-0.5,0.4c-0.1,0.1-0.2,0.2-0.3,0.2
		c-0.1,0-0.2,0-0.3,0h-0.2c-0.1,0-0.2,0-0.3,0c-0.1,0-0.2-0.1-0.3-0.2L185.6,25.9z M187.3,23.8l-0.6-0.5c-0.1,0-0.1-0.1-0.2-0.1
		h-0.1c-0.1,0-0.2,0-0.3,0.1l-0.5,0.5c-0.1,0-0.1,0.1-0.1,0.1c0,0,0,0.1,0,0.2v0.6c0,0.1,0,0.1,0,0.2c0,0,0,0.1,0.1,0.1l0.5,0.5
		c0.1,0.1,0.2,0.1,0.3,0.1h0.1c0.1,0,0.1,0,0.2-0.1l0.6-0.5c0.1-0.1,0.1-0.2,0.1-0.3v-0.8C187.5,24,187.4,23.9,187.3,23.8z"/>
</g>
<g>
	<path class="st13" d="M131.3,33l2.1-3h2.1v12.1c0,0.8-0.3,1.1-0.9,1.1c-0.6,0-0.8-0.4-0.8-1.1v-9.8l-1.7,2.4l0,0.2
		c0,0.8-0.3,1.1-0.8,1.1c-0.6,0-0.9-0.4-0.9-1.1l0-0.2l-1.7-2.4v9.8c0,0.8-0.3,1.1-0.8,1.1c-0.6,0-0.9-0.4-0.9-1.1V30h2.1L131.3,33z
		"/>
	<path class="st13" d="M141.8,40.9l2.2-4.8l0-0.7c0-0.4,0-0.6,0-0.7c0-0.1,0.1-0.2,0.2-0.4c0.1-0.2,0.3-0.2,0.6-0.2
		c0.3,0,0.5,0.1,0.6,0.3c0.1,0.2,0.2,0.5,0.2,0.9v0.5v0.5c0,0.2,0,0.3-0.1,0.4c-0.1,0.1-0.1,0.3-0.2,0.5l-4.1,9
		c-0.1,0.3-0.3,0.5-0.4,0.5c-0.1,0.1-0.3,0.1-0.6,0.1h-1.2c-0.4,0-0.7,0-0.7,0s-0.2-0.1-0.4-0.2c-0.2-0.1-0.2-0.3-0.2-0.6
		c0-0.5,0.3-0.8,1-0.8h0.4l0.9,0l1.2-2.5h-0.2c-0.2,0-0.3,0-0.4-0.1c-0.1-0.1-0.2-0.3-0.3-0.6l-2.2-4.8c-0.1-0.3-0.2-0.5-0.3-0.6
		s0-0.2,0-0.3v-0.5v-0.5c0-0.8,0.3-1.2,0.8-1.2c0.3,0,0.5,0.1,0.6,0.3c0.1,0.2,0.2,0.3,0.2,0.4c0,0.1,0,0.3,0,0.7v0.7l2.2,4.8
		L141.8,40.9z"/>
	<path class="st13" d="M153.3,42l-1.8-3.5c-0.3-0.6-0.4-1.2-0.4-1.8c0-0.6,0.1-1.1,0.4-1.6l1.8-3.7c0.4-0.8,1.1-1.3,2-1.3
		c0.4,0,0.8,0.1,1.1,0.3c0.4,0.2,0.6,0.5,0.8,0.9l1.9,3.8c0.2,0.5,0.4,1.1,0.4,1.7s-0.2,1.2-0.5,1.9l-1.7,3.5
		c-0.2,0.4-0.4,0.7-0.8,0.9s-0.8,0.3-1.1,0.3C154.4,43.3,153.8,42.8,153.3,42z M155.8,41.2l1.8-3.6c0.1-0.3,0.2-0.6,0.2-1
		c0-0.3-0.1-0.7-0.3-1.2l-1.7-3.5c-0.1-0.2-0.3-0.3-0.5-0.3c-0.2,0-0.4,0.1-0.5,0.3l-1.7,3.4c-0.2,0.3-0.2,0.5-0.3,0.7
		c0,0.1-0.1,0.3-0.1,0.6c0,0.3,0.1,0.7,0.3,1.2l1.6,3.3c0.1,0.3,0.3,0.4,0.6,0.4C155.5,41.6,155.7,41.4,155.8,41.2z"/>
	<path class="st13" d="M163.3,35.8l1.5-1.2c0.3-0.2,0.5-0.4,0.7-0.5c0.2-0.1,0.5-0.1,0.9-0.1h0.7c0.8,0,1.4,0.2,1.9,0.7
		c0.5,0.5,0.7,1.1,0.7,1.8c0,0.7-0.3,1.1-0.8,1.1c-0.3,0-0.5-0.1-0.6-0.2c-0.1-0.2-0.2-0.4-0.2-0.7v-0.2c0-0.6-0.3-0.9-0.9-0.9h-0.7
		c-0.2,0-0.4,0-0.5,0c-0.1,0-0.2,0.1-0.3,0.2l-2.4,2v3.9c0,0.5-0.1,0.9-0.2,1.1c-0.1,0.2-0.3,0.3-0.6,0.3c-0.3,0-0.5-0.1-0.6-0.3
		c-0.1-0.2-0.2-0.3-0.2-0.4c0-0.1,0-0.3,0-0.7v-6.5c0-0.4,0-0.6,0-0.7c0-0.1,0.1-0.2,0.2-0.4c0.1-0.2,0.3-0.2,0.6-0.2
		c0.3,0,0.5,0.1,0.6,0.3c0.1,0.2,0.2,0.3,0.2,0.4c0,0.1,0,0.3,0,0.7V35.8z"/>
	<path class="st13" d="M177.5,34.5l0.9,0.7c0-0.8,0.3-1.1,0.8-1.1c0.3,0,0.5,0.1,0.6,0.3c0.1,0.2,0.2,0.3,0.2,0.4c0,0.1,0,0.3,0,0.7
		v8c0,0.6,0,1.1-0.1,1.3s-0.3,0.5-0.6,0.7l-0.9,0.7c-0.4,0.4-1,0.6-1.7,0.6h-2.7h-0.3c-0.3,0-0.4,0-0.5,0s-0.2-0.1-0.3-0.2
		c-0.2-0.1-0.2-0.3-0.2-0.6c0-0.5,0.3-0.8,1-0.8h0.4h2.6c0.3,0,0.6-0.1,0.8-0.2l0.7-0.5c0.1-0.1,0.2-0.2,0.2-0.3s0-0.3,0-0.6v-2.1
		l-0.7,0.7c-0.2,0.2-0.5,0.3-0.6,0.4c-0.2,0.1-0.5,0.1-0.8,0.1H175c-0.4,0-0.6,0-0.8-0.1c-0.2,0-0.3-0.1-0.5-0.3l-0.9-0.8
		c-0.5-0.5-0.8-1-0.8-1.6v-2.9c0-0.7,0.3-1.3,0.8-1.7l0.7-0.6c0.5-0.4,1-0.6,1.5-0.6h1.1C176.7,34.1,177.1,34.2,177.5,34.5z
		 M173.6,37.2v2.2c0,0.4,0.1,0.7,0.2,0.8l0.6,0.5c0.2,0.1,0.4,0.2,0.7,0.2h1c0.2,0,0.4-0.1,0.7-0.3l1.2-1c0.2-0.1,0.3-0.3,0.3-0.4
		c0.1-0.1,0.1-0.2,0.1-0.4v-1.1c0-0.2,0-0.3-0.1-0.4c0-0.1-0.2-0.2-0.3-0.3l-1.2-1c-0.2-0.2-0.5-0.3-0.7-0.3h-1c-0.2,0-0.3,0-0.4,0
		c-0.1,0-0.2,0.1-0.3,0.2l-0.6,0.5C173.7,36.6,173.6,36.8,173.6,37.2z"/>
	<path class="st13" d="M186.6,43.3h-0.3c-0.5,0-0.8-0.1-1-0.2c-0.2-0.1-0.3-0.4-0.3-0.7V42c0-0.5,0.1-0.8,0.2-1
		c0.1-0.2,0.4-0.3,0.7-0.3h0.3c0.5,0,0.8,0.1,1,0.2c0.2,0.1,0.3,0.4,0.3,0.7v0.4c0,0.2,0,0.4-0.1,0.7
		C187.4,43.1,187.1,43.3,186.6,43.3z M187.5,31.4l-0.3,5.5c0,0.5-0.1,0.9-0.2,1c-0.1,0.2-0.4,0.3-0.7,0.3c-0.3,0-0.6-0.1-0.7-0.3
		c-0.1-0.2-0.2-0.5-0.2-1l-0.3-5.5v-0.5c0-0.6,0.3-0.9,0.9-0.9h0.3c0.5,0,0.8,0.1,0.9,0.2c0.2,0.1,0.2,0.4,0.2,0.7V31.4z"/>
</g>
</svg>
