<?xml version="1.0" encoding="utf-8"?>
<!-- Generator: Adobe Illustrator 22.0.1, SVG Export Plug-In . SVG Version: 6.00 Build 0)  -->
<svg version="1.1" id="Layer_1" xmlns="http://www.w3.org/2000/svg" xmlns:xlink="http://www.w3.org/1999/xlink" x="0px" y="0px"
	 viewBox="0 0 126.9 62.9" style="enable-background:new 0 0 126.9 62.9;" xml:space="preserve">
<style type="text/css">
	.st0{fill:#048875;}
</style>
<path class="st0" d="M51.8,23c0.3-0.1,0.6,0,0.9,0.2c0.2,0.2,0.4,0.5,0.4,0.8v27.2l4.8-1l0-33.2l-6.1,1.3V23z"/>
<path class="st0" d="M79.3,17.2c0.3-0.1,0.6,0,0.9,0.2c0.2,0.2,0.4,0.5,0.4,0.8v27.2l4.8-1l0-33.2l-6.1,1.3V17.2z"/>
<path class="st0" d="M102,7.5l-12.1,2.6v4.8c0.3-0.1,0.6,0,0.9,0.2c0.2,0.2,0.4,0.5,0.4,0.8l0,24.7c0,0.6,0.3,1.2,0.7,1.6
	c0.5,0.4,1.1,0.5,1.7,0.3l8.5-1.8c0.6-0.1,1.3-0.5,1.7-1.1c0.5-0.5,0.7-1.2,0.7-1.9V9.4c0-0.6-0.3-1.2-0.7-1.6
	C103.3,7.5,102.6,7.4,102,7.5z M99.6,14.1l0,22.3L96,37.2V13.7l2.4-0.5c0.3-0.1,0.6,0,0.9,0.2C99.5,13.5,99.6,13.8,99.6,14.1z"/>
<path class="st0" d="M118.7,20.5L115,4.9L109,6.1V11c0.3-0.1,0.6,0,0.9,0.2c0.2,0.2,0.4,0.5,0.4,0.8v27.2l4.8-1l0-16.4l3.6,15.6
	l4.8-1V3.1l-4.8,1V20.5z"/>
<path class="st0" d="M42.3,36.6l-3.6-15.6l-6.1,1.3v4.8c0.3-0.1,0.6,0,0.9,0.2c0.2,0.2,0.4,0.5,0.4,0.8v27.2l4.8-1l0-16.4l3.6,15.6
	l4.8-1V19.1l-4.8,1V36.6z"/>
<path class="st0" d="M3.1,33.3c0.3-0.1,0.6,0,0.9,0.2c0.2,0.2,0.4,0.5,0.4,0.8v27.2l4.8-1l0-33.2l-6.1,1.3V33.3z"/>
<path class="st0" d="M22.6,37.3l0,4.8l0,0c0.3-0.1,0.6,0,0.9,0.2c0.2,0.2,0.4,0.5,0.4,0.8v9.3l-3.6,0.8l0-23.5l2.4-0.5
	c0.3-0.1,0.6,0,0.9,0.2c0.2,0.2,0.4,0.5,0.4,0.8l0,2.4l4.8-1v-6.1c0-0.6-0.3-1.2-0.7-1.6c-0.5-0.4-1.1-0.5-1.7-0.3l-12.1,2.6l0,4.8
	c0.3-0.1,0.6,0,0.9,0.2c0.2,0.2,0.4,0.5,0.4,0.8l0,24.7c0,0.6,0.3,1.2,0.7,1.6c0.5,0.4,1.1,0.5,1.7,0.3l8.5-1.8
	c0.6-0.1,1.3-0.5,1.7-1.1c0.5-0.5,0.7-1.2,0.7-1.9l0-17.8L22.6,37.3z"/>
<path class="st0" d="M62.1,20.7l3-0.6c0.3-0.1,0.6,0,0.9,0.2c0.2,0.2,0.4,0.5,0.4,0.8l0,27.2l4.8-1V18.7l4.2-0.9l0-4.8l-13.3,2.8
	L62.1,20.7z"/>
</svg>
