<?xml version="1.0" encoding="utf-8"?>
<!-- Generator: Adobe Illustrator 22.0.1, SVG Export Plug-In . SVG Version: 6.00 Build 0)  -->
<svg version="1.1" id="Layer_1" xmlns="http://www.w3.org/2000/svg" xmlns:xlink="http://www.w3.org/1999/xlink" x="0px" y="0px"
	 viewBox="0 0 112.7 137.4" style="enable-background:new 0 0 112.7 137.4;" xml:space="preserve">
<style type="text/css">
	.st0{fill:#0D3D60;}
	.st1{fill:#FFFFFF;}
</style>
<g>
	<circle class="st0" cx="56.4" cy="82.4" r="52.1"/>
	<g>
		<path class="st1" d="M38.3,13.8c0-0.7-0.2-1.3-0.7-1.7s-1.4-0.8-2.7-1.2s-2.3-0.8-2.9-1.2c-0.9-0.6-1.3-1.4-1.3-2.4
			c0-1,0.4-1.8,1.2-2.4s1.8-0.9,3.1-0.9c0.8,0,1.6,0.2,2.3,0.5s1.2,0.8,1.6,1.4s0.6,1.2,0.6,2h-1.1c0-0.9-0.3-1.6-0.9-2.1
			s-1.4-0.8-2.4-0.8c-1,0-1.8,0.2-2.3,0.7c-0.6,0.4-0.9,1-0.9,1.7c0,0.7,0.3,1.2,0.8,1.6s1.4,0.8,2.5,1.1s2,0.6,2.6,1s1,0.7,1.3,1.2
			s0.4,1,0.4,1.7c0,1-0.4,1.8-1.2,2.4s-1.9,0.9-3.2,0.9c-0.9,0-1.7-0.2-2.5-0.5s-1.3-0.8-1.7-1.4s-0.6-1.2-0.6-2h1.1
			c0,0.9,0.3,1.6,1,2.1s1.6,0.8,2.7,0.8c1,0,1.8-0.2,2.4-0.7S38.3,14.5,38.3,13.8z"/>
		<path class="st1" d="M54.9,5h-4.4v11.9h-1.1V5h-4.4V4.1h9.8V5z"/>
		<path class="st1" d="M68.6,10.8h-6V16h6.9v0.9h-8V4.1h7.9V5h-6.8v4.8h6V10.8z"/>
		<path class="st1" d="M77.3,11.7v5.2h-1.1V4.1h4.4c1.3,0,2.4,0.3,3.2,1s1.2,1.6,1.2,2.8c0,1.2-0.4,2.1-1.1,2.8s-1.8,1-3.2,1H77.3z
			 M77.3,10.8h3.3c1,0,1.8-0.2,2.4-0.7c0.6-0.5,0.8-1.2,0.8-2.1c0-0.9-0.3-1.6-0.8-2.1C82.4,5.3,81.7,5,80.7,5h-3.3V10.8z"/>
	</g>
	<g>
		<path class="st1" d="M67.2,64.1H47.2c-2.7,0-4.1-1-4.1-3.1c0-2,1.4-3,4.1-3h20.1c1.6,0,3,0.5,4.2,1.6c1.2,1,1.8,2.3,1.8,3.7v13.3
			c0,2-0.8,3.8-2.3,5.3c1.5,1.8,2.3,3.8,2.3,6.2v11.5c0,1.7-0.6,3.1-1.8,4.3c-1.2,1.2-2.6,1.8-4.3,1.8h-20c-2.7,0-4.1-1-4.1-3.1
			c0-2,1.4-3,4.1-3h20.1v-11c0-2.4-1.1-3.6-3.3-3.6H53.2c-2.7,0-4.1-1-4.1-3c0-2,1.4-3.1,4.1-3.1h10.9c2.1,0,3.1-1.3,3.1-3.8V64.1z"
			/>
	</g>
</g>
</svg>
